<svg xmlns="http://www.w3.org/2000/svg" width="74.5" height="92.792" viewBox="0 0 74.5 92.792">
  <g id="Group_1856" data-name="Group 1856" transform="translate(4090 9737)">
    <g id="icon" transform="translate(-4064.954 -9687.966)" opacity="0.07">
      <g id="info" transform="translate(0 0)">
        <circle id="Ellipse_30" data-name="Ellipse 30" cx="20.379" cy="20.379" r="20.379" transform="translate(0 0)" stroke-width="6" stroke="#000" stroke-linecap="round" stroke-linejoin="round" fill="none"/>
        <line id="Line_132" data-name="Line 132" y1="8.152" transform="translate(20.379 20.379)" fill="none" stroke="#000" stroke-linecap="round" stroke-linejoin="round" stroke-width="7"/>
        <line id="Line_133" data-name="Line 133" transform="translate(20.379 12.227)" fill="none" stroke="#000" stroke-linecap="round" stroke-linejoin="round" stroke-width="7"/>
      </g>
    </g>
    <g id="Layer_2" data-name="Layer 2" transform="translate(-4090 -9737)">
      <g id="Illustration" transform="translate(0 0)">
        <path id="Path_792" data-name="Path 792" d="M448.374,27.325a3.14,3.14,0,0,1-.067.645H432.32a1.806,1.806,0,0,1,2.061-1.5,2.611,2.611,0,0,1,3.272-2.22,3.841,3.841,0,0,1,7.408-.089h.148a3.166,3.166,0,0,1,3.159,2.919C448.368,27.158,448.374,27.241,448.374,27.325Z" transform="translate(-393.922 -19.477)" fill="#e9fcff"/>
        <path id="Path_793" data-name="Path 793" d="M448.374,61.927a3.14,3.14,0,0,1-.067.645H432.32a1.806,1.806,0,0,1,2.061-1.5,2.618,2.618,0,0,1,.942-1.718l13.045,2.327C448.368,61.76,448.374,61.842,448.374,61.927Z" transform="translate(-393.922 -54.078)" fill="#d1dfe0"/>
        <path id="Path_794" data-name="Path 794" d="M686.44,151.509H671.59a3.241,3.241,0,0,1,4.167-2.637,3.924,3.924,0,0,1,7.362,1.084,2.413,2.413,0,0,1,3.3,1.486C686.427,151.464,686.433,151.486,686.44,151.509Z" transform="translate(-611.94 -133.691)" fill="#e9fcff"/>
        <path id="Path_795" data-name="Path 795" d="M686.44,177.776H671.59a3.237,3.237,0,0,1,1.391-2.226l13.439,2.158C686.427,177.731,686.433,177.753,686.44,177.776Z" transform="translate(-611.94 -159.958)" fill="#d1dfe0"/>
        <path id="Path_796" data-name="Path 796" d="M385.3,650.912l-4.488,3.225-5.313,5.249,7.555.873,6.756-2.294,6.2-1.119-1.261,1.707,1.873,2.294,4.657,1.818,5.307-1.818,3.2-3.254,4.551-4.118L402.831,648.8l-12.776-1.149Z" transform="translate(-342.148 -590.126)" fill="#e1c23e"/>
        <path id="Path_797" data-name="Path 797" d="M489.41,412.625l-1.982-3.538c-6.2-1.829-5.908-6.395-5.908-6.395l.622.711h.566l.2-1.155.2.795h.671l.079-.994.434.795h.426l.158-.636.394.636.513-.236-.829-3.1c-4.81-1.034-4.678-4.373-4.678-4.373l.4.755h.533l.276-.835.2.835h.456l.211-.755.2.556h.513v-2.265c-4.619-.477-4.982-6.317-4.982-6.317H477.2s-.366,5.84-4.982,6.317v2.265h.512l.2-.556.211.755h.46l.2-.835.276.835h.533l.4-.755s.127,3.339-4.686,4.373l-.829,3.1.512.239.4-.636.157.636h.434l.433-.795.079.994h.671l.2-.795.2,1.155h.566l.622-.711s.3,4.571-5.907,6.395l-1.983,3.538.711.318.513-.477-.079,1.155.839.517,1.015-.914-.158,1.351.552.279.513-.875v1.186l.552.2.552-.557.157.755,1.836.239.5-.991.186.994h8.155l.187-.994.5.994,1.835-.239.158-.755.552.557.552-.2v-1.194l.512.875.552-.279-.157-1.351,1.015.914.838-.517-.078-1.155.512.477Z" transform="translate(-424.492 -352.727)" fill="#0d5a45"/>
        <path id="Path_798" data-name="Path 798" d="M558.229,400.27s-1.076,4.637-3.649,5.24l.385.942h.435l.151-.6.378.075.075.792h.64l.151-.754.188.754h3.051v-.83l.453.83h.791V406l.453.717.754-.189-.226-1.018a5.662,5.662,0,0,1-3.793-5.089Z" transform="translate(-505.323 -364.718)" fill="#127c5b"/>
        <path id="Path_799" data-name="Path 799" d="M520.3,488.14a5.35,5.35,0,0,1-4.361,3.92l-.943,1.81h.48l.236-.566.038.566h.3l.34-.528.075.792.622-.151V493.3l.322.29.238.916h.444l1.131-.377.339.6a20.856,20.856,0,0,0,4.75,0l-.716-2.22a4,4,0,0,1-1.885-3.846Z" transform="translate(-469.258 -444.784)" fill="#127c5b"/>
        <path id="Path_800" data-name="Path 800" d="M482.935,572.564a6.913,6.913,0,0,1-5.844,5.768l-1.96,2.677.151.188.754-.566-.151,1.433.49.415.9-.716.266,1.093h.3l.566-.339.266,1.394.679-.528.415.683h.905l.9-1.4-.339,1.4.728-.909.223,1.243,2.329-.338-.54-11.5Z" transform="translate(-432.929 -521.705)" fill="#127c5b"/>
        <path id="Path_801" data-name="Path 801" d="M637.588,613.381l3.2-1.083,2.612-2.156.339-5.208-.79-.226-1.034-2.824-1.1-.239-.676-2.577-5.934.18-.447,1.95-.685.034-.929,2.539-1.01-.068-.478,2.405,1.982,5.851Z" transform="translate(-574.645 -545.861)" fill="#80b13f"/>
        <path id="Path_802" data-name="Path 802" d="M661.332,664.715l2.7-.957-.036-.731.258.468,2.225-1.643.194-3.97-.411.02-.35,2.659-.511-.145-.429-4.627-.543.118.214,4.363-.742-1.063-.791-3.052-.539.21-.544,5.293-.642-.014-.422-4.512-.569.165-.926,4.464-.4-.141-.88-3.46-.436.433-1.323,4.781,3.211,1.037.537-.717.056.687Z" transform="translate(-598.126 -597.543)" fill="#8bc53f"/>
        <path id="Path_803" data-name="Path 803" d="M644.5,635.06l-.978-2.2.16-1.863.626.153.639,1.823.24-4.453.5-.025.558,4.277-1.322.866Z" transform="translate(-586.363 -572.677)" fill="#8bc53f"/>
        <path id="Path_804" data-name="Path 804" d="M683.22,610.794l.108-4.836.363-.018.1,1.942.549-.485.13-.6.505.044.158,3.221.25-.608-.037-.754.412-.136-.061,2.248-1.532.945-.71.036Z" transform="translate(-622.537 -552.121)" fill="#8bc53f"/>
        <ellipse id="Ellipse_242" data-name="Ellipse 242" cx="14.942" cy="2.091" rx="14.942" ry="2.091" transform="translate(3.28 81.721)" fill="#e1c23e"/>
        <path id="Path_805" data-name="Path 805" d="M44.125,280.456c.169-1.7,1.808-5.9-.159-8.13-.415-.468-14.768.634-16.295,1.523a4.567,4.567,0,0,0-2.2,4.781l.792,4.285,9.568-.574Z" transform="translate(-23.142 -248.037)" fill="#f05a28"/>
        <path id="Path_806" data-name="Path 806" d="M43.238,299.525a4.53,4.53,0,0,0-2.947-4.748,4.76,4.76,0,0,0-3,.481,4.2,4.2,0,0,0-1.873,4.3l.676,3.856,6.823-.516Z" transform="translate(-32.217 -268.538)" fill="#bb4227"/>
        <path id="Path_807" data-name="Path 807" d="M16.393,352.3a1.919,1.919,0,0,1,1.966,1.809l.031.556,1.367,24.175a1.709,1.709,0,0,1-1.705,1.8H14.78a8.388,8.388,0,0,1-8.25-6.87l-.311-1.695.934-13.26a8.567,8.567,0,0,1,1.426-4.162l.343-.511a3.913,3.913,0,0,1,3.15-1.735Z" transform="translate(-5.668 -321.011)" fill="#f05a28"/>
        <path id="Path_808" data-name="Path 808" d="M56.57,544.923l1.276,7.658h5.368l.284-8.631Z" transform="translate(-51.545 -495.637)" fill="#75a03e"/>
        <path id="Path_809" data-name="Path 809" d="M66.15,554.835l1.378,6.252h3.424l-.243-6.867Z" transform="translate(-60.275 -504.994)" fill="#8bc53f"/>
        <path id="Path_810" data-name="Path 810" d="M54.21,530.085l6.584-.575.684,1.891-2.406,1.58-3.4.243-1.688-1.175Z" transform="translate(-49.186 -482.479)" fill="#80512d"/>
        <path id="Path_811" data-name="Path 811" d="M86.927,562.812a.589.589,0,1,1-.587-.622A.6.6,0,0,1,86.927,562.812Z" transform="translate(-78.134 -512.256)" fill="#f4d345"/>
        <path id="Path_812" data-name="Path 812" d="M102.19,349.391l.77-.231v12.358l-.385-.048Z" transform="translate(-93.114 -318.148)" fill="#b6b6b7"/>
        <path id="Path_813" data-name="Path 813" d="M101.293,481.68l-.086.362-.387,1.625,1.013-.2-.147-1.62Z" transform="translate(-91.865 -438.897)" fill="#807f7f"/>
        <path id="Path_814" data-name="Path 814" d="M106.15,488.971h.229v-.9Z" transform="translate(-96.722 -444.72)" fill="#c6c5c5"/>
        <path id="Path_815" data-name="Path 815" d="M13.308,422.61l.446,4.9-.77.932H9.58l.486-5.835Z" transform="translate(-8.729 -385.074)" fill="#8bc53f"/>
        <path id="Path_816" data-name="Path 816" d="M.851,516.13h3.4l-.283,6.159-2.35,1.3L0,521.033Z" transform="translate(0 -470.287)" fill="#8bc53f"/>
        <path id="Path_817" data-name="Path 817" d="M20,522.51h.81l-.222,2.33-.973.183Z" transform="translate(-17.877 -476.101)" fill="#80512d"/>
        <path id="Path_818" data-name="Path 818" d="M17.34,534.573v.446l1.58-.223v-.425Z" transform="translate(-15.8 -486.907)" fill="#75a03e"/>
        <path id="Path_819" data-name="Path 819" d="M3.587,506.55h3.7l-.608,1.134-.041.608-3.31.3Z" transform="translate(-3.034 -461.558)" fill="#75a03e"/>
        <path id="Path_820" data-name="Path 820" d="M12.143,406.18l3.254.233.2,1.662-3.741.131Z" transform="translate(-10.807 -370.103)" fill="#75a03e"/>
        <path id="Path_821" data-name="Path 821" d="M15.875,433.55h1.661l.568,3.417-.243.617-2.35.241Z" transform="translate(-14.132 -395.042)" fill="#b9dc8c"/>
        <path id="Path_822" data-name="Path 822" d="M49.2,298.163c0,.819-.089,1.724-.089,1.724a6.524,6.524,0,0,1-4.461,2.127c-1.666,0-2.763-1.677-2.763-3.746a4.152,4.152,0,0,1,3.406-4.044A4.011,4.011,0,0,1,49.2,298.163Z" transform="translate(-38.169 -268.085)" fill="#faaf40"/>
        <path id="Path_823" data-name="Path 823" d="M76.674,298.163a10.418,10.418,0,0,1-.178,1.724l-.746.711c1.224-6.14-3.81-6.209-3.81-6.209a3.219,3.219,0,0,1,.74-.163A4.089,4.089,0,0,1,76.674,298.163Z" transform="translate(-65.55 -268.085)" fill="#df8123"/>
        <path id="Path_824" data-name="Path 824" d="M49.8,305.1a3.334,3.334,0,0,1-3.127,3.154c-1.424,0-2.361-1.433-2.361-3.2a3.374,3.374,0,0,1,2.91-3.375C48.644,301.68,49.8,303.331,49.8,305.1Z" transform="translate(-40.374 -274.885)" fill="#f4d345"/>
        <path id="Path_825" data-name="Path 825" d="M51.8,309.46l-1.62,1.192.81,3.525,1.908.466,1.728-2.073-.893-2.281-1.331-.519-1.286,1.244.684,2.266,1.512-.659-.144-1.659-.27,1.115-.775.441-.323-1.347.8-.674.819.311.684,1.608L52.9,313.969,51.4,313.71l-.828-2.85,1.547-1.089Z" transform="translate(-45.723 -281.974)" fill="#f3e7b1"/>
        <path id="Path_826" data-name="Path 826" d="M139.643,366.886l8.3-1.886.3,16.208.147,6.839a2.291,2.291,0,0,1-1.7,2.267l-6.811,1.818-.547-15.748Z" transform="translate(-126.955 -332.581)" fill="#db5128"/>
        <path id="Path_827" data-name="Path 827" d="M231.983,537.592,231.7,541.4l.158.178a1.681,1.681,0,0,0,1.48.556l2.633-.459a.729.729,0,0,0,.635-.723,4.972,4.972,0,0,0-2.432-3.695Z" transform="translate(-211.121 -489.541)" fill="#8bc53f"/>
        <path id="Path_828" data-name="Path 828" d="M238.459,550.68l-.369,2.729,3.025-.364v-.882l-1.6-1.752Z" transform="translate(-216.943 -501.523)" fill="#75a03e"/>
        <path id="Path_829" data-name="Path 829" d="M264.634,428.419c-2.1,0-4.547-2.167-5.644-3.443l1.726-1.483c1.4,1.627,3.388,2.809,4.032,2.638.109-.028.2-.294.237-.512.162-.851-1.193-2.081-2.855-3.6-1.461-1.332-3.037-1.865-2.548-2.454l1.207-1.93a26.271,26.271,0,0,1,3.345,2.554c2.376,2.158,3.414,4.127,3.087,5.851a2.646,2.646,0,0,1-1.886,2.286A2.733,2.733,0,0,1,264.634,428.419Z" transform="translate(-235.987 -380.545)" fill="#f7dbaa"/>
        <path id="Path_830" data-name="Path 830" d="M233.547,390.75c-.362.362-.7.737-.922.983a.571.571,0,0,0-.082.638,16.379,16.379,0,0,0,2.487,3.375.266.266,0,0,0,.371.02c1.5-1.327,2.412-2.194,2.807-2.576a.266.266,0,0,0-.03-.406c-.549-.393-1.853-1.34-2.69-2.091A1.414,1.414,0,0,0,233.547,390.75Z" transform="translate(-211.833 -355.666)" fill="#84d2e6"/>
        <path id="Path_831" data-name="Path 831" d="M139.128,932.583c-.319-1.815-2.868-.953-2.868-.953l-2.078-.164c-.561.28-.515,1.04-.494,1.228h0c-.014.505,1.852.545,2.228.561s.158-.12,1.459.231a1.994,1.994,0,0,0,1.267,0A.9.9,0,0,0,139.128,932.583Z" transform="translate(-121.804 -848.696)" fill="#f9f5e5"/>
        <path id="Path_832" data-name="Path 832" d="M138.895,930.918a.063.063,0,0,1-.017.009,2.029,2.029,0,0,1-1.266,0c-1.3-.35-1.083-.214-1.459-.231-.122-.005-.4-.014-.719-.039-.668-.052-1.518-.178-1.51-.522-.02-.188-.066-.949.495-1.229l2.078.162a3.243,3.243,0,0,1,2.132.053,1.311,1.311,0,0,1,.663.983A.74.74,0,0,1,138.895,930.918Z" transform="translate(-122.019 -846.397)" fill="#32445e"/>
        <path id="Path_833" data-name="Path 833" d="M168.615,929.4l-.037-.024c-.017-.011-.039,0-.049.023l-.258.66a.055.055,0,0,0,.015.065l.036.024a.034.034,0,0,0,.049-.022l.258-.661a.055.055,0,0,0-.014-.065Z" transform="translate(-153.321 -846.823)" fill="#f9f5e5"/>
        <path id="Path_834" data-name="Path 834" d="M172.512,929.517l-.036-.024a.034.034,0,0,0-.049.022l-.258.661a.055.055,0,0,0,.014.065l.037.024c.018.012.039,0,.049-.023l.258-.66A.055.055,0,0,0,172.512,929.517Z" transform="translate(-156.872 -846.932)" fill="#f9f5e5"/>
        <path id="Path_835" data-name="Path 835" d="M174.966,930.768a1.31,1.31,0,0,0-.663-.983,1.666,1.666,0,0,0-.409-.155,2.4,2.4,0,0,0-.33.333,2.2,2.2,0,0,0-.492,1.565l.213.057a1.992,1.992,0,0,0,1.266,0,.063.063,0,0,0,.017-.009A.728.728,0,0,0,174.966,930.768Z" transform="translate(-157.694 -847.06)" fill="#f9f5e5"/>
        <path id="Path_836" data-name="Path 836" d="M132.167,691.21h-4.3s3.819,8.05.872,21.03a.3.3,0,0,0,.137.338,1.929,1.929,0,0,0,1.865-.036.274.274,0,0,0,.117-.171C131.193,711.019,134.285,697.942,132.167,691.21Z" transform="translate(-116.513 -629.817)" fill="#796a62"/>
        <path id="Path_837" data-name="Path 837" d="M220.262,917.443c-.32-1.815-2.869-.953-2.869-.953l-2.078-.163c-.561.279-.514,1.039-.494,1.228h0c-.014.505,1.852.545,2.228.561s.158-.12,1.459.231a2,2,0,0,0,1.267,0A.9.9,0,0,0,220.262,917.443Z" transform="translate(-195.731 -834.901)" fill="#f9f5e5"/>
        <path id="Path_838" data-name="Path 838" d="M220,915.81l-.018.008a2.03,2.03,0,0,1-1.266,0c-1.3-.35-1.083-.214-1.458-.231-.122,0-.4-.014-.72-.039-.668-.052-1.518-.178-1.51-.522-.021-.188-.067-.949.494-1.228l2.079.163a3.248,3.248,0,0,1,2.132.053,1.313,1.313,0,0,1,.663.984A.736.736,0,0,1,220,915.81Z" transform="translate(-195.92 -832.633)" fill="#32445e"/>
        <path id="Path_839" data-name="Path 839" d="M249.749,914.257l-.036-.024c-.018-.012-.04,0-.05.023l-.258.663a.057.057,0,0,0,.015.065l.036.024a.034.034,0,0,0,.049-.022l.259-.661A.057.057,0,0,0,249.749,914.257Z" transform="translate(-227.249 -833.028)" fill="#f9f5e5"/>
        <path id="Path_840" data-name="Path 840" d="M253.645,914.377l-.037-.024c-.018-.012-.039,0-.049.023l-.258.66a.056.056,0,0,0,.014.065l.037.024c.018.012.039,0,.049-.023l.258-.66A.056.056,0,0,0,253.645,914.377Z" transform="translate(-230.798 -833.137)" fill="#f9f5e5"/>
        <path id="Path_841" data-name="Path 841" d="M256.1,915.629a1.312,1.312,0,0,0-.663-.984,1.661,1.661,0,0,0-.409-.155,2.341,2.341,0,0,0-.33.334,2.191,2.191,0,0,0-.492,1.568l.212.057a1.991,1.991,0,0,0,1.266,0l.018-.008A.738.738,0,0,0,256.1,915.629Z" transform="translate(-231.623 -833.265)" fill="#f9f5e5"/>
        <path id="Path_842" data-name="Path 842" d="M211.16,698.48a.274.274,0,0,1-.116.17,1.929,1.929,0,0,1-1.865.036.3.3,0,0,1-.136-.338c2.056-9.06.816-15.721-.118-18.913a16.1,16.1,0,0,0-.754-2.116h4.263c.083.266.157.533.223.815.051.2.1.412.136.622C214.148,685.759,211.467,697.221,211.16,698.48Z" transform="translate(-189.68 -617.161)" fill="#796a62"/>
        <path id="Path_843" data-name="Path 843" d="M132.793,647.489c-.253.048-1.892.355-3.866.675-.361.06-.733.117-1.109.178-.114.019-.227.035-.341.054l-.76.112c-.113.014-.227.032-.34.046-2.309.325-4.5.54-5.1.3-1.4-.559-.747-5.693-.747-5.693V643H131.6l.835,3.052.223.815C132.708,647.066,132.754,647.276,132.793,647.489Z" transform="translate(-109.686 -585.889)" fill="#796a62"/>
        <path id="Path_844" data-name="Path 844" d="M188.25,649.391c-.113.014-.227.032-.34.046.052-.211.851-3.553.008-5.329l.288-.138C189.034,645.7,188.409,648.706,188.25,649.391Z" transform="translate(-171.22 -586.773)" fill="#6a5d54"/>
        <path id="Path_845" data-name="Path 845" d="M200.349,649.241c-.114.019-.227.035-.341.054.163-.723.73-3.58-.028-5.167l.29-.138C201.041,645.608,200.548,648.331,200.349,649.241Z" transform="translate(-182.218 -586.791)" fill="#6a5d54"/>
        <rect id="Rectangle_119" data-name="Rectangle 119" width="4.846" height="9.634" transform="translate(13.574 28.112)" fill="#f7dbaa"/>
        <path id="Path_846" data-name="Path 846" d="M157.675,316.5v2.611c-3.787.384-4.845-1.482-4.845-1.482V316.5Z" transform="translate(-139.256 -288.389)" fill="#f7d589"/>
        <path id="Path_847" data-name="Path 847" d="M109.539,365.84a13.773,13.773,0,0,0-3.3-1.808h0q-.312-.116-.616-.211c-.208-.064-.414-.123-.616-.171a2.143,2.143,0,0,1-1.959,1.448v.005l-.006-.005h-.02a4.4,4.4,0,0,1-2.864-1.5c-.236.051-.355.089-.582.149-.258.073-.508.155-.748.242a12.556,12.556,0,0,0-3.348,1.841,1.189,1.189,0,0,0-.3,1.549,8.259,8.259,0,0,1,.83,2.071c1.558,5.974,1.414,19.123,1.414,19.123h11.088s1.057-10.975,1.59-17.884c.132-1.737.233-3.215.277-4.2Q109.958,366.141,109.539,365.84Z" transform="translate(-86.574 -331.305)" fill="#90278e"/>
        <path id="Path_848" data-name="Path 848" d="M133.273,632.35l-.107,1.1s-.576,1.155-3.5,1.429c-.158.014-.324.027-.5.036-.157.008-.312.012-.469.012a18.771,18.771,0,0,1-6.627-1.478v-1.1Z" transform="translate(-111.228 -576.185)" fill="#90278e"/>
        <path id="Path_849" data-name="Path 849" d="M151.385,363.783a2.768,2.768,0,0,1-2.607,1.913,5.235,5.235,0,0,1-3.538-1.958c.223-.064.438-.125.674-.178a4.4,4.4,0,0,0,2.864,1.5h.031a2.143,2.143,0,0,0,1.959-1.448C150.971,363.66,151.177,363.719,151.385,363.783Z" transform="translate(-132.34 -331.269)" fill="#b283b4"/>
        <path id="Path_850" data-name="Path 850" d="M146.4,353.84s-1.51.01.158,5.711,3.947,11.5,3.947,11.5l.21-.057s-5.578-16.3-4.315-16.289Z" transform="translate(-132.828 -322.412)" fill="#f4d345"/>
        <path id="Path_851" data-name="Path 851" d="M83.822,356.984a2.64,2.64,0,0,1,.719-1.811l.015-.016A3.375,3.375,0,0,1,87,354.18a4.286,4.286,0,0,1,3.913,2.1l.576,1.1c1.522,4.522.334,9.585-2.261,13.777L88.154,372.9l-1.682-.643,2.325-4.9a8.717,8.717,0,0,0,.479-6.381l-.474-1.531a2.037,2.037,0,0,0-1.574-1.292,2.581,2.581,0,0,0-2.164.484H83.82Z" transform="translate(-76.375 -322.722)" fill="#75a03e"/>
        <path id="Path_852" data-name="Path 852" d="M92.793,541.15l-.283,4.7.157.178a1.681,1.681,0,0,0,1.48.556l3.523-.458a.729.729,0,0,0,.634-.723,3.02,3.02,0,0,0-1.9-2.807Z" transform="translate(-84.293 -493.085)" fill="#8bc53f"/>
        <path id="Path_853" data-name="Path 853" d="M99.259,560.89l-.369,2.729,4.8-.365v-.881l-3.373-1.752Z" transform="translate(-90.107 -510.826)" fill="#75a03e"/>
        <path id="Path_854" data-name="Path 854" d="M92.42,364.638l1.58-.029a3.363,3.363,0,0,1,1.982.6c1.421.988,3.459,3.426,2.369,9.04,0,0,2.605-7.5-1-9.909C93.947,362.068,92.42,364.638,92.42,364.638Z" transform="translate(-84.211 -331.124)" fill="#8bc53f"/>
        <path id="Path_855" data-name="Path 855" d="M211.831,355.411l-.241-.466a3.166,3.166,0,0,1,1.724-.5,3.525,3.525,0,0,1,3.4,2.081l.575,1.1c1.523,4.522-.7,12.206-.7,12.206l-.991,1.8.134-2.409s0-5.89-.658-8.005l-.473-1.531c-.089-.288-.224-.9-.345-1.477a2.707,2.707,0,0,0-1.077-1.649,9.19,9.19,0,0,1-1.094-.888Z" transform="translate(-192.797 -322.959)" fill="#75a03e"/>
        <path id="Path_856" data-name="Path 856" d="M216.25,361.258s.281-.314,1.442.564c1.807,1.365,3.847,5.145,2.868,10.187,0,0,2.432-7.213-.851-10.047C217.676,360.207,216.25,361.258,216.25,361.258Z" transform="translate(-197.043 -328.887)" fill="#8bc53f"/>
        <path id="Path_857" data-name="Path 857" d="M207.38,354.35s2.576-.014,1.136,10.6l-.773,6.347-.216-.056s1.871-16.3-.147-16.022Z" transform="translate(-188.961 -322.877)" fill="#f4d345"/>
        <path id="Path_858" data-name="Path 858" d="M155.475,556.074l.054.518-.309,2.535.081,1.973h3.523l-.054-2.323-.592-2.444-.013-.393Z" transform="translate(-141.433 -506.562)" fill="#3596bd"/>
        <path id="Path_859" data-name="Path 859" d="M158.8,586.615a5.849,5.849,0,0,0-3.539.355V587l.081,1.973h3.523l-.054-2.323Z" transform="translate(-141.47 -534.432)" fill="#1380ad"/>
        <path id="Path_860" data-name="Path 860" d="M159.646,559.8l.618-.054.107,2.242-1.061.137Z" transform="translate(-145.16 -510.033)" fill="#4eaecd"/>
        <path id="Path_861" data-name="Path 861" d="M159.3,589.511a2.617,2.617,0,0,1,1.066-.234l.015,1.844-.9.125Z" transform="translate(-145.151 -536.93)" fill="#14769a"/>
        <path id="Path_862" data-name="Path 862" d="M162.658,518.985l.19-1.51a1.945,1.945,0,0,0-2.368.012v1.865Z" transform="translate(-146.226 -471.157)" fill="#3596bd"/>
        <path id="Path_863" data-name="Path 863" d="M173.62,517.851s.336-.094,1.1.337l-.2,1.366-.888.207Z" transform="translate(-158.199 -471.847)" fill="#14769a"/>
        <path id="Path_864" data-name="Path 864" d="M151.767,610.29l3.738-.2.162.706H151.43Z" transform="translate(-137.98 -555.902)" fill="#575e61"/>
        <path id="Path_865" data-name="Path 865" d="M151.43,616.394v.242h4.236v-.3Z" transform="translate(-137.98 -561.597)" fill="#4d5251"/>
        <path id="Path_866" data-name="Path 866" d="M159.39,502.106a1.631,1.631,0,0,1,2.366,0l.215,1.288-2.581.107Z" transform="translate(-145.233 -457.03)" fill="#575e61"/>
        <path id="Path_867" data-name="Path 867" d="M160.45,506v1.224h.376v-1.4Z" transform="translate(-146.199 -460.902)" fill="#3b3f3f"/>
        <path id="Path_868" data-name="Path 868" d="M166.875,503.295l-.075,1.452h.377l-.053-1.567Z" transform="translate(-151.985 -458.488)" fill="#3b3f3f"/>
        <path id="Path_869" data-name="Path 869" d="M173.92,503.18l.188,1.567h.336l-.195-1.506Z" transform="translate(-158.473 -458.488)" fill="#3b3f3f"/>
        <path id="Path_870" data-name="Path 870" d="M180.73,505.83v1.331h.175l.107-1.156Z" transform="translate(-164.678 -460.902)" fill="#3b3f3f"/>
        <path id="Path_871" data-name="Path 871" d="M184.426,509.31c0,.041-.056,1.022-.056,1.022h.246l-.123-.915Z" transform="translate(-167.994 -464.073)" fill="#3b3f3f"/>
        <path id="Path_872" data-name="Path 872" d="M189.51,521.58v-.74s.444-1.076,1.654-.2l.081.942Z" transform="translate(-172.678 -474.084)" fill="#3596bd"/>
        <path id="Path_873" data-name="Path 873" d="M212.54,552.074l-.054.518.4,2.535-.08,1.973H209.28l.054-2.323.5-2.444.013-.393Z" transform="translate(-190.692 -502.917)" fill="#3596bd"/>
        <path id="Path_874" data-name="Path 874" d="M209.344,582.615a5.844,5.844,0,0,1,3.538.355V583l-.074,1.966H209.28l.054-2.323Z" transform="translate(-190.692 -530.787)" fill="#1380ad"/>
        <path id="Path_875" data-name="Path 875" d="M234.447,555.8l-.618-.054-.019,2.242,1.062.137Z" transform="translate(-213.043 -506.388)" fill="#4eaecd"/>
        <path id="Path_876" data-name="Path 876" d="M234.681,585.511a2.617,2.617,0,0,0-1.066-.234l-.015,1.844.9.125Z" transform="translate(-212.852 -533.285)" fill="#14769a"/>
        <path id="Path_877" data-name="Path 877" d="M215.651,518.63l-.191-1.155a1.947,1.947,0,0,1,2.369.012V519Z" transform="translate(-196.323 -471.157)" fill="#3596bd"/>
        <path id="Path_878" data-name="Path 878" d="M217.692,517.851s-.337-.094-1.1.337l.2,1.011.888.207Z" transform="translate(-197.353 -471.847)" fill="#14769a"/>
        <path id="Path_879" data-name="Path 879" d="M209.849,606.29l-3.738-.2-.162.706h4.236Z" transform="translate(-187.658 -552.257)" fill="#575e61"/>
        <path id="Path_880" data-name="Path 880" d="M210.186,612.394v.242H205.95v-.3Z" transform="translate(-187.658 -557.952)" fill="#4d5251"/>
        <path id="Path_881" data-name="Path 881" d="M216.7,502.106a1.631,1.631,0,0,0-2.366,0l-.216,1.288,2.582.107Z" transform="translate(-195.102 -457.03)" fill="#575e61"/>
        <path id="Path_882" data-name="Path 882" d="M238.267,506v1.224h-.377v-1.4Z" transform="translate(-216.761 -460.902)" fill="#3b3f3f"/>
        <path id="Path_883" data-name="Path 883" d="M231.833,503.295l.074,1.452h-.377l.054-1.567Z" transform="translate(-210.966 -458.488)" fill="#3b3f3f"/>
        <path id="Path_884" data-name="Path 884" d="M223.275,503.18l-.188,1.567h-.337l.2-1.506Z" transform="translate(-202.965 -458.488)" fill="#3b3f3f"/>
        <path id="Path_885" data-name="Path 885" d="M218.952,505.83v1.331h-.174L218.67,506Z" transform="translate(-199.248 -460.902)" fill="#3b3f3f"/>
        <path id="Path_886" data-name="Path 886" d="M215.651,509.31c0,.041.056,1.022.056,1.022h-.247l.123-.915Z" transform="translate(-196.323 -464.073)" fill="#3b3f3f"/>
        <path id="Path_887" data-name="Path 887" d="M190.87,525.454v.538h.174l-.087-.632Z" transform="translate(-173.917 -478.698)" fill="#14769a"/>
        <path id="Path_888" data-name="Path 888" d="M193.81,521.727v.821H194v-.968Z" transform="translate(-176.596 -475.253)" fill="#14769a"/>
        <path id="Path_889" data-name="Path 889" d="M197.58,521.58v.968h.274l-.137-.968Z" transform="translate(-180.031 -475.253)" fill="#14769a"/>
        <path id="Path_890" data-name="Path 890" d="M201.35,522.33v.9h.174v-.821Z" transform="translate(-183.466 -475.937)" fill="#14769a"/>
        <path id="Path_891" data-name="Path 891" d="M204.29,523.85v.766l.1.053v-.82Z" transform="translate(-186.145 -477.322)" fill="#14769a"/>
        <path id="Path_892" data-name="Path 892" d="M206.31,524.41l.02.77.141.042-.081-.727Z" transform="translate(-187.986 -477.832)" fill="#14769a"/>
        <path id="Path_893" data-name="Path 893" d="M156.2,534.073l-.3,1.466.068.537,4.23-.242,3.81-.114v-.537l-.355-1.466-2.872-.168h-1.99Z" transform="translate(-142.053 -486.16)" fill="#9a4c99"/>
        <path id="Path_894" data-name="Path 894" d="M157.72,552.375v.366l4.049-.207,3.817-.148v-.446l-4.189.051Z" transform="translate(-143.711 -502.917)" fill="#90278e"/>
        <path id="Path_895" data-name="Path 895" d="M161.512,539.44l-.162,1.345h.162l.134-1.291Z" transform="translate(-147.019 -491.527)" fill="#90278e"/>
        <path id="Path_896" data-name="Path 896" d="M168.454,538.68l-.134,1.412h.188l.053-1.412Z" transform="translate(-153.37 -490.835)" fill="#90278e"/>
        <path id="Path_897" data-name="Path 897" d="M198.29,534.75v1.465l4.128-.059-.323-1.277-2.7-.129Z" transform="translate(-180.678 -487.254)" fill="#963a93"/>
        <path id="Path_898" data-name="Path 898" d="M174.06,537.77l-.14,1.426h.262V537.77Z" transform="translate(-158.473 -490.005)" fill="#90278e"/>
        <path id="Path_899" data-name="Path 899" d="M181.34,536.41v1.479l.228-.049-.141-1.43Z" transform="translate(-165.233 -488.766)" fill="#90278e"/>
        <path id="Path_900" data-name="Path 900" d="M187.11,535.5v1.4h.213l.121-1.4Z" transform="translate(-170.491 -487.937)" fill="#90278e"/>
        <path id="Path_901" data-name="Path 901" d="M210.071,536.41l-.121,1.317h.2l.053-1.317Z" transform="translate(-191.302 -488.766)" fill="#7e237b"/>
        <path id="Path_902" data-name="Path 902" d="M218.82,533.11v1.255l.241.054-.114-1.21Z" transform="translate(-199.385 -485.759)" fill="#7e237b"/>
        <path id="Path_903" data-name="Path 903" d="M222.75,534.4v1.17h.263l-.131-1.2Z" transform="translate(-202.965 -486.907)" fill="#7e237b"/>
        <path id="Path_904" data-name="Path 904" d="M229.75,535.538V536.6h.158l-.079-1.161Z" transform="translate(-209.344 -487.882)" fill="#7e237b"/>
        <path id="Path_905" data-name="Path 905" d="M233.65,536.2l.127,1.093h.061l-.094-1.093Z" transform="translate(-212.897 -488.575)" fill="#7e237b"/>
        <path id="Path_906" data-name="Path 906" d="M237.04,536.2l.155,1.093.234.049-.234-1.089Z" transform="translate(-215.986 -488.575)" fill="#7e237b"/>
        <path id="Path_907" data-name="Path 907" d="M194.87,536.14l1.1.024-.161,1.182-.936,0Z" transform="translate(-177.562 -488.52)" fill="#90278e"/>
        <path id="Path_908" data-name="Path 908" d="M230.668,517.3s1.347-.286,1.443-.481-.389-1.089-.576-1.066a3.74,3.74,0,0,0-.759.465.65.65,0,0,0-.231.76Z" transform="translate(-210.03 -469.946)" fill="#f7dbaa"/>
        <path id="Path_909" data-name="Path 909" d="M232.671,368.17l4.02,1.007-2.6,19.339-2.956-.822Z" transform="translate(-210.61 -335.469)" fill="#f2f2f2"/>
        <path id="Path_910" data-name="Path 910" d="M267.015,377.241l-2.6,19.339,1.124-.036,4.2-19.524Z" transform="translate(-240.934 -343.533)" fill="#e5e5e4"/>
        <path id="Path_911" data-name="Path 911" d="M281.266,377.02l3.132,1.007-5.26,19.339-2.068-.822Z" transform="translate(-252.461 -343.533)" fill="#f2f2f2"/>
        <path id="Path_912" data-name="Path 912" d="M305.61,386.091l-5.26,19.339,2.012-.036,5.084-19.523Z" transform="translate(-273.673 -351.597)" fill="#e5e5e4"/>
        <path id="Path_913" data-name="Path 913" d="M328.084,383.446l1.711-.236-6.149,19.339-.646.421Z" transform="translate(-294.311 -349.173)" fill="#f2f2f2"/>
        <path id="Path_914" data-name="Path 914" d="M228.651,516.816s3.343-.711,3.58-1.192-.965-2.7-1.427-2.637a9.2,9.2,0,0,0-1.881,1.155,1.609,1.609,0,0,0-.572,1.884Z" transform="translate(-207.973 -467.422)" fill="#f7dbaa"/>
        <path id="Path_915" data-name="Path 915" d="M72.34,429.47l1.987,1.261c-.582.924-1.948,3.76-1.278,5.749a3.344,3.344,0,0,0,2.113,2.005,13.35,13.35,0,0,0,9.7-.125l1.029,2.1a15.5,15.5,0,0,1-11.575.17,5.654,5.654,0,0,1-3.486-3.463C69.677,433.727,72.231,429.642,72.34,429.47Z" transform="translate(-64.267 -391.325)" fill="#f7dbaa"/>
        <path id="Path_916" data-name="Path 916" d="M74.256,393.058c.49.149.968.32,1.276.434a.571.571,0,0,1,.372.525,16.421,16.421,0,0,1-.61,4.151.266.266,0,0,1-.318.193c-1.947-.467-3.161-.8-3.688-.954a.266.266,0,0,1-.164-.372c.3-.6,1-2.054,1.392-3.109A1.414,1.414,0,0,1,74.256,393.058Z" transform="translate(-64.783 -358.091)" fill="#90278e"/>
        <path id="Path_917" data-name="Path 917" d="M348.847,510.449c-.167.369-.377.944-.778.894-.5-.061-.753-.178-.849-.4-.166-.386.524-2.677.888-2.607.205.04,0-.074.547.355a1.607,1.607,0,0,1,.193,1.756Z" transform="translate(-316.357 -463.182)" fill="#f9e2b4"/>
        <path id="Path_918" data-name="Path 918" d="M75.76,68.22v1.9s-.006.089-.02.256v.01c-.006.089,0,.422,0,1.365v15.9a2.548,2.548,0,0,1-.266,1.123h0a3.173,3.173,0,0,1-1.31,1.349,14.021,14.021,0,0,1-4.614,1.623,10.262,10.262,0,0,1-1.816.115,8.854,8.854,0,0,1-4.993-1.7h0a23.6,23.6,0,0,1-4.46-5.891l-.01-.02a.068.068,0,0,0-.008-.016s-3.286,1.354-3.5-3.243c0,0-.191-2.721,1.527-2.14H58.6V68.22Z" transform="translate(-49.895 -62.161)" fill="#f9e2b4"/>
        <path id="Path_919" data-name="Path 919" d="M67.754,166.82a8.855,8.855,0,0,1-4.993-1.7h0a23.6,23.6,0,0,1-4.46-5.891l-.01-.02a.068.068,0,0,0-.008-.016s-3.286,1.354-3.5-3.243c0,0-.191-2.721,1.527-2.14h2.306V150.49H60.26V156.7h-.191S61.594,164.569,67.754,166.82Z" transform="translate(-49.913 -137.123)" fill="#f4cc8c"/>
        <path id="Path_920" data-name="Path 920" d="M64.279,205.545a1.009,1.009,0,0,1-.458-.145.082.082,0,0,1-.034-.111.083.083,0,0,1,.112-.034c.178.1.415.187.526.07.178-.187.039-.838-.195-1.22a.28.28,0,0,1-.039-.291c.053-.089.178-.133.384-.125a.251.251,0,0,0,.225-.106.178.178,0,0,0-.012-.208c-.285-.387-.832-1.011-1.3-.838a.528.528,0,0,0-.369.322.671.671,0,0,0,.166.515.082.082,0,0,1-.125.106.845.845,0,0,1-.2-.664.675.675,0,0,1,.47-.436c.533-.2,1.1.375,1.486.894a.341.341,0,0,1,.018.393.412.412,0,0,1-.369.178c-.2-.006-.234.039-.237.044a.219.219,0,0,0,.038.123c.207.34.449,1.127.178,1.421A.349.349,0,0,1,64.279,205.545Z" transform="translate(-57.357 -184.367)" fill="#e0ba6e"/>
        <path id="Path_921" data-name="Path 921" d="M146.761,180.063a3.2,3.2,0,0,0-.482-.3,2.928,2.928,0,0,0-.54-.209,2.67,2.67,0,0,0-.322-.064,1.992,1.992,0,0,0-.334-.022,2.462,2.462,0,0,0-.334.021c-.106.019-.218.037-.32.065s-.2.061-.291.1a2.394,2.394,0,0,0-.247.113,3.16,3.16,0,0,0-.36.21c-.089.058-.141.1-.141.094a.744.744,0,0,1,.056-.08,1.028,1.028,0,0,1,.219-.222,2.1,2.1,0,0,1,.21-.147,2.841,2.841,0,0,1,.312-.15,2.958,2.958,0,0,1,.41-.118,2.856,2.856,0,0,1,.483-.045,2.5,2.5,0,0,1,.482.046,2.347,2.347,0,0,1,.415.117,1.954,1.954,0,0,1,.533.3A.738.738,0,0,1,146.761,180.063Z" transform="translate(-130.654 -163.374)" fill="#f7d589"/>
        <path id="Path_922" data-name="Path 922" d="M212.52,289.27l.355.054.355.057c.131.02.266.04.409.053.068,0,.138.015.206.016s.135.01.2.005a1.493,1.493,0,0,0,.184-.011.782.782,0,0,0,.162-.028.517.517,0,0,0,.132-.043.333.333,0,0,0,.1-.049l.083-.056s-.02.029-.059.082a.315.315,0,0,1-.089.082.471.471,0,0,1-.132.08l-.081.037c-.028.01-.06.016-.089.024a.942.942,0,0,1-.2.036,2.13,2.13,0,0,1-.433,0,3.2,3.2,0,0,1-.42-.076,3.008,3.008,0,0,1-.355-.112,2.236,2.236,0,0,1-.323-.153Z" transform="translate(-193.644 -263.577)" fill="#f7d589"/>
        <path id="Path_923" data-name="Path 923" d="M50.337,63.207a.165.165,0,0,1-.232.163l-.894-.39a.59.59,0,0,1-.343-.439,10.1,10.1,0,0,0-.382-1.355c-.533-1.143-1.568-2.858-3.039-2.967,0,0-.585-1.985-1.183-4.344a.056.056,0,0,1,0-.008c-.217-.854-.434-1.756-.627-2.632-.325-1.829-.5-4.167.332-5.5,1.7-.431,5.144,1.172,5.833,3.068a18.385,18.385,0,0,1,.054,2.33c-.01,1.671-.052,3.866-.054,5.312l.033-.118Z" transform="translate(-39.515 -41.608)" fill="#38302a"/>
        <path id="Path_924" data-name="Path 924" d="M207.91,240.833s2.22.46,2.633-.423C210.661,241.32,209.125,242.192,207.91,240.833Z" transform="translate(-189.444 -219.057)" fill="#f7d589"/>
        <path id="Path_925" data-name="Path 925" d="M188.12,268.75l.266.1.3.107.4.126a9.528,9.528,0,0,0,.983.248c.089.02.178.033.273.052l.279.043c.187.022.377.046.567.052s.378.011.564.006c.089,0,.184-.012.274-.016l.266-.029.258-.044.244-.052c.158-.041.309-.077.444-.125l.1-.034.1-.037.178-.067c.108-.053.206-.089.285-.129.156-.082.25-.123.25-.123s-.075.089-.212.239c-.07.07-.157.151-.259.241a3.76,3.76,0,0,1-.795.5l-.242.1c-.089.029-.178.056-.266.083a3.51,3.51,0,0,1-.562.1,3.732,3.732,0,0,1-.592.009,4.473,4.473,0,0,1-1.165-.226,5.069,5.069,0,0,1-.533-.207c-.168-.077-.325-.16-.469-.243s-.275-.167-.39-.245-.214-.154-.295-.219A3.257,3.257,0,0,1,188.12,268.75Z" transform="translate(-171.411 -244.88)" fill="#da7c56"/>
        <path id="Path_926" data-name="Path 926" d="M149.48,191.46s-1.332-2.72-3.24,0C147.133,191.46,147.534,190.5,149.48,191.46Z" transform="translate(-133.251 -173.353)" fill="#38302a"/>
        <path id="Path_927" data-name="Path 927" d="M247.524,180.066a3.028,3.028,0,0,0-.449-.3,2.6,2.6,0,0,0-.5-.21,2.322,2.322,0,0,0-.3-.064,1.722,1.722,0,0,0-.311-.022,2.157,2.157,0,0,0-.312.021c-.1.02-.2.037-.3.065a2.454,2.454,0,0,0-.266.1c-.083.035-.157.075-.231.113a2.9,2.9,0,0,0-.334.211c-.082.057-.131.1-.131.094a.9.9,0,0,1,.052-.081,1.078,1.078,0,0,1,.2-.223,2.341,2.341,0,0,1,.2-.148,2.811,2.811,0,0,1,.29-.15,2.542,2.542,0,0,1,.382-.118,2.5,2.5,0,0,1,.45-.046,2.173,2.173,0,0,1,.449.046,2.133,2.133,0,0,1,.386.118,1.817,1.817,0,0,1,.493.3A.775.775,0,0,1,247.524,180.066Z" transform="translate(-222.683 -163.374)" fill="#f7d589"/>
        <path id="Path_928" data-name="Path 928" d="M250.517,192.2s-1.121-2.22-2.727,0C248.651,192.2,249.3,191.516,250.517,192.2Z" transform="translate(-225.781 -174.226)" fill="#38302a"/>
        <path id="Path_929" data-name="Path 929" d="M65.408,13.366c-.024-4.918,0-5.408,0-5.411C65.378,8.568,60.721,9.4,60.1,9.5a10.916,10.916,0,0,1-4.25,0,10.793,10.793,0,0,1-2.753-1.488,2.009,2.009,0,0,0-3.213,1.5c-.008.038-.015.075-.021.115l-5.564,2.633a.056.056,0,0,1,0-.008,23.407,23.407,0,0,1-.627-2.632c-.325-1.829-.5-4.167.332-5.5a2.164,2.164,0,0,1,.751-.751S45.262-.194,51.32.006s14.2,1.2,14.364,2.931S67.356,12.3,65.408,13.366Z" transform="translate(-39.543 0.002)" fill="#38302a"/>
        <path id="Path_930" data-name="Path 930" d="M137.524,156.461s-.1-.806-.642-.9-3.009-.622-3.591,0-.682.965-.3.9A31,31,0,0,1,137.524,156.461Z" transform="translate(-120.971 -141.467)" fill="#38302a"/>
        <path id="Path_931" data-name="Path 931" d="M244.34,158.262s.076-.806.49-.905,2.3-.622,2.744,0,.52.965.23.905A18.106,18.106,0,0,0,244.34,158.262Z" transform="translate(-222.638 -143.107)" fill="#38302a"/>
      </g>
    </g>
  </g>
</svg>
