<svg xmlns="http://www.w3.org/2000/svg" width="101.803" height="90" viewBox="0 0 101.803 90">
  <g id="Group_1855" data-name="Group 1855" transform="translate(-933 -229)">
    <path id="Path_550" data-name="Path 550" d="M100.877,44.683a9.654,9.654,0,0,0,.289-4.72,5.9,5.9,0,0,0-2.946-3.182c-.472-.266-1.416-.335-1.781-.624-.548-.442-.51-1.523-.845-2.132a4.85,4.85,0,0,0-4.149-2.535,4.91,4.91,0,0,0-4.568,3.4,5.413,5.413,0,0,0-3.852-1.644,5.588,5.588,0,0,0-4.339,2.208,4.134,4.134,0,0,0-.548,1.081,5.375,5.375,0,0,0-3.548-1.386,5.588,5.588,0,0,0-4.362,2.208,8.108,8.108,0,0,0-.83,1.789,5.687,5.687,0,0,0-10.064,3.631v.137A4.735,4.735,0,1,0,63.4,50.972a3.807,3.807,0,0,0,5.329-.145,5.611,5.611,0,0,0,9.9,1A5.428,5.428,0,0,0,79.7,49.974h.4A4.728,4.728,0,0,0,82.986,51.5,4.636,4.636,0,0,0,86.4,53.02a5.1,5.1,0,0,0,4.37-2.908c2.078,2.17,5.991,1.355,7.819-.875A13.186,13.186,0,0,0,100.877,44.683Z" transform="translate(919.804 221.664)" fill="#fff" opacity="0.6"/>
    <path id="Path_551" data-name="Path 551" d="M25.206,88.366a.6.6,0,0,0-.244-.289,14.635,14.635,0,0,1-1.523-.868.541.541,0,0,0-.373-.076c-.472-.312-.822-.761-1.287-1.089a17.868,17.868,0,0,1-3.609-4.18,4.438,4.438,0,0,0-.464-.609.594.594,0,0,1-.053-.495c-.312-.594-.624-1.18-.921-1.781-.069-.137-.137-.266-.3-.289a1.728,1.728,0,0,0-.228-.906,2.17,2.17,0,0,1-.206-1.827.487.487,0,0,1,.487-.061c.274.221.183.548.236.83a2.5,2.5,0,0,0,.152.807c0-.5-.419-1.1,0-1.721a2.847,2.847,0,0,1,1.013-.167c1.576-.167,3.159-.327,4.735-.5a1.713,1.713,0,0,0,.921-.259l.16-.16.076-.084a3.365,3.365,0,0,0,.647-2.8c-.266-1.858-.419-3.746-.609-5.618a3.6,3.6,0,0,1-.038-.906.914.914,0,0,1,.426-.541,22.565,22.565,0,0,1,2.132-1.568c.213-.129-.167-.1-.084-.221a3.609,3.609,0,0,1,1.972-.67,10.407,10.407,0,0,1,2.7.259c.891.213,1.241.609,1.134,1.523-.274,2.467-.457,4.964-1.561,7.248-.251.525,0,.853.266,1.226a1.957,1.957,0,0,1-.327,1.256c-.327.67-.107,1.2.639,1.264a8.481,8.481,0,0,1,2.482.891c.647.266,1.287.51,1.941.761a3.22,3.22,0,0,0,.952.2c.365,0,.815.1,1.013-.266a1.089,1.089,0,0,0-.236-1.15A4.256,4.256,0,0,0,35,74.122c-.579-.183-1.172-.312-1.736-.541-.259-.114-.533-.2-.639-.5s.145-.51.388-.662a.533.533,0,0,0,.3-.647,5.139,5.139,0,0,1,.129-2.566c.4-1.941.944-3.86,1.408-5.794a14.579,14.579,0,0,0,.312-1.987,1.6,1.6,0,0,0-.952-1.682c-.152-.076-.32-.122-.48-.2s-.662-.129-.685-.495.365-.449.609-.617A7.491,7.491,0,0,0,35,57.549a.944.944,0,0,0,.761-.167c1.523-.837,3.045-1.682,4.568-2.482a74.334,74.334,0,0,1,10.658-4.568l3.746-1.264A1.469,1.469,0,0,1,55.255,49a9.364,9.364,0,0,0,4.461,5.261,7.5,7.5,0,0,1-.548,1.523,46.158,46.158,0,0,1-2.725,5.953c-1.644,2.794-3.281,5.58-5.169,8.23-.967,1.355-1.972,2.68-2.954,4.027a43.836,43.836,0,0,1-6.144,6.486C41,81.538,39.823,82.588,38.62,83.616c-.761.662-1.584,1.271-2.39,1.9a1.081,1.081,0,0,0-.525.83.236.236,0,0,1-.145-.122c-.16-.525-.381-.373-.655-.076s-.594.563-.891.845a9.981,9.981,0,0,1-2.162,1.523A5.755,5.755,0,0,1,26,88.45a.891.891,0,0,0-.792-.084Z" transform="translate(929.226 217.805)" fill="#acacac"/>
    <path id="Path_552" data-name="Path 552" d="M12.867,59.575a.213.213,0,0,1-.213-.2c-.282-1.523-.685-2.939-.921-4.438a25.763,25.763,0,0,1-.137-5.329c.107-2.284.533-4.568.837-6.814a1.637,1.637,0,0,1,.442-.921,6.753,6.753,0,0,1,1.294-1.043,13.772,13.772,0,0,0,3.365-3.045.107.107,0,0,0,.091-.076h0c.213,0,.2.122.206.259-.19,1.1-.061,2.231-.152,3.342,0,.32.228.434.51.472a9.379,9.379,0,0,1,1.584.3c.411.129.639.365.442.815s-.053.51.343.487a1.644,1.644,0,0,1,.761.129c.206.434-.175.5-.419.6a14.5,14.5,0,0,0-1.523.708c-.221.122-.426.221-.251.541s.335.282.586.129a13.878,13.878,0,0,1,2.284-1.1c.373-.129.327-.624.716-.678a3.281,3.281,0,0,1,2.528,1.477,31.038,31.038,0,0,1,1.7,4.964c.3,1.058.6,2.116.837,3.2a2.04,2.04,0,0,1,.1.426c.046.4.084.807.129,1.2,0,.83-.107.959-.875,1.2a8.5,8.5,0,0,1-6-.434.906.906,0,0,0-.8-.114c-.548-.449-1.066-.9-.883-1.736a17.266,17.266,0,0,0,.434-2.558,3.3,3.3,0,0,0-.518-2.1A13.962,13.962,0,0,0,16.8,46.4a8.755,8.755,0,0,1-1.271-1.1.251.251,0,0,1,0-.244,32.492,32.492,0,0,0-1.18,5.329c0,.091,0,.175,0,.259a4.408,4.408,0,0,0,.206.83,2.155,2.155,0,0,0,.084.236c.038.107.069.213.1.32l.091.228a4.143,4.143,0,0,1,.114.411l.091.236a4.134,4.134,0,0,1,.122.51l.1.251c.046.145.076.3.114.449a3.045,3.045,0,0,0,.129.373c.289.929.556,1.865.8,2.8a1.142,1.142,0,0,1-.678,1.6,4.682,4.682,0,0,1-2.238.571A1.165,1.165,0,0,0,12.867,59.575Z" transform="translate(930.268 220.212)" fill="#534741"/>
    <path id="Path_553" data-name="Path 553" d="M21.9,79.49c-.114.335-.411.266-.655.289l-5.611.6a4.56,4.56,0,0,0-.7.1.206.206,0,0,1-.266,0,1.522,1.522,0,0,0-.556.046.921.921,0,0,1-.708.274c-1.18.137-2.36.266-3.54.373-.761.069-.929-.069-1.028-.807s-.19-1.675-.259-2.512a2.022,2.022,0,0,1,0-.48.845.845,0,0,1,.114-.556l-.548-5.451c0-.236-.167-.525.16-.685a4.667,4.667,0,0,1,2.6-.495c.853,0,1-.1,1.172-.83a.914.914,0,0,1,.51-.822c.4-.076.381.244.442.48a3.547,3.547,0,0,0-.114.632c0,.327.206.381.464.358a6.852,6.852,0,0,0,1.568-.236.762.762,0,0,1,.266,0,.761.761,0,0,0,.632-.076.464.464,0,0,0,0-.761.716.716,0,0,1-.152-.251.518.518,0,0,1,.3-.624c.358-.16.579.114.815.32a1.576,1.576,0,0,1,.289.761c.145.4.487.3.761.274.8-.046,1.591-.183,2.39-.221.678,0,.883.19.921.86.167,2.863.533,5.71.868,8.565a1.439,1.439,0,0,1,0,.761h0A1.088,1.088,0,0,0,21.9,79.49Z" transform="translate(931.083 213.107)" fill="#362f2d"/>
    <path id="Path_554" data-name="Path 554" d="M26.163,33.648h.129a21.026,21.026,0,0,1,3.266-.761,17.693,17.693,0,0,0,3.388-1.279c1.127-.487,2.231-1.02,3.35-1.523a16.216,16.216,0,0,0,3.182-1.979c.723-.579,1.446-1.157,2.177-1.728.145-.107.266-.312.5-.2a3.266,3.266,0,0,1,1.4,2.581,2.284,2.284,0,0,0,.167.624c.167.541.122.67-.373.944a13.169,13.169,0,0,1-1.264.647c-1.842.761-3.624,1.652-5.4,2.55a49.257,49.257,0,0,1-6.593,2.7c.312.617.639,1.21.921,1.835.579,1.256,1.157,2.512,1.69,3.807a14.464,14.464,0,0,1,.761,3.54,28.739,28.739,0,0,1,.381,4.2,2.725,2.725,0,0,0,.556,1.812,6.585,6.585,0,0,1-1.561,1.2c-.906.464-1.127.358-1.355-.67a2.923,2.923,0,0,0-.167-.8,2.284,2.284,0,0,1-.069-.388,2.17,2.17,0,0,0-.167-.563,2.025,2.025,0,0,1-.053-.3c-.617-2.284-1.264-4.507-2.063-6.707a6.737,6.737,0,0,0-.3-.716.761.761,0,0,1-.107-.274c0-.16,0-.32,0-.472a7.7,7.7,0,0,1,.761-2.725c.236-.5.122-.761-.327-.974l-.228-.122c-.655-.35-.655-.35-.259-1s.4-.662-.2-1.142l-1.858-1.523c-.2-.16-.449-.282-.472-.586A.16.16,0,0,1,26.163,33.648Z" transform="translate(926.815 222.919)" fill="#534741"/>
    <path id="Path_555" data-name="Path 555" d="M27.532,99.815c.282-.449.282-.442.693-.175a5.481,5.481,0,0,0,5.131.525,10.6,10.6,0,0,0,3.852-2.786c.16-.16.259-.487.525-.4s.213.4.251.624a1.391,1.391,0,0,0,.046.19,8.275,8.275,0,0,1-1.378,3.121c-.822,1.348-1.8,2.6-2.588,3.966a15.394,15.394,0,0,0-2.01,4.9,7.156,7.156,0,0,1-.624,1.835,1.726,1.726,0,0,1-2.566.761,1.82,1.82,0,0,1-.525-.381,9.136,9.136,0,0,1-2.581-4.484,4.9,4.9,0,0,1-.129-1.287,12.341,12.341,0,0,1,1.2-4.941C27.076,100.8,27.3,100.3,27.532,99.815Z" transform="translate(926.9 206.356)" fill="#0072bc"/>
    <path id="Path_557" data-name="Path 557" d="M30.428,57.48v.259c.152.137,0,.373.183.5v.388c.183.221,0,.541.213.761a1.523,1.523,0,0,0,0,.259c.2.632.312.761.929.388a5.923,5.923,0,0,0,1.2-.837c.175-.175.358-.388.655-.365a22.954,22.954,0,0,1,2.954.761c.046.091.129.19,0,.274l-.761.464a6.4,6.4,0,0,0-1.18.761c.434.175.761.312,1.142.464a1.652,1.652,0,0,1,1.134,1.88,9.646,9.646,0,0,1-.213,1.926c-.4,1.584-.761,3.182-1.188,4.773a21.7,21.7,0,0,0-.5,2.794,1.523,1.523,0,0,0,.137.761c.16.48.091.655-.365.883-.244.122-.48.206-.426.548-.624-.282-1.355-.114-1.972-.457-.655-.464-.548-.982-.244-1.644a13.277,13.277,0,0,0,1.142-4.492c.076-.875.3-1.736.32-2.626a.944.944,0,0,0-.761-1.089,9.783,9.783,0,0,0-3.045-.289,8.656,8.656,0,0,0-1.781.533c-.19.266-.464.183-.716.145a4.035,4.035,0,0,1-2.078-.853,7.141,7.141,0,0,1-2.223-3.342.655.655,0,0,1,0-.624c0-.213-.061-.541.365-.3a8.161,8.161,0,0,0,3.2.959,4.728,4.728,0,0,0,2.444-.129c.312-.129.67-.091,1-.228.571-.236.579-.206.556-.883a2.474,2.474,0,0,0-.137-1.287v-.388C30.291,57.914,30.109,57.67,30.428,57.48Z" transform="translate(927.552 215.585)" fill="#413732"/>
    <path id="Path_558" data-name="Path 558" d="M14.639,101.276c-.761.381-1.454.761-2.185,1.142a11.823,11.823,0,0,1-4.865,1.2,3.532,3.532,0,0,1-1.089-.137c-.206-.061-.274-.152-.183-.373.358-.914.563-1.865.906-2.779a15.828,15.828,0,0,1,1.85-3.494,8.23,8.23,0,0,1,2.154-2.048c.335-.228.685-.442,1.028-.662a2.9,2.9,0,0,1,1.614-.67c.236.069.32.282.419.472A10.339,10.339,0,0,0,17.1,97.34a.929.929,0,0,1,.434.617,6.144,6.144,0,0,1-2.893,3.319Z" transform="translate(931.518 207.195)" fill="#ff9600"/>
    <path id="Path_560" data-name="Path 560" d="M6.732,79.62l.046.48a4.712,4.712,0,0,1-2.215.807c-.571.091-1.157.129-1.736.19a4.522,4.522,0,0,0-1.013.213,1.317,1.317,0,0,0-.761,2.231,3.175,3.175,0,0,0,.609.67A4.773,4.773,0,0,1,.9,83.175a1.233,1.233,0,0,1,.617-1.743,2.992,2.992,0,0,1,1.058-.282,12.425,12.425,0,0,0,3.685-.693.541.541,0,0,1,.556,0c.091.876.2,1.751.289,2.626s.046.716.822.639l4.248-.4a4.355,4.355,0,0,0,.662,2.193c.19.282-.038.35-.183.48-.8.274-1.591.563-2.39.83a11.047,11.047,0,0,1-4.621.4A6.045,6.045,0,0,1,2.6,85.969a11.755,11.755,0,0,1-2.017-1.9,2.375,2.375,0,0,1-.51-.967,1.69,1.69,0,0,1,1.188-2.193,5.9,5.9,0,0,1,1.781-.4,12.752,12.752,0,0,0,3.692-.891Z" transform="translate(933.022 210.366)" fill="#0072bc"/>
    <path id="Path_561" data-name="Path 561" d="M72.037,53.634a.83.83,0,0,1-.723-.19,11.153,11.153,0,0,1-3.685-4.3.761.761,0,0,1-.053-.761l5.938-1.873a1.622,1.622,0,0,1,.381-.084c.67-.1.974.221.822.9a6.555,6.555,0,0,1-.563,1.378c-.594,1.249-1.1,2.543-1.6,3.807A7.8,7.8,0,0,1,72.037,53.634Z" transform="translate(916.905 218.139)" fill="#32004b"/>
    <path id="Path_562" data-name="Path 562" d="M17.991,67.825l-.167-.084c-.533-.289-.67-.2-.67.449a.35.35,0,0,0,.145.152c.373.525.373.525-.046.936a.99.99,0,0,1-.647.061h-.244a2.284,2.284,0,0,1-1.523-.221c-.206-.19-.48-.32-.579-.609-.122-.167-.122-.442-.381-.5a1.637,1.637,0,0,0-.046-.9c-.061-.244-.221-.6.19-.594a8.321,8.321,0,0,0,2.786-.685C17.862,66.287,18.28,67.01,17.991,67.825Z" transform="translate(929.734 213.579)" fill="#f69679"/>
    <path id="Path_563" data-name="Path 563" d="M17.26,102.257a9.828,9.828,0,0,0,2.284-2.375c.19-.312.365-.632.548-.952.815-.312,1.325-1.112,2.17-1.37.487.228.761.708,1.2.982v.183a30.033,30.033,0,0,1-3.586,2.847A4.134,4.134,0,0,1,17.26,102.257Z" transform="translate(928.897 206.214)" fill="#70b0d9"/>
    <path id="Path_564" data-name="Path 564" d="M48.631,28.245a.525.525,0,0,1-.167-.343,5.268,5.268,0,0,0-1.233-2.238c.244-.046.32-.266.442-.426a4.157,4.157,0,0,1,.906-1.028c1.264,0,1.675.266,1.926,1.241v.061c.129.571-.129,1.264-.533,1.309-.624.076-.647-.487-.83-.875a.181.181,0,0,0-.061-.16.761.761,0,0,1-.167.822c0,.046-.091.107-.084.129s.061.053,0,0a.091.091,0,0,1,0-.1c.069-.091.152-.244.228-.206.373.16.678.426,1.073.563.213.069.259.51.19.822a2.5,2.5,0,0,1-1.69.426Z" transform="translate(921.743 223.33)" fill="#f69679"/>
    <path id="Path_565" data-name="Path 565" d="M19.585,37.622a.274.274,0,0,0-.145-.244c-.084-.35.084-.761-.381-1,.533-.312,1.081,0,1.614,0a11.046,11.046,0,0,0,3.243-.213c.312,0,.426.259.48.533a2.193,2.193,0,0,1-2.741,1.713A3.806,3.806,0,0,1,20.24,38a1.089,1.089,0,0,0-.541-.221C19.623,37.766,19.547,37.728,19.585,37.622Z" transform="translate(928.467 220.528)" fill="#f69679"/>
    <path id="Path_566" data-name="Path 566" d="M49.3,26.732a2.946,2.946,0,0,0,.107-1.629c.289.076.282.266.289.426a3.807,3.807,0,0,0,.244.868.4.4,0,0,0,.373.312.48.48,0,0,0,.426-.343,1.523,1.523,0,0,0-1.271-2.124c-.145,0-.3.053-.426-.069a1.21,1.21,0,0,1,.761-.091c.152.091.381-.061.487.069.48.594.99.259,1.523.1a.411.411,0,0,1,.266.084c.5.274.563.388.358.9-.069.183-.069.251.114.32.358.122.3.388.175.624a.548.548,0,0,0-.046.571c.16.381,0,.556-.518.868-.069.076-.175.069-.251.122l-.4.053a.137.137,0,0,1,0-.16c.152-.282.594-.266.693-.685a2.284,2.284,0,0,0-1.089.236c-.069.327.48.19.327.541a.487.487,0,0,1-.373,0l-.221.046a.761.761,0,0,1-.1-.167c-.084-.4-.16-.761-.716-.761a.236.236,0,0,1-.152-.107c-.175-.495-.388-.19-.594-.038Z" transform="translate(921.311 223.365)" fill="#e17f60"/>
    <path id="Path_567" data-name="Path 567" d="M52.045,23.929a1.089,1.089,0,0,0-.236.091c-.434.244-.853.472-1.2-.114-.122-.2-.4-.114-.556-.266a1.028,1.028,0,0,0,.617-.312,9.349,9.349,0,0,1,1.523-.929,1.629,1.629,0,0,1,.487-.175.48.48,0,0,1,.556.228.434.434,0,0,1-.1.586c-.236.213-.5.4-.761.594C52.3,23.746,52.151,23.815,52.045,23.929Z" transform="translate(921.07 223.798)" fill="#f6977a"/>
    <path id="Path_568" data-name="Path 568" d="M13.29,63.9c0-.251.129-.236.343-.228a4.339,4.339,0,0,0,2.413-.586c.662-.381.708-.6.518-1.325-.259-1-.609-1.964-.8-2.977-.084-.061-.069-.19-.152-.244a3.846,3.846,0,0,0-.061-.518l-.137-.114-.061-.647c-.053-.038-.091-.084-.145-.114l-.053-.518-.145-.122-.046-.388a.2.2,0,0,1-.069-.145.16.16,0,0,1,.175-.152.373.373,0,0,1,.114.129c.053.129.1.266.16.388a1.31,1.31,0,0,1,.053.16,2.109,2.109,0,0,0,.145.472.9.9,0,0,1,.053.152,2.5,2.5,0,0,0,.145.48,1.378,1.378,0,0,1,.069.236,1.554,1.554,0,0,0,.061.327,1.018,1.018,0,0,0,.1.244,1.081,1.081,0,0,1,.053.167,1.621,1.621,0,0,0,.213.518,24.476,24.476,0,0,1,.936,3.045.9.9,0,0,1-.3.936,4.2,4.2,0,0,1-3.35.929C13.473,63.973,13.359,63.989,13.29,63.9Z" transform="translate(929.845 215.939)" fill="#4a403b"/>
    <path id="Path_569" data-name="Path 569" d="M12.116,69.82c.122.914.122.906-.8,1.013-.533.061-1.066-.053-1.6,0a6.09,6.09,0,0,1-1.378.289,2.284,2.284,0,0,1,1.911-.974c.495,0,.982-.1,1.477-.1A.4.4,0,0,0,12.116,69.82Z" transform="translate(931.026 212.637)" fill="#544943"/>
    <path id="Path_570" data-name="Path 570" d="M15.785,92.882c-.586.107-1.089.48-1.675.586a13.6,13.6,0,0,1,3.152-2.748c.076.122.16.244.069.4-.061.48-.495.678-.761.99a6.731,6.731,0,0,1-.784.777Z" transform="translate(929.649 207.744)" fill="#74b0d6"/>
    <path id="Path_572" data-name="Path 572" d="M13.64,66.243A6.09,6.09,0,0,0,16.959,65.2c.381.228.206.4-.061.556a4.758,4.758,0,0,1-2.786.761c-.4,0-.175.289-.236.457C13.648,66.761,13.724,66.479,13.64,66.243Z" transform="translate(929.761 213.721)" fill="#c0bbba"/>
    <path id="Path_574" data-name="Path 574" d="M51.72,28.873l.411-.053h0v.114A.434.434,0,0,1,51.72,28.873Z" transform="translate(920.671 222.245)" fill="#f49578"/>
    <path id="Path_575" data-name="Path 575" d="M25.86,35.849c.091-.137.19-.129.289,0a.069.069,0,0,1,0,.076l-.114.053a.152.152,0,0,1-.122-.076Z" transform="translate(926.844 220.62)" fill="#e68c70"/>
    <path id="Path_577" data-name="Path 577" d="M52.79,28.851a.251.251,0,0,1,.251-.122A.244.244,0,0,1,52.79,28.851Z" transform="translate(920.416 222.266)" fill="#f49578"/>
    <path id="Path_578" data-name="Path 578" d="M19.517,37.76c0,.061-.038.084-.091.076S19.471,37.76,19.517,37.76Z" transform="translate(928.384 220.149)" fill="#f69679"/>
    <path id="Path_579" data-name="Path 579" d="M49.048,61.573a6.418,6.418,0,1,1,2.321,4.374,6.433,6.433,0,0,1-2.321-4.374Z" transform="translate(921.318 216.278)" fill="#fff"/>
    <path id="Path_580" data-name="Path 580" d="M35.143,79.995c.556-.084,1.1.183,1.652.107.236,0,.152.289.32.35a5.139,5.139,0,0,0,1.858.761,6.737,6.737,0,0,1,2.177.967,1.964,1.964,0,0,1,.974,1.523c0,.472-.046.609-.51.761a3.167,3.167,0,0,1-1.9-.206A32.468,32.468,0,0,1,36.491,82.9a1.743,1.743,0,0,0-.845-.221A.967.967,0,0,1,34.7,81.16,3.517,3.517,0,0,0,35.143,79.995Z" transform="translate(924.778 210.269)"/>
    <path id="Path_581" data-name="Path 581" d="M19.64,69.187c.19.213.434.145.662.122l3.723-.388c.639-.069.639-.061.716.556a2.323,2.323,0,0,0,.061.381c.251,2.451.487,4.9.761,7.347a2.056,2.056,0,0,1-.381,1.69,7.254,7.254,0,0,0-.434.639c-.571-2.908-.678-5.87-1.051-8.8a2.215,2.215,0,0,1,0-.449c.061-.761,0-.822-.761-.761l-2.512.266C19.792,69.873,19.762,69.842,19.64,69.187Z" transform="translate(928.329 212.889)" fill="#534741"/>
    <path id="Path_582" data-name="Path 582" d="M16.31,93.006a.761.761,0,0,1,.266-.495c.434-.419.853-.845,1.279-1.271.266,0,.327.251.449.426.411.579.822,1.165,1.226,1.751A20.235,20.235,0,0,0,22,96.051l-1.241,1.013a1.4,1.4,0,0,1-.929.358c-.457-.556-1.073-.936-1.523-1.469a10.255,10.255,0,0,1-2-2.946Z" transform="translate(929.124 207.639)" fill="#736357"/>
    <path id="Path_583" data-name="Path 583" d="M16.74,84.43h.266a11.945,11.945,0,0,0,.381,2.284C16.74,86.029,16.877,85.191,16.74,84.43Z" transform="translate(929.021 209.216)" fill="#8b8b8b"/>
    <path id="Path_584" data-name="Path 584" d="M66.965,62.571c0,.228-.069.365-.266.4a.312.312,0,0,1-.107-.609.32.32,0,0,1,.373.213Z" transform="translate(917.173 214.385)" fill="#646464"/>
    <path id="Path_585" data-name="Path 585" d="M63.091,70.088a.3.3,0,0,1,.365.274.309.309,0,0,1-.609.1.3.3,0,0,1,.244-.373Z" transform="translate(918.017 212.573)" fill="#636363"/>
    <path id="Path_586" data-name="Path 586" d="M61.163,71.426a.318.318,0,1,1-.624.107.282.282,0,0,1,.236-.327.3.3,0,0,1,.388.221Z" transform="translate(918.567 212.313)" fill="#646464"/>
    <path id="Path_587" data-name="Path 587" d="M58.314,71.807a.3.3,0,0,1,.373.259.282.282,0,0,1-.213.343.289.289,0,0,1-.388-.221.3.3,0,0,1,.228-.381Z" transform="translate(919.155 212.17)" fill="#646464"/>
    <path id="Path_588" data-name="Path 588" d="M60.348,53.821c0,.228-.069.358-.259.4A.282.282,0,0,1,59.754,54a.289.289,0,0,1,.221-.388C60.173,53.554,60.279,53.684,60.348,53.821Z" transform="translate(918.758 216.437)" fill="#636363"/>
    <path id="Path_589" data-name="Path 589" d="M65.835,66.54a.3.3,0,0,1,.343.3.282.282,0,0,1-.3.32.274.274,0,0,1-.3-.259.3.3,0,0,1,.266-.358Z" transform="translate(917.367 213.403)" fill="#646464"/>
    <path id="Path_590" data-name="Path 590" d="M57.744,53.31a.312.312,0,0,1,.343.3.3.3,0,0,1-.3.327.282.282,0,0,1-.3-.259.3.3,0,0,1,.266-.365Z" transform="translate(919.299 216.505)" fill="#646464"/>
    <path id="Path_591" data-name="Path 591" d="M50.142,68.339a.251.251,0,0,1,.289.266.282.282,0,0,1-.221.335.343.343,0,0,1-.381-.335.3.3,0,0,1,.312-.266Z" transform="translate(921.122 212.982)" fill="#646464"/>
    <path id="Path_592" data-name="Path 592" d="M49.309,66.6c0,.228-.1.373-.282.4s-.282-.084-.312-.251a.259.259,0,0,1,.259-.35.327.327,0,0,1,.335.2Z" transform="translate(921.393 213.436)" fill="#666"/>
    <path id="Path_593" data-name="Path 593" d="M48.437,60.557c-.175-.046-.327-.129-.327-.327s.152-.289.343-.289.251.137.251.3a.3.3,0,0,1-.266.312Z" transform="translate(921.533 214.95)" fill="#626262"/>
    <path id="Path_594" data-name="Path 594" d="M65.427,58.418a.3.3,0,0,1-.289-.289.266.266,0,0,1,.3-.32c.175,0,.312.084.3.259a.343.343,0,0,1-.312.35Z" transform="translate(917.47 215.45)" fill="#646464"/>
    <path id="Path_595" data-name="Path 595" d="M49.45,58.212a.343.343,0,0,1-.282.373.283.283,0,0,1-.312-.251A.259.259,0,0,1,49.115,58a.289.289,0,0,1,.335.213Z" transform="translate(921.358 215.407)" fill="#666"/>
    <path id="Path_596" data-name="Path 596" d="M62.305,55.214c-.167,0-.3-.053-.327-.228a.3.3,0,0,1,.266-.365.288.288,0,0,1,.32.3C62.579,55.122,62.473,55.191,62.305,55.214Z" transform="translate(918.224 216.197)" fill="#5c5c5c"/>
    <path id="Path_597" data-name="Path 597" d="M55.939,53.9a.259.259,0,0,1-.251.312.274.274,0,0,1-.32-.251.3.3,0,0,1,.289-.358C55.848,53.562,55.916,53.7,55.939,53.9Z" transform="translate(919.802 216.437)" fill="#616161"/>
    <path id="Path_598" data-name="Path 598" d="M53.611,54.23c.213,0,.312.1.32.274a.274.274,0,0,1-.274.3.289.289,0,0,1-.327-.312C53.337,54.314,53.482,54.253,53.611,54.23Z" transform="translate(920.287 216.289)" fill="#646464"/>
    <path id="Path_599" data-name="Path 599" d="M66.677,64.927a.312.312,0,0,1-.289.35.289.289,0,0,1-.327-.236.3.3,0,0,1,.282-.343A.289.289,0,0,1,66.677,64.927Z" transform="translate(917.248 213.836)" fill="#666"/>
    <path id="Path_600" data-name="Path 600" d="M51.88,55.875c-.206,0-.365-.053-.381-.266a.274.274,0,0,1,.251-.312.289.289,0,0,1,.365.259C52.154,55.738,52.009,55.83,51.88,55.875Z" transform="translate(920.725 216.041)" fill="#676767"/>
    <path id="Path_601" data-name="Path 601" d="M53.758,71.249a.282.282,0,0,1,.327.251.266.266,0,0,1-.2.32.274.274,0,0,1-.358-.274A.289.289,0,0,1,53.758,71.249Z" transform="translate(920.239 212.3)" fill="#5f5f5f"/>
    <path id="Path_602" data-name="Path 602" d="M48.32,64.23c.183,0,.289.084.3.266a.274.274,0,0,1-.259.312.289.289,0,0,1-.358-.3C48,64.329,48.152,64.253,48.32,64.23Z" transform="translate(921.559 213.944)" fill="#636363"/>
    <path id="Path_603" data-name="Path 603" d="M50.265,57.136a.3.3,0,0,1-.266-.35.248.248,0,0,1,.289-.266.282.282,0,0,1,.282.343A.3.3,0,0,1,50.265,57.136Z" transform="translate(921.084 215.753)" fill="#666"/>
    <path id="Path_604" data-name="Path 604" d="M64.354,56.3a.3.3,0,0,1-.3.289.244.244,0,0,1-.3-.251.248.248,0,0,1,.274-.282.282.282,0,0,1,.32.244Z" transform="translate(917.798 215.86)" fill="#5b5b5b"/>
    <path id="Path_605" data-name="Path 605" d="M48.411,62.272a.274.274,0,0,1-.289.327.251.251,0,0,1-.282-.274.274.274,0,0,1,.266-.3.259.259,0,0,1,.3.244Z" transform="translate(921.598 214.461)" fill="#5c5c5c"/>
    <path id="Path_606" data-name="Path 606" d="M66.6,60.345c0,.175,0,.312-.213.35s-.289-.076-.32-.244,0-.3.213-.335a.251.251,0,0,1,.32.228Z" transform="translate(917.249 214.911)" fill="#5b5b5b"/>
    <path id="Path_607" data-name="Path 607" d="M51.976,70.822a.282.282,0,0,1-.3-.274.268.268,0,1,1,.533-.053.282.282,0,0,1-.236.327Z" transform="translate(920.681 212.532)" fill="#5c5c5c"/>
    <path id="Path_608" data-name="Path 608" d="M64.679,69.039a.251.251,0,0,1-.312-.236.274.274,0,0,1,.213-.343.285.285,0,0,1,.32.244.251.251,0,0,1-.221.335Z" transform="translate(917.655 212.953)" fill="#5f5f5f"/>
    <path id="Path_609" data-name="Path 609" d="M55.792,71.86c.16,0,.289.069.3.251a.29.29,0,0,1-.579.03C55.5,71.967,55.624,71.883,55.792,71.86Z" transform="translate(919.767 212.156)" fill="#5b5b5b"/>
    <path id="Path_610" data-name="Path 610" d="M26.23,83.04a.183.183,0,0,1,.091-.16.152.152,0,0,1-.091.16Z" transform="translate(926.756 209.571)" fill="#534741"/>
    <path id="Path_611" data-name="Path 611" d="M24.343,35.93l.122.076a24.217,24.217,0,0,0,2.025,1.705l.145.129c.3.282.853.442.853.807s-.388.685-.609,1.028c0,.053-.069.114-.114.19.358.251.761.35,1.112.624s.343.282.145.716a8.374,8.374,0,0,0-.875,2.893c-.114.114,0,.282-.091.4v.259a.076.076,0,0,1-.129,0,3.753,3.753,0,0,0-2.36-1.317c-.16-.129-.312.046-.472,0h-.16c-.236-.076-.5-.061-.708-.244-.426.061-.853-.1-1.287,0-.183.038-.289-.061-.213-.266s.114-.327.183-.487c.167-.4.145-.472-.266-.579a13.614,13.614,0,0,0-1.454-.282c-.723-.1-.906.084-.822-1.051.061-.83.038-1.675.046-2.5,0-.2-.061-.4.213-.464l.122.1a.761.761,0,0,1,.244.129,33.909,33.909,0,0,0,2.771,2.451c.419.32.845.632,1.249.967l.358.282a8.618,8.618,0,0,1,2.177,2.154,15.759,15.759,0,0,0-.4-2.208,2.512,2.512,0,0,0-.16-.761c-.221-.647-.457-1.279-.716-1.9a1.782,1.782,0,0,1-.069-.183,1.172,1.172,0,0,0-.145-.335,4.446,4.446,0,0,1-.647-1.614l-.3-.457C24.115,36.044,24.275,36.029,24.343,35.93Z" transform="translate(928.399 220.594)" fill="#413732"/>
    <path id="Path_612" data-name="Path 612" d="M23.682,45.477a1.241,1.241,0,0,1,.807.175,15.416,15.416,0,0,1-2.116.936c-.236.129-.525.19-.67.419,0,.122.084.167.145.145.822-.274,1.523-.761,2.337-1.089.167-.076.2-.274.3-.411.183,0,.373-.1.533.076H24.9c0,.518-.426.586-.761.761a14.7,14.7,0,0,0-2.124,1.089c-.282.183-.472.167-.624-.129a2.208,2.208,0,0,0-.145-.221c-.19-.251-.129-.442.145-.563a16.026,16.026,0,0,1,1.637-.761A.688.688,0,0,0,23.682,45.477Z" transform="translate(927.972 218.346)" fill="#483d38"/>
    <path id="Path_613" data-name="Path 613" d="M29.34,47.54h.129a7.978,7.978,0,0,1,.86,2.116c.472,1.4.891,2.809,1.317,4.218.129.411.213.83.32,1.241-.2.206-.053.442-.061.662a4.941,4.941,0,0,1-.4-1.393c-.251-.761-.4-1.568-.647-2.345a45.176,45.176,0,0,0-1.523-4.5Z" transform="translate(926.013 217.876)" fill="#483d37"/>
    <path id="Path_614" data-name="Path 614" d="M15.414,51.775v.213c-.069.137,0,.289-.053.426a.069.069,0,0,1,0,.1,2.078,2.078,0,0,0,.1,1.035v.129l-.114.145a.091.091,0,0,1-.129,0c0-.358-.251-.655-.236-1.02a1.2,1.2,0,0,0,.114-.145,2.923,2.923,0,0,1,.152-1.157,18.972,18.972,0,0,1,1.028-4.256c.145-.343.145-.343.5-.525,0,.343-.282.525-.381.761-.365,1.271-.639,2.558-.914,3.852C15.376,51.5,15.475,51.63,15.414,51.775Z" transform="translate(929.441 218.065)" fill="#4e443f"/>
    <path id="Path_615" data-name="Path 615" d="M32.76,58.86a1.424,1.424,0,0,1,.137,1.287Z" transform="translate(925.197 215.205)" fill="#483d37"/>
    <path id="Path_616" data-name="Path 616" d="M16.34,59.39a.274.274,0,0,1,.152.244A.259.259,0,0,1,16.34,59.39Z" transform="translate(929.117 215.078)" fill="#504641"/>
    <path id="Path_617" data-name="Path 617" d="M15.1,54.53l-.114.145Z" transform="translate(929.439 216.217)" fill="#504641"/>
    <path id="Path_618" data-name="Path 618" d="M15.3,56.06h.129v.122Z" transform="translate(929.365 215.858)" fill="#504641"/>
    <path id="Path_619" data-name="Path 619" d="M15.54,56.72l.145.122Z" transform="translate(929.307 215.704)" fill="#504641"/>
    <path id="Path_620" data-name="Path 620" d="M15.8,57.56l.145.114Z" transform="translate(929.245 215.507)" fill="#504641"/>
    <path id="Path_621" data-name="Path 621" d="M16.08,58.56l.137.114Z" transform="translate(929.179 215.272)" fill="#504641"/>
    <path id="Path_622" data-name="Path 622" d="M7.013,80.646a5.58,5.58,0,0,0-1.355.411,18.324,18.324,0,0,1-3.045.434,2.634,2.634,0,0,0-.868.244,1.028,1.028,0,0,0-.525,1.523,3.608,3.608,0,0,0,.693.929c.084.091.2.167.289.259a.236.236,0,0,1,.053.3.221.221,0,0,1-.343,0A3.913,3.913,0,0,1,.74,83.151a1.439,1.439,0,0,1,1.1-1.835A10.438,10.438,0,0,1,4.2,80.943a6.189,6.189,0,0,0,2.238-.571,1.942,1.942,0,0,1,.5-.122A3.3,3.3,0,0,1,7.013,80.646Z" transform="translate(932.855 210.205)" fill="#005b96"/>
    <path id="Path_623" data-name="Path 623" d="M14.958,69.974a1.728,1.728,0,0,0,.822.244,1.523,1.523,0,0,1,.678.137,5.139,5.139,0,0,1-2.033.327c-.282,0-.327-.175-.213-.647a.685.685,0,0,1,.746-.061Z" transform="translate(929.638 212.618)" fill="#544741"/>
    <path id="Path_624" data-name="Path 624" d="M14.964,69.859a2.474,2.474,0,0,1-.761.061.442.442,0,0,1,.175-.51A1.218,1.218,0,0,1,14.964,69.859Z" transform="translate(929.632 212.73)" fill="#dbd4d1"/>
    <path id="Path_625" data-name="Path 625" d="M17.5,70.421l.647-.061a.48.48,0,0,1-.647.061Z" transform="translate(928.84 212.506)" fill="#544741"/>
    <path id="Path_626" data-name="Path 626" d="M18.365,69.082a.167.167,0,0,1-.145-.152A.167.167,0,0,1,18.365,69.082Z" transform="translate(928.668 212.841)" fill="#dbc9c3"/>
    <path id="Path_627" data-name="Path 627" d="M33.333,59.761c-.259-.2-.145-.5-.213-.761C33.379,59.2,33.265,59.5,33.333,59.761Z" transform="translate(925.111 215.171)" fill="#483d37"/>
    <path id="Path_628" data-name="Path 628" d="M33.013,58.322c-.206-.114-.152-.327-.183-.5C33.028,57.957,32.959,58.147,33.013,58.322Z" transform="translate(925.18 215.447)" fill="#483d37"/>
    <path id="Path_629" data-name="Path 629" d="M29.467,47.063c0-.145-.053-.3.091-.4C29.566,46.8,29.612,46.919,29.467,47.063Z" transform="translate(925.985 218.063)" fill="#483d37"/>
    <path id="Path_630" data-name="Path 630" d="M38.518,97.81a.655.655,0,0,1,.076.761,11.26,11.26,0,0,1-2.406,3.73,15.987,15.987,0,0,0-2.786,3.867,10.049,10.049,0,0,0-.716,3.205,4.9,4.9,0,0,1-.541,1.652,1.591,1.591,0,0,1-.761.761c-.693.327-1.02.183-1.294-.579.107-.107.2,0,.274.046s.3.343.6.3a1.066,1.066,0,0,0,.761-.472,3.266,3.266,0,0,0,.609-1.614,10.141,10.141,0,0,1,2.284-5.915c.639-.761,1.348-1.523,1.995-2.284a10.864,10.864,0,0,0,1.9-3.464Z" transform="translate(925.834 206.154)" fill="#005b96"/>
    <path id="Path_632" data-name="Path 632" d="M8.28,101.212c.167-2.1,3.365-6.243,5.824-6.852-.815.761-1.789,1.051-2.444,1.781a24.5,24.5,0,0,0-1.941,2.284C9.14,99.263,8.828,100.222,8.28,101.212Z" transform="translate(931.04 206.978)" fill="#d17b00"/>
    <path id="Path_633" data-name="Path 633" d="M15.959,98a35.023,35.023,0,0,1-3.129,2.68A9.7,9.7,0,0,1,15.959,98Z" transform="translate(929.954 206.109)" fill="#d47d00"/>
    <path id="Path_634" data-name="Path 634" d="M10.35,100.917a3.982,3.982,0,0,1,.9-1.454,9.181,9.181,0,0,1,1.8-1.713c0,.312-.244.373-.365.5a26.272,26.272,0,0,0-1.835,2.147,1.941,1.941,0,0,1-.48.518Z" transform="translate(930.546 206.168)" fill="#db8100"/>
    <path id="Path_635" data-name="Path 635" d="M10.34,101.91v.053C10.294,101.963,10.3,101.963,10.34,101.91Z" transform="translate(930.556 205.175)" fill="#db8100"/>
    <path id="Path_636" data-name="Path 636" d="M49.375,27.57v.061S49.337,27.631,49.375,27.57Z" transform="translate(921.235 222.538)" fill="#e17f60"/>
    <path id="Path_637" data-name="Path 637" d="M25.527,38.778a.167.167,0,0,1,0,.122c-.365.244-.647-.084-.974-.137-.868-.3-1.089-.152-1.3.853-.145.32.076.761-.388.99a15.081,15.081,0,0,1-2.832-2.558.228.228,0,0,1,.312,0,4.88,4.88,0,0,0,2.33.434,1.85,1.85,0,0,0,1.7-1.279c0-.1.107-.19.152-.282A12.736,12.736,0,0,1,25.4,38.5C25.466,38.587,25.458,38.7,25.527,38.778Z" transform="translate(928.236 220.352)" fill="#fefefe"/>
    <path id="Path_638" data-name="Path 638" d="M20.336,38.3h-.312c-.076,0-.1-.076-.114-.145C20.093,38.067,20.215,38.181,20.336,38.3Z" transform="translate(928.264 220.064)" fill="#f2cfc4"/>
    <path id="Path_639" data-name="Path 639" d="M51.663,26.121a1.271,1.271,0,0,0-.046-.449.837.837,0,0,1,1.051-.921c.312.069.388.19.221.434a2.208,2.208,0,0,1-1.226.936Z" transform="translate(920.698 223.207)" fill="#f59578"/>
    <path id="Path_640" data-name="Path 640" d="M52.049,28.508c-.114-.145-.274-.084-.419-.122a.282.282,0,0,1-.251-.312.266.266,0,0,1,.221-.282,7.156,7.156,0,0,0,1.058-.259.244.244,0,0,1,.32.129.335.335,0,0,1-.084.411,2.215,2.215,0,0,1-.845.426Z" transform="translate(920.753 222.552)" fill="#f49578"/>
    <path id="Path_641" data-name="Path 641" d="M53.188,26.392c-.388.678-.586.761-1.606.815a.373.373,0,0,1,.129-.442A1.918,1.918,0,0,1,53.188,26.392Z" transform="translate(920.711 222.82)" fill="#f59578"/>
    <path id="Path_642" data-name="Path 642" d="M16.69,59.3a.761.761,0,0,1,.16.541C16.66,59.7,16.705,59.49,16.69,59.3Z" transform="translate(929.033 215.1)" fill="#534741"/>
    <path id="Path_643" data-name="Path 643" d="M16.15,57.48a.761.761,0,0,1,.167.533C16.12,57.876,16.173,57.67,16.15,57.48Z" transform="translate(929.162 215.527)" fill="#504641"/>
    <path id="Path_644" data-name="Path 644" d="M15.89,56.66a.761.761,0,0,1,.175.525C15.86,57.056,15.913,56.85,15.89,56.66Z" transform="translate(929.224 215.719)" fill="#504641"/>
    <path id="Path_645" data-name="Path 645" d="M16.43,58.44a.571.571,0,0,1,.145.434.069.069,0,0,1-.114,0Z" transform="translate(929.095 215.301)" fill="#534741"/>
    <path id="Path_646" data-name="Path 646" d="M15.65,56a.563.563,0,0,1,.152.419A.459.459,0,0,1,15.65,56Z" transform="translate(929.281 215.873)" fill="#504641"/>
    <path id="Path_647" data-name="Path 647" d="M16.47,59h.114v.129Z" transform="translate(929.086 215.169)" fill="#504641"/>
    <path id="Path_648" data-name="Path 648" d="M52.351,57.017a6.273,6.273,0,0,0-1.606,3,9,9,0,0,0,0,3.441c-1.028-1.622-.266-4.766,1.477-6.547C52.351,56.842,52.351,56.9,52.351,57.017Z" transform="translate(921.015 215.685)" fill="#adadad"/>
    <path id="Path_649" data-name="Path 649" d="M62.935,67.465a6.174,6.174,0,0,0,1.279-2.87c.114-.046.183,0,.145.114a4.568,4.568,0,0,1-1.378,2.908.114.114,0,0,1-.061-.1S62.928,67.465,62.935,67.465Z" transform="translate(917.998 213.871)" fill="#cdcdcd"/>
    <path id="Path_650" data-name="Path 650" d="M52.95,56.874l-.16-.129a1.035,1.035,0,0,1,.693-.464,1.819,1.819,0,0,1-.533.594Z" transform="translate(920.416 215.808)" fill="#c6c6c6"/>
    <path id="Path_651" data-name="Path 651" d="M64.765,64.545l-.145-.114a3.526,3.526,0,0,1,.1-.541A.6.6,0,0,1,64.765,64.545Z" transform="translate(917.592 214.024)" fill="#e1e1e1"/>
    <path id="Path_652" data-name="Path 652" d="M62.845,68.37v.152c-.053.114-.107.228-.3.228A.6.6,0,0,1,62.845,68.37Z" transform="translate(918.089 212.973)" fill="#dfdfdf"/>
    <path id="Path_653" data-name="Path 653" d="M15.521,55.365a1.073,1.073,0,0,1-.1-1.035C15.46,54.673,15.491,55.015,15.521,55.365Z" transform="translate(929.357 216.266)" fill="#534741"/>
    <path id="Path_654" data-name="Path 654" d="M15.543,53.219c0-.16-.084-.32.069-.449A.586.586,0,0,1,15.543,53.219Z" transform="translate(929.312 216.631)" fill="#534741"/>
    <path id="Path_655" data-name="Path 655" d="M15.453,54.066c0-.152-.076-.3.053-.426a.563.563,0,0,1-.053.426Z" transform="translate(929.334 216.427)" fill="#534741"/>
    <path id="Path_656" data-name="Path 656" d="M19.062,93.22A5.6,5.6,0,0,1,18,94.324a.183.183,0,0,1-.282,0c-.061-.076,0-.175.069-.228a3.989,3.989,0,0,1,1.271-.875Z" transform="translate(928.793 207.151)" fill="#423935"/>
    <path id="Path_657" data-name="Path 657" d="M18.65,95.967a5.725,5.725,0,0,1,1.523-1.347,2.649,2.649,0,0,1-1.523,1.347Z" transform="translate(928.565 206.915)" fill="#423a35"/>
    <path id="Path_658" data-name="Path 658" d="M22.3,97.35a5.725,5.725,0,0,1-1.1.906c-.091.053-.19.107-.274,0s0-.175.061-.221A2.482,2.482,0,0,1,22.3,97.35Z" transform="translate(928.032 206.264)" fill="#403834"/>
    <path id="Path_659" data-name="Path 659" d="M21.022,96.13c-.206.464-.594.655-.868.952a.175.175,0,0,1-.236,0,.122.122,0,0,1,0-.175A2.611,2.611,0,0,1,21.022,96.13Z" transform="translate(928.271 206.555)" fill="#423935"/>
    <path id="Path_660" data-name="Path 660" d="M17.939,92.07a2.923,2.923,0,0,1-1.089,1.188,2.215,2.215,0,0,1,1.089-1.188Z" transform="translate(928.995 207.421)" fill="#433a36"/>
    <path id="Path_661" data-name="Path 661" d="M24.139,39.99a1.089,1.089,0,0,1,.381-.914.936.936,0,0,1,1.081,0,3.334,3.334,0,0,0,1.363,2.185,1.69,1.69,0,0,1,.3.419,2.071,2.071,0,0,0,.206.48,8.557,8.557,0,0,1,.365,2.436,19.558,19.558,0,0,0-2.429-2.337,4.75,4.75,0,0,1-.289-.5A3.251,3.251,0,0,0,24.139,39.99Z" transform="translate(927.256 219.891)" fill="#ed1d25"/>
    <path id="Path_662" data-name="Path 662" d="M27.655,41.823a6.364,6.364,0,0,0-1.18-1.271.86.86,0,0,1-.4-.982,1.294,1.294,0,0,0,0-.449,3.982,3.982,0,0,0,.929.289,8.976,8.976,0,0,1,.761,2C27.777,41.571,27.952,41.754,27.655,41.823Z" transform="translate(926.8 219.835)" fill="#c2c0c0"/>
    <path id="Path_663" data-name="Path 663" d="M24.054,40.33A1.6,1.6,0,0,1,25.1,41.807l.046.251c.084.16.107.289-.129.312a10.026,10.026,0,0,1-1.233-.952C23.986,41.084,23.879,40.673,24.054,40.33Z" transform="translate(927.341 219.55)" fill="#c2c1c1"/>
    <path id="Path_664" data-name="Path 664" d="M28.16,42.546c.137-.107.061-.259.091-.4a1.2,1.2,0,0,1,.183.761A.594.594,0,0,1,28.16,42.546Z" transform="translate(926.295 219.121)" fill="#b7898a"/>
    <path id="Path_665" data-name="Path 665" d="M25.4,42.9c.114-.076.114-.2.129-.312a.761.761,0,0,1,.183.541A.5.5,0,0,1,25.4,42.9Z" transform="translate(926.954 219.017)" fill="#bb9a9b"/>
    <path id="Path_666" data-name="Path 666" d="M27.208,39.276a.244.244,0,0,1-.129-.266.259.259,0,0,1,.129.266Z" transform="translate(926.554 219.856)" fill="#c2c0c0"/>
    <path id="Path_667" data-name="Path 667" d="M24.58,45.71c.061.221.167.419-.175.563-.807.35-1.6.761-2.383,1.15-.251.129-.343,0-.457-.167s0-.32.152-.4a10.56,10.56,0,0,1,1.1-.541A10.194,10.194,0,0,1,24.58,45.71Z" transform="translate(927.88 218.289)" fill="#534741"/>
    <path id="Path_668" data-name="Path 668" d="M120.49,21.446A21.008,21.008,0,0,1,96.015,42.595a21.5,21.5,0,0,1,0-42.306A21.013,21.013,0,0,1,120.49,21.446Z" transform="translate(914.313 229.001)" fill="#acacac" fill-rule="evenodd"/>
    <path id="Path_669" data-name="Path 669" d="M96.6,3.689a18.841,18.841,0,0,0,0,37.182A18.4,18.4,0,0,0,117.614,22.28,18.4,18.4,0,0,0,96.6,3.689Zm0,34.776a16.362,16.362,0,0,1,0-32.371A15.987,15.987,0,0,1,114.515,22.28,15.987,15.987,0,0,1,96.6,38.465Z" transform="translate(913.725 228.167)" fill="#fff" fill-rule="evenodd"/>
    <path id="Path_670" data-name="Path 670" d="M97.727,9.9a14.008,14.008,0,0,0,0,27.78,13.7,13.7,0,0,0,15.066-13.886A13.7,13.7,0,0,0,97.727,9.9Zm0,25.679a11.869,11.869,0,0,1,0-23.6A11.587,11.587,0,0,1,110.25,23.792,11.595,11.595,0,0,1,97.727,35.577Z" transform="translate(912.6 226.655)" fill="#fff" fill-rule="evenodd"/>
    <path id="Path_671" data-name="Path 671" d="M98.926,15.994a9.288,9.288,0,0,0,0,18.484,9.09,9.09,0,0,0,9.638-9.242,9.075,9.075,0,0,0-9.638-9.242Zm0,16.939a7.727,7.727,0,0,1,0-15.394,7.56,7.56,0,0,1,7.956,7.72,7.567,7.567,0,0,1-7.956,7.7Z" transform="translate(911.401 225.187)" fill="#fff" fill-rule="evenodd"/>
    <path id="Path_672" data-name="Path 672" d="M98.926,15.994a9.288,9.288,0,0,0,0,18.484,9.09,9.09,0,0,0,9.638-9.242,9.075,9.075,0,0,0-9.638-9.242Zm0,16.939a7.727,7.727,0,0,1,0-15.394,7.56,7.56,0,0,1,7.956,7.72,7.567,7.567,0,0,1-7.956,7.7Z" transform="translate(911.401 225.187)" fill="#fff" fill-rule="evenodd"/>
    <path id="Path_673" data-name="Path 673" d="M100.636,30.191a2.885,2.885,0,1,1,2.855-2.885,2.855,2.855,0,0,1-2.855,2.885Z" transform="translate(909.691 223.283)" fill="#fff" fill-rule="evenodd"/>
    <g id="Group_37" data-name="Group 37" transform="translate(933.428 236.125) rotate(-14)">
      <path id="Path_1369" data-name="Path 1369" d="M16.593,0s-.018,4.734-.44,9.28a37.11,37.11,0,0,1-.908,5.78,3.658,3.658,0,0,1-2.469,2.532,31.358,31.358,0,0,1-3.657.046l-.277-.012a5.056,5.056,0,0,1-2.7-.92h0a13.221,13.221,0,0,1-1.272-1.327v-.007a21.493,21.493,0,0,1-2.158-3.154L2.705,12.2A.037.037,0,0,0,2.7,12.19S.167,13.222,0,9.721c0,0-.146-2.072,1.177-1.629H2.946V0Z" transform="translate(1.1 6.739)" fill="#f6d7c2"/>
      <path id="Path_1370" data-name="Path 1370" d="M9.118,12.2l-.277-.012a5.056,5.056,0,0,1-2.7-.92h0A13.221,13.221,0,0,1,4.871,9.945V9.938A21.494,21.494,0,0,1,2.713,6.784L2.705,6.77A.038.038,0,0,0,2.7,6.756S.167,7.788,0,4.287c0,0-.146-2.072,1.177-1.629H2.949V0l.44,5.218S6.957,10.576,9.118,12.2Z" transform="translate(1.098 12.181)" fill="#edb99b"/>
      <path id="Path_1371" data-name="Path 1371" d="M.554.876C.68.862,7.379,4.822,12.147,4.363a5.413,5.413,0,0,0,0-1.5L0,0Z" transform="translate(5.293 7.503)" fill="#edb99b"/>
      <path id="Path_1372" data-name="Path 1372" d="M1.03,2.441a.8.8,0,0,1-.353-.11.063.063,0,0,1,.061-.11c.138.073.319.142.405.053.137-.142.03-.639-.15-.929a.211.211,0,0,1-.03-.22c.041-.069.137-.1.3-.095a.2.2,0,0,0,.174-.08.137.137,0,0,0-.01-.159C1.2.5.782.02.424.152A.4.4,0,0,0,.141.4.521.521,0,0,0,.269.793.063.063,0,0,1,.261.881.065.065,0,0,1,.166.868.634.634,0,0,1,.013.361.507.507,0,0,1,.374.031c.414-.153.851.286,1.145.68a.259.259,0,0,1,.014.3.321.321,0,0,1-.285.139c-.154,0-.179.03-.182.034a.173.173,0,0,0,.029.094c.16.259.347.858.133,1.08A.271.271,0,0,1,1.03,2.441Z" transform="translate(1.644 15.811)" fill="#e89b8d"/>
      <path id="Path_1373" data-name="Path 1373" d="M2.1.283S1.962.248,1.767.206c-.1-.021-.212-.041-.33-.057C1.375.142,1.312.134,1.248.13A1.866,1.866,0,0,0,1.056.125C.991.125.927.13.862.131A1.684,1.684,0,0,0,.675.15C.614.158.556.17.5.178S.388.2.341.21C.237.228.163.251.1.264L0,.283S.017.27.051.247A.749.749,0,0,1,.217.155C.258.138.3.118.357.1S.479.067.548.051.7.024.784.014A1.94,1.94,0,0,1,1.054,0a2.677,2.677,0,0,1,.269.013A2.273,2.273,0,0,1,1.56.049a1.735,1.735,0,0,1,.337.1A.518.518,0,0,1,2.1.283Z" transform="translate(7.379 14.133)" fill="#e89b8d"/>
      <path id="Path_1374" data-name="Path 1374" d="M0,.31S.015,1.331.954,1.331,2.334.485,1.808.212A1.7,1.7,0,0,0,0,.31Z" transform="translate(7.535 15.021)" fill="#fff"/>
      <path id="Path_1375" data-name="Path 1375" d="M2.074.646S2.044.624,1.992.589a2.483,2.483,0,0,0-.22-.132C1.727.432,1.677.408,1.625.384A1.733,1.733,0,0,0,1.459.32L1.37.3C1.339.287,1.307.285,1.276.277A1.347,1.347,0,0,0,1.087.257,1.648,1.648,0,0,0,.892.264,1.218,1.218,0,0,0,.7.292C.639.309.576.319.517.334S.407.37.353.385A1.111,1.111,0,0,0,.212.432C.172.447.133.459.1.469.04.49,0,.5,0,.5S.023.473.066.428C.088.406.114.379.148.35A.625.625,0,0,1,.265.258c.046-.031.1-.064.155-.1a1.343,1.343,0,0,1,.2-.084A1.526,1.526,0,0,1,.847.018,1.723,1.723,0,0,1,1.1,0a1.363,1.363,0,0,1,.253.036,1.1,1.1,0,0,1,.226.081,1,1,0,0,1,.182.11.86.86,0,0,1,.134.121.77.77,0,0,1,.09.11.759.759,0,0,1,.054.095A.4.4,0,0,1,2.074.646Z" transform="translate(7.492 14.843)" fill="#361f16"/>
      <path id="Path_1376" data-name="Path 1376" d="M1.049.6a.565.565,0,0,1-.524.6A.566.566,0,0,1,0,.6.566.566,0,0,1,.525,0,.565.565,0,0,1,1.049.6Z" transform="translate(8.285 14.924)" fill="#361f16"/>
      <path id="Path_1377" data-name="Path 1377" d="M0,.272s.013.9.806.9S1.97.425,1.525.186A1.392,1.392,0,0,0,0,.272Z" transform="translate(14.432 15)" fill="#fff"/>
      <path id="Path_1378" data-name="Path 1378" d="M1.746.568S1.721.548,1.677.517,1.567.445,1.5.4C1.458.379,1.415.359,1.372.337A1.339,1.339,0,0,0,1.231.282L1.156.259C1.13.252,1.1.25,1.077.243A1.267,1.267,0,0,0,.917.226,1.621,1.621,0,0,0,.753.231.885.885,0,0,0,.591.257C.539.272.487.281.437.293S.342.325.3.338A1.068,1.068,0,0,0,.179.379C.145.393.112.4.086.412L0,.439S.019.415.055.377C.074.357.1.332.124.307a.506.506,0,0,1,.1-.08C.263.2.306.17.354.141A1.409,1.409,0,0,1,.52.068,1.243,1.243,0,0,1,.713.015,1.512,1.512,0,0,1,.927,0a1.041,1.041,0,0,1,.212.032A.909.909,0,0,1,1.33.1a.827.827,0,0,1,.153.1.762.762,0,0,1,.11.11.7.7,0,0,1,.077.1.731.731,0,0,1,.045.084A.359.359,0,0,1,1.746.568Z" transform="translate(14.397 14.843)" fill="#361f16"/>
      <path id="Path_1379" data-name="Path 1379" d="M.881.539a.5.5,0,0,1-.44.538A.5.5,0,0,1,0,.539.5.5,0,0,1,.44,0,.5.5,0,0,1,.881.539Z" transform="translate(15.021 14.872)" fill="#361f16"/>
      <path id="Path_1380" data-name="Path 1380" d="M1.564.283s-.1-.035-.247-.077A2.553,2.553,0,0,0,1.069.149C1.024.142.977.133.929.13A1.048,1.048,0,0,0,.785.124C.738.124.689.13.642.131A.972.972,0,0,0,.5.15C.457.157.414.17.37.177S.292.2.253.209C.176.228.121.251.074.263L0,.283S.012.27.037.247A.593.593,0,0,1,.161.154.942.942,0,0,1,.271.1C.316.083.362.066.413.051A1.254,1.254,0,0,1,.589.013,2,2,0,0,1,.789,0a1.494,1.494,0,0,1,.2.013,1.329,1.329,0,0,1,.177.035,1.046,1.046,0,0,1,.25.1A.41.41,0,0,1,1.564.283Z" transform="translate(14.476 14.133)" fill="#e89b8d"/>
      <path id="Path_1381" data-name="Path 1381" d="M0,0,.273.044.549.088c.1.014.207.03.314.04.054,0,.11.012.16.013a.877.877,0,0,0,.152,0A1.162,1.162,0,0,0,1.317.133.681.681,0,0,0,1.441.112a.391.391,0,0,0,.1-.033A.237.237,0,0,0,1.617.042L1.68,0s-.014.022-.045.062A.22.22,0,0,1,1.57.124a.354.354,0,0,1-.1.061L1.406.214l-.07.019A.74.74,0,0,1,1.182.26a1.677,1.677,0,0,1-.33,0,2.473,2.473,0,0,1-.6-.143A1.744,1.744,0,0,1,0,0Z" transform="translate(11.567 22.531)" fill="#e89b8d"/>
      <path id="Path_1382" data-name="Path 1382" d="M2.2,3.755a.675.675,0,0,0-.033-.11c-.014-.039-.023-.052-.042-.094-.052-.11-.1-.214-.143-.33L1.855,2.88c-.069-.233-.138-.469-.2-.708-.031-.119-.057-.239-.086-.359s-.055-.24-.083-.36L1.335.729,1.183,0c0,.249.021.5.043.744s.051.494.086.741.074.492.127.736c.024.122.053.243.081.366s.065.242.1.363a3.381,3.381,0,0,0,.122.36,3.246,3.246,0,0,0,.159.353.681.681,0,0,1,.034.075.516.516,0,0,1,.02.066.529.529,0,0,1,.012.15.56.56,0,0,1-.032.148l-.01.031L1.9,4.174a.439.439,0,0,1-.04.064.55.55,0,0,1-.242.185c-.023.007-.054.018-.072.021l-.092.019a.991.991,0,0,1-.178.026,1.007,1.007,0,0,1-.174.007,1.378,1.378,0,0,1-.177-.011A1.3,1.3,0,0,1,.586,4.4L.571,4.4h0a1.264,1.264,0,0,1-.207-.044.817.817,0,0,1-.1-.035.668.668,0,0,1-.092-.048A.413.413,0,0,1,.13,4.241L.092,4.207l-.031-.04L.041,4.121a.282.282,0,0,0-.01-.05.214.214,0,0,1,0-.053.412.412,0,0,1,.029-.11.386.386,0,0,0-.047.1A.243.243,0,0,0,0,4.066v.058l.018.058.029.052c.011.017.025.031.037.046a.307.307,0,0,0,.044.041.519.519,0,0,0,.1.067,1.146,1.146,0,0,0,.1.053,1.465,1.465,0,0,0,.206.07A1.451,1.451,0,0,0,.9,4.638a1.281,1.281,0,0,0,.195.029,1.349,1.349,0,0,0,.2,0,1.092,1.092,0,0,0,.195-.015l.092-.012a.734.734,0,0,0,.11-.026.786.786,0,0,0,.354-.248.992.992,0,0,0,.063-.092l.022-.041a.545.545,0,0,0,.025-.056.74.74,0,0,0,.051-.212A.811.811,0,0,0,2.2,3.755Z" transform="translate(11.746 14.954)" fill="#e89b8d"/>
      <path id="Path_1383" data-name="Path 1383" d="M6.042.534a.067.067,0,0,1,0,.01A1,1,0,0,1,5.8.952a3.3,3.3,0,0,1-.248.269L5.5,1.275a2.062,2.062,0,0,1-1.6.6,5.958,5.958,0,0,1-2.57-.771A5.108,5.108,0,0,1,.782.743L.763.73C.729.7.694.677.661.647h0A4.816,4.816,0,0,1,.189.214C.123.144.061.073,0,0A1.879,1.879,0,0,0,.476.274,5.787,5.787,0,0,0,2.03.714a16.483,16.483,0,0,0,2.347.07A7.3,7.3,0,0,0,6.042.534Z" transform="translate(8.91 19.956)" fill="#8e4e45"/>
      <path id="Path_1384" data-name="Path 1384" d="M6.042.53a.067.067,0,0,1,0,.01A1,1,0,0,1,5.8.948,8.108,8.108,0,0,1,.661.647h0A4.816,4.816,0,0,1,.189.214C.123.144.061.073,0,0A1.879,1.879,0,0,0,.476.274C2.21,1,6.042.53,6.042.53Z" transform="translate(8.91 19.961)" fill="#f6f6f6"/>
      <path id="Path_1385" data-name="Path 1385" d="M3.89.925,3.7,0,.538.238,0,1.344,1.034.925Z" transform="translate(6.387 12.181)" fill="#38302a"/>
      <path id="Path_1386" data-name="Path 1386" d="M0,.925.144,0,2.553.238l.408,1.106L2.175.925Z" transform="translate(14.064 12.181)" fill="#38302a"/>
      <path id="Path_1387" data-name="Path 1387" d="M0,.006V0Z" transform="translate(4.377 17.394)" fill="#38302a"/>
      <path id="Path_1388" data-name="Path 1388" d="M.224.6h0A.8.8,0,0,0,.068.956a4.194,4.194,0,0,0,.162,2.03C.705,5.7,1.919,9.768,1.919,9.768c1.132.083,1.93,1.389,2.341,2.26,0,.007.055.157.119.361a.014.014,0,0,1,0-.009c.274-.44.091-4.8.9-5.2h0l.031-.012L5.6,7.083a.588.588,0,0,0,.419-.561V2.6S1.633-1.5.224.6Z" transform="translate(0 4.998)" fill="#38302a"/>
      <path id="Path_1389" data-name="Path 1389" d="M18.8,10.6a5.252,5.252,0,0,1-.22.6c-.771,1.872-1.9,1.815-1.9,1.815l.083-1.513c-2.412.559-11.542-3.327-11.542-3.327a1.3,1.3,0,0,1-.661.11C2.79,8.17.292,5.211.292,5.211s-1.945-.183,4.2-4.016S15.133,3.863,16.478,5.212,19.56,8.115,18.8,10.6Z" transform="translate(0.788 0)" fill="#38302a"/>
      <path id="Path_1390" data-name="Path 1390" d="M16.94,5.153c-.771,1.872-1.9,1.815-1.9,1.815l.077-1.513C12.706,6.015,3.576,2.129,3.576,2.129,2.953,1.779.832.527,0,0,.193.11,7.221,3.984,13.6,2.9,15.069,2.65,17.27,3.3,16.94,5.153Z" transform="translate(2.436 6.054)" fill="#2b2521"/>
    </g>
  </g>
</svg>
