<svg xmlns="http://www.w3.org/2000/svg" width="23.606" height="21.981" viewBox="0 0 23.606 21.981">
  <g id="Group_1858" data-name="Group 1858" transform="translate(4380 9085)">
    <path id="Path_1391" data-name="Path 1391" d="M23.21,26.98,16.926,20.7h0v0l-2.664-2.664a3.56,3.56,0,0,0-4.921,0L.4,26.98a1.353,1.353,0,0,0,1.914,1.914l8.944-8.945a.8.8,0,0,1,1.095,0L21.3,28.894A1.353,1.353,0,1,0,23.21,26.98Z" transform="translate(-4380 -9102.047)" fill="#3497fd"/>
    <path id="Path_1392" data-name="Path 1392" d="M77.63,127.943a.664.664,0,0,0-.94,0l-7.868,7.866a.666.666,0,0,0-.195.471v5.737a2.438,2.438,0,0,0,2.438,2.438h3.9v-6.033h4.4v6.033h3.9a2.438,2.438,0,0,0,2.438-2.438v-5.737a.663.663,0,0,0-.195-.471Z" transform="translate(-4445.357 -9207.473)" fill="#3497fd"/>
  </g>
</svg>
