<svg xmlns="http://www.w3.org/2000/svg" width="16.285" height="16.285" viewBox="0 0 16.285 16.285">
  <g id="Group_12512" data-name="Group 12512" transform="translate(-31.274 -488.25)">
    <circle id="Ellipse_52" data-name="Ellipse 52" cx="2.464" cy="2.464" r="2.464" transform="translate(36.952 493.929)" stroke-width="1.5" stroke="#444f63" stroke-linecap="round" stroke-linejoin="round" fill="none"/>
    <path id="Path_199" data-name="Path 199" d="M13.366,10.409a1.109,1.109,0,0,0,.222,1.223l.04.04a1.345,1.345,0,1,1-1.9,1.9l-.04-.04a1.118,1.118,0,0,0-1.9.793v.114a1.344,1.344,0,0,1-2.688,0v-.06a1.109,1.109,0,0,0-.726-1.015,1.109,1.109,0,0,0-1.223.222l-.04.04a1.345,1.345,0,1,1-1.9-1.9l.04-.04a1.118,1.118,0,0,0-.793-1.9H2.344a1.344,1.344,0,1,1,0-2.688H2.4a1.109,1.109,0,0,0,1.015-.726A1.109,1.109,0,0,0,3.2,5.153l-.04-.04a1.345,1.345,0,1,1,1.9-1.9l.04.04a1.109,1.109,0,0,0,1.223.222h.054a1.109,1.109,0,0,0,.672-1.015V2.344a1.344,1.344,0,1,1,2.688,0V2.4a1.118,1.118,0,0,0,1.9.793l.04-.04a1.345,1.345,0,1,1,1.9,1.9l-.04.04a1.109,1.109,0,0,0-.222,1.223v.054a1.109,1.109,0,0,0,1.015.672h.114a1.344,1.344,0,1,1,0,2.688h-.06A1.109,1.109,0,0,0,13.366,10.409Z" transform="translate(31.024 488)" fill="none" stroke="#444f63" stroke-linecap="round" stroke-linejoin="round" stroke-width="1.5"/>
  </g>
</svg>
