<svg xmlns="http://www.w3.org/2000/svg" width="20.625" height="20.625" viewBox="0 0 20.625 20.625">
  <path id="path" d="M11.295,11.375,14.85,7.819a.937.937,0,0,0-1.326-1.326L8.368,11.65a.937.937,0,0,0,0,1.326l5.156,5.156a.938.938,0,0,0,1.326-1.326L11.295,13.25h10.4a.938.938,0,0,0,0-1.875Zm1.955-7.5A.937.937,0,1,0,13.25,2h-8.9A2.346,2.346,0,0,0,2,4.347V20.278a2.347,2.347,0,0,0,2.348,2.347h8.9a.938.938,0,1,0,0-1.875h-8.9a.472.472,0,0,1-.473-.472V4.347a.471.471,0,0,1,.473-.472Z" transform="translate(-2 -2)" fill="#1677cb"/>
</svg>
