<svg xmlns="http://www.w3.org/2000/svg" width="20.85" height="18.95" viewBox="0 0 20.85 18.95">
  <g id="Group_12511" data-name="Group 12511" transform="translate(-31.55 -436.55)">
    <path id="XMLID_150_" d="M3.5,29.9c.075,0,.146-.017.219-.022L2.676,29.24a1.585,1.585,0,0,1-.757-1.349l0-1.219A1.585,1.585,0,0,1,3.5,25.084h0a1.586,1.586,0,0,1,1.585,1.583V27l1.544.946A3.479,3.479,0,0,0,3.5,22.9a3.5,3.5,0,1,0,0,7Z" transform="translate(32 414.1)" fill="none" stroke="#444f63" stroke-width="0.9"/>
    <path id="XMLID_149_" d="M244.44,262.794a1.02,1.02,0,0,0-1.329.562l-2.292,5.651h-5.1a1.02,1.02,0,0,0,0,2.04h5.79a1.021,1.021,0,0,0,.946-.637L245,264.122A1.02,1.02,0,0,0,244.44,262.794Z" transform="translate(-193.229 183.954)" fill="none" stroke="#444f63" stroke-width="1"/>
    <path id="XMLID_148_" d="M68.749,97.491a.793.793,0,0,0-.793-.792h0a.793.793,0,0,0-.792.794l0,1.219a.8.8,0,0,0,.379.675l3.389,2.077a.793.793,0,0,0,.829-1.352L68.75,98.266Z" transform="translate(-32.454 343.277)" fill="none" stroke="#444f63" stroke-width="0.5"/>
    <path id="XMLID_147_" d="M23.505,223.431a1.275,1.275,0,0,0-1.275-1.275h-4.6l-3.149-3.036,1.364.858a2.563,2.563,0,0,0-2.558-2.464h-1.1a2.567,2.567,0,0,0-2.568,2.567v6.843a.74.74,0,0,0,.74.741h4.751a.74.74,0,0,0,.74-.741v-1.506a1.506,1.506,0,0,1-.333-.334l-2.811-4.128,3.519,3.394a1.276,1.276,0,0,0,.885.357H22.23A1.275,1.275,0,0,0,23.505,223.431Z" transform="translate(22.763 227.336)" fill="none" stroke="#444f63" stroke-width="1"/>
  </g>
</svg>
