<svg xmlns="http://www.w3.org/2000/svg" width="19.433" height="13" viewBox="0 0 19.433 13">
  <g id="Group_1875" data-name="Group 1875" transform="translate(0 0)">
    <path id="Path_1404" data-name="Path 1404" d="M17.11,76.087H2.323A2.326,2.326,0,0,0,0,78.41v8.354a2.326,2.326,0,0,0,2.323,2.323H17.11a2.326,2.326,0,0,0,2.323-2.323V78.41A2.326,2.326,0,0,0,17.11,76.087Zm1.038,10.677A1.039,1.039,0,0,1,17.11,87.8H2.323a1.039,1.039,0,0,1-1.038-1.038v-5.6H18.148v5.6Zm0-7.432H1.285V78.41a1.039,1.039,0,0,1,1.038-1.038H17.11a1.039,1.039,0,0,1,1.038,1.038Z" transform="translate(0 -76.087)" fill="#444f63"/>
    <path id="Path_1405" data-name="Path 1405" d="M62.966,298.917h3.519a.228.228,0,0,0,.228-.228v-.694a.228.228,0,0,0-.228-.228H62.966a.228.228,0,0,0-.228.228v.694A.228.228,0,0,0,62.966,298.917Z" transform="translate(-60.086 -288.394)" fill="#444f63"/>
    <path id="Path_1406" data-name="Path 1406" d="M313.188,251.72h1.047a1.094,1.094,0,0,0,1.094-1.094V249.58a1.094,1.094,0,0,0-1.094-1.094h-1.047a1.094,1.094,0,0,0-1.094,1.094v1.047A1.094,1.094,0,0,0,313.188,251.72Z" transform="translate(-298.9 -241.198)" fill="#444f63"/>
  </g>
</svg>
