<svg xmlns="http://www.w3.org/2000/svg" width="24.524" height="22.524" viewBox="0 0 24.524 22.524">
  <g id="Group_1860" data-name="Group 1860" transform="translate(4034 9841)">
    <path id="Path_1395" data-name="Path 1395" d="M487.5,454.379h7.445V450H487.5Zm2.628-3.5h3.941v.876h-3.941Zm0,1.752h3.941v.876h-3.941Zm-1.752-1.752h.876v.876h-.876Zm0,1.752h.876v.876h-.876Zm0,0" transform="translate(-4504.421 -10276.8)" fill="#444f63"/>
    <path id="Path_1396" data-name="Path 1396" d="M88.576,18.9V14.077a.421.421,0,0,1,.438-.4h5.255V10.458H82.445a.421.421,0,0,1-.438-.4V2.011a.421.421,0,0,1,.438-.4H94.269V.8a.825.825,0,0,0-.7-.788A.939.939,0,0,0,93.393,0H75.876A.842.842,0,0,0,75,.8V5.631h5.693a.421.421,0,0,1,.438.4V10.86a.421.421,0,0,1-.438.4H75v8.849H92.079a.421.421,0,0,1,.438.4v1.207a.879.879,0,0,0,1.752,0V19.306H89.014A.421.421,0,0,1,88.576,18.9ZM79.379.8h.876v.8h-.876ZM77.628.8H78.5v.8h-.876ZM75.876.8h.876v.8h-.876Zm0,2.413v-.8h5.255v.8ZM87.7,17.3a.421.421,0,0,1-.438.4H76.314a.421.421,0,0,1-.438-.4V12.469a.421.421,0,0,1,.438-.4H87.262a.421.421,0,0,1,.438.4Zm0,0" transform="translate(-4106.372 -9841)" fill="#444f63"/>
    <path id="Path_1397" data-name="Path 1397" d="M19.269,650H0v.876a.876.876,0,0,0,.876.876H19.5a1.739,1.739,0,0,1-.235-.876Zm0,0" transform="translate(-4034 -10470.228)" fill="#444f63"/>
    <path id="Path_1398" data-name="Path 1398" d="M125,404.379h10.072V400H125Zm9.2-.876h-2.19v-.876h2.19Zm-.876-2.628h.876v.876h-.876Zm-4.817,0h3.941v.876H128.5Zm-2.628,0h1.752v.876h-1.752Zm0,1.752h5.255v.876h-5.255Zm0,0" transform="translate(-4154.621 -10228.378)" fill="#444f63"/>
    <path id="Path_1399" data-name="Path 1399" d="M551.314,125.657a.657.657,0,1,1-.657-.657A.657.657,0,0,1,551.314,125.657Zm0,0" transform="translate(-4571.724 -9959.123)" fill="#444f63"/>
    <path id="Path_1402" data-name="Path 1402" d="M487.5,454.379h7.445V450H487.5Zm2.628-3.5h3.941v.876h-3.941Zm0,1.752h3.941v.876h-3.941Zm-1.752-1.752h.876v.876h-.876Zm0,1.752h.876v.876h-.876Zm0,0" transform="translate(-4521.204 -10284.778)" fill="#444f63"/>
    <path id="Path_1403" data-name="Path 1403" d="M125,408.036h13.967V400H125Zm12.753-1.607h-3.036v-1.607h3.036Zm-1.215-4.822h1.215v1.607h-1.215Zm-6.68,0h5.465v1.607h-5.465Zm-3.644,0h2.429v1.607h-2.429Zm0,3.215H133.5v1.607h-7.287Zm0,0" transform="translate(-4148.443 -10238.452)" fill="#444f63"/>
  </g>
</svg>
