<svg xmlns="http://www.w3.org/2000/svg" width="31.007" height="36.999" viewBox="0 0 31.007 36.999">
  <g id="Group_1931" data-name="Group 1931" transform="translate(-352.543 -69)">
    <g id="Group_1926" data-name="Group 1926" transform="translate(6.543 21)">
      <path id="Path_1" data-name="Path 1" d="M6672.74,6370v.67c.9,1.472.565,1.291,3.9,1.254.594,5.067,1.946,11.79,2.838,17.17.209,1.265.464,2.1,1.808,2.193,2.7.184,12.583,0,16.125,0,1.345,0,2.582.15,2.99-1.023.48-1.382-.53-2.171-1.742-2.2-5.307-.112-10.795.2-16.074-.008l-.3-1.583c1.471-.2,14.158-.049,16.781-.047,3.508,0,2.906-.441,3.551-4.844.19-1.3.779-6.66,1.135-7.438v-1.007c-1.077-1.621-1.682-1.18-5.1-1.18h-17.227c-.273,0-1.347.068-1.526-.136-.8-1.834.257-3.09-2.6-3.082C6673.407,6368.76,6673.756,6368.393,6672.74,6370Z" transform="translate(-6326.74 -6312.721)" fill="#444f63" fill-rule="evenodd"/>
      <path id="Path_2" data-name="Path 2" d="M10771.316,7610.391l5.69-.009.491-3.209-6.2-.023Z" transform="translate(-10403.954 -7544.7)" fill="#eee" fill-rule="evenodd"/>
      <path id="Path_3" data-name="Path 3" d="M8300.147,11008.37a2.4,2.4,0,1,0,1.484,4.559C8304.487,11012.051,8303.2,11007.365,8300.147,11008.37Z" transform="translate(-7943.972 -10928.065)" fill="#444f63" fill-rule="evenodd"/>
      <path id="Path_4" data-name="Path 4" d="M11082.748,11009.2a2.394,2.394,0,1,0,1.471,4.556C11087.135,11012.9,11085.781,11008.167,11082.748,11009.2Z" transform="translate(-10712.079 -10928.883)" fill="#444f63" fill-rule="evenodd"/>
      <path id="Path_5" data-name="Path 5" d="M10772.306,8537.423l5.021-.009.472-3.22-5.5-.024Z" transform="translate(-10404.946 -8466.892)" fill="#eee" fill-rule="evenodd"/>
      <path id="Path_6" data-name="Path 6" d="M8146.373,7609.921c.851.308,3.952.111,5.075.115l-.012-3.167-5.557,0Z" transform="translate(-7792.207 -7544.421)" fill="#eee" fill-rule="evenodd"/>
      <path id="Path_7" data-name="Path 7" d="M9533.95,8536.776l4.779.007.063-3.253-4.843.008Z" transform="translate(-9173.047 -8466.256)" fill="#eee" fill-rule="evenodd"/>
      <path id="Path_8" data-name="Path 8" d="M9533.028,7609.994l4.755,0,.087-3.239-4.851.006Z" transform="translate(-9172.122 -7544.312)" fill="#eee" fill-rule="evenodd"/>
      <path id="Path_9" data-name="Path 9" d="M8301.347,8537.518a21.676,21.676,0,0,0,4.231.126l-.034-3.18-4.7,0Z" transform="translate(-7946.36 -8467.181)" fill="#eee" fill-rule="evenodd"/>
    </g>
    <g id="Group_1930" data-name="Group 1930">
      <circle id="Ellipse_321" data-name="Ellipse 321" cx="8.5" cy="8.5" r="8.5" transform="translate(362 69)" fill="#8a56ac"/>
      <text id="_1" data-name="1" transform="translate(370 83)" fill="#eee" font-size="16" font-family="ArialMT, Arial" letter-spacing="0.07em"><tspan x="-4.449" y="0">1</tspan></text>
    </g>
  </g>
</svg>
