<svg xmlns="http://www.w3.org/2000/svg" width="9.285" height="13" viewBox="0 0 9.285 13">
  <path id="Icon" d="M4.664,13H4.637A4.815,4.815,0,0,1,0,8.069V5.353a.73.73,0,0,1,.688-.765h.689V2.675A2.554,2.554,0,0,1,3.781,0H5.5A2.554,2.554,0,0,1,7.91,2.675V4.588H8.941a.365.365,0,0,1,.344.383V8.078A4.745,4.745,0,0,1,4.664,13Zm.044-5.735A.986.986,0,0,0,3.779,8.3a.986.986,0,0,0,.929,1.032A.986.986,0,0,0,5.637,8.3.986.986,0,0,0,4.708,7.265ZM3.781,1.529a1.094,1.094,0,0,0-1.03,1.146V4.588H6.533V2.675A1.094,1.094,0,0,0,5.5,1.529Z" transform="translate(0 0)"/>
</svg>
