<svg xmlns="http://www.w3.org/2000/svg" width="16.301" height="16.301" viewBox="0 0 16.301 16.301">
  <g id="Group_12525" data-name="Group 12525" transform="translate(-229 -129)">
    <circle id="Ellipse_226" data-name="Ellipse 226" cx="8.15" cy="8.15" r="8.15" transform="translate(229 129)" fill="#8a56ac"/>
    <path id="Page_1" data-name="Page 1" d="M7.965,7.857H.5a.5.5,0,0,1-.5-.5V2.177a.5.5,0,0,1,.5-.5H1.775L2.527.264A.5.5,0,0,1,2.965,0H5.5a.5.5,0,0,1,.437.264l.753,1.409H7.965a.5.5,0,0,1,.5.5V7.355A.5.5,0,0,1,7.965,7.857ZM4.231,2.788A1.648,1.648,0,1,0,5.849,4.436,1.635,1.635,0,0,0,4.231,2.788Z" transform="translate(233 133)" fill="#fff"/>
  </g>
</svg>
