<svg id="Symbol_13_1" data-name="Symbol 13 – 1" xmlns="http://www.w3.org/2000/svg" width="67.832" height="67.832" viewBox="0 0 67.832 67.832">
  <path id="Path_3" data-name="Path 3" d="M33.916,6.03c9.044,0,10.175,0,13.566.377a17.479,17.479,0,0,1,6.406,1.131A13.235,13.235,0,0,1,60.3,13.943a17.479,17.479,0,0,1,1.131,6.406c0,3.392.377,4.522.377,13.566s0,10.175-.377,13.566A17.479,17.479,0,0,1,60.3,53.889,13.235,13.235,0,0,1,53.889,60.3a17.478,17.478,0,0,1-6.406,1.131c-3.392,0-4.522.377-13.566.377s-10.175,0-13.566-.377A17.479,17.479,0,0,1,13.943,60.3a13.235,13.235,0,0,1-6.406-6.406,17.479,17.479,0,0,1-1.131-6.406c0-3.392-.377-4.522-.377-13.566s0-10.175.377-13.566a17.479,17.479,0,0,1,1.131-6.406,13.535,13.535,0,0,1,2.638-3.768,6.371,6.371,0,0,1,3.768-2.638A17.479,17.479,0,0,1,20.35,6.406c3.392-.377,4.522-.377,13.566-.377m0-6.03C24.872,0,23.364,0,19.973.377a23.265,23.265,0,0,0-8.291,1.507,14.752,14.752,0,0,0-6.03,3.768,14.752,14.752,0,0,0-3.768,6.03C.754,13.943.377,16.2.377,19.973,0,23.364,0,24.872,0,33.916S0,44.468.377,47.859A23.265,23.265,0,0,0,1.884,56.15a14.752,14.752,0,0,0,3.768,6.03,14.752,14.752,0,0,0,6.03,3.768,23.265,23.265,0,0,0,8.291,1.507c3.392.377,4.9.377,13.943.377s10.552,0,13.943-.377a23.265,23.265,0,0,0,8.291-1.507,15.81,15.81,0,0,0,9.8-9.8,23.265,23.265,0,0,0,1.507-8.291c0-3.768.377-4.9.377-13.943s0-10.552-.377-13.943a23.265,23.265,0,0,0-1.507-8.291,14.752,14.752,0,0,0-3.768-6.03,14.752,14.752,0,0,0-6.03-3.768A23.265,23.265,0,0,0,47.859.377C44.468,0,42.96,0,33.916,0m0,16.581A17.056,17.056,0,0,0,16.581,33.916,17.335,17.335,0,1,0,33.916,16.581m0,28.64A11.1,11.1,0,0,1,22.611,33.916,11.1,11.1,0,0,1,33.916,22.611,11.1,11.1,0,0,1,45.221,33.916,11.1,11.1,0,0,1,33.916,45.221M52,11.682a4.145,4.145,0,1,0,4.145,4.145A4.182,4.182,0,0,0,52,11.682" transform="translate(0 0)" fill="#444f63" fill-rule="evenodd"/>
</svg>
