<svg xmlns="http://www.w3.org/2000/svg" width="19.37" height="23.018" viewBox="0 0 19.37 23.018">
  <path id="ic_rotate_left_24px" d="M7.766,10.156,6.052,8.429a9.632,9.632,0,0,0-1.982,4.73H6.526A7.216,7.216,0,0,1,7.766,10.156Zm-1.24,5.435H4.07a9.613,9.613,0,0,0,1.97,4.73l1.714-1.727a7.29,7.29,0,0,1-1.228-3ZM7.754,22.06A9.635,9.635,0,0,0,12.5,24.018V21.549A7.191,7.191,0,0,1,9.505,20.3L7.754,22.06ZM14.928,4.733V1L9.4,6.532l5.532,5.411V7.189a7.287,7.287,0,0,1,0,14.372v2.456a9.717,9.717,0,0,0,0-19.285Z" transform="translate(-4.07 -1)" fill="#3497fd"/>
</svg>
