<svg xmlns="http://www.w3.org/2000/svg" width="28.266" height="24.564" viewBox="0 0 28.266 24.564">
  <g id="Group_1956" data-name="Group 1956" transform="translate(0)">
    <path id="Path_1771" data-name="Path 1771" d="M155.651,197.2a.943.943,0,0,0,.94-.94V183.814l3.856,3.433a.944.944,0,1,0,1.254-1.411l-5.423-4.812a.924.924,0,0,0-1.27.031l-5.032,4.812a.942.942,0,0,0,1.3,1.364l3.417-3.276v12.32A.965.965,0,0,0,155.651,197.2Z" transform="translate(-141.404 -172.636)"/>
    <path id="Path_1772" data-name="Path 1772" d="M24.78,43.926a10.4,10.4,0,0,0-.266-3.636c-.564-2.179-2.179-5.063-6.615-6.4a7.785,7.785,0,0,0-6.458.549,10.208,10.208,0,0,0-4.075,5.627,7.253,7.253,0,0,0-4.4.972A6.486,6.486,0,0,0,.186,45.384a6.379,6.379,0,0,0,1.129,5.58,7.166,7.166,0,0,0,5.3,2.492H9.23a.94.94,0,0,0,0-1.881h-2.6a5.3,5.3,0,0,1-3.84-1.8,4.661,4.661,0,0,1-.752-4.013,4.641,4.641,0,0,1,1.928-3.135,5.916,5.916,0,0,1,3.887-.58.9.9,0,0,0,.721-.125.925.925,0,0,0,.408-.6c0-.031.784-3.668,3.433-5.251a5.983,5.983,0,0,1,4.953-.361A7.242,7.242,0,0,1,22.82,44.3a.941.941,0,0,0,.6,1.1c.157.047,3.683,1.364,2.806,4.279-.6,2.006-3.025,1.928-3.119,1.928H19.576a.94.94,0,0,0,0,1.881h3.652a4.881,4.881,0,0,0,4.812-3.276C29.012,46.967,26.629,44.851,24.78,43.926Z" transform="translate(0.001 -33.454)"/>
  </g>
</svg>
