<svg xmlns="http://www.w3.org/2000/svg" width="15" height="15" viewBox="0 0 15 15">
  <path id="Icon" d="M9.789,10.493l1.079-1.081a.335.335,0,0,1,.474,0L14.9,12.98a.336.336,0,0,1,0,.477l-.348.344a4.173,4.173,0,0,1-.93.692l-.067.037a3.8,3.8,0,0,1-1.356.457h-.01c-.153.017-3.7.349-8.1-4.058C.911,7.74-.262,5.39.048,2.818q.013-.12.035-.24A3.768,3.768,0,0,1,.489,1.472L.528,1.4A4.191,4.191,0,0,1,1.246.43L1.574.1a.334.334,0,0,1,.474,0L5.61,3.667a.336.336,0,0,1,0,.475l-.488.489-.592.592a.337.337,0,0,0-.036.432l.638.9A14.114,14.114,0,0,0,8.46,9.89l.9.639a.334.334,0,0,0,.431-.036" transform="translate(0 0)"/>
</svg>
