<svg xmlns="http://www.w3.org/2000/svg" width="16" height="13.511" viewBox="0 0 16 13.511">
  <g id="icon" transform="translate(1607.3 -4.179) rotate(180)" fill="none">
    <path d="M1597.541-4.4l-5.879-5.88a.749.749,0,0,1-.362-.642.748.748,0,0,1,.1-.378.744.744,0,0,1,.128-.171.751.751,0,0,1,.078-.068l5.932-5.932a.751.751,0,0,1,1.061,0,.751.751,0,0,1,0,1.061l-4.739,4.738h12.688a.75.75,0,0,1,.75.751.75.75,0,0,1-.75.75h-12.66l4.711,4.711a.751.751,0,0,1,0,1.061.749.749,0,0,1-.531.219A.749.749,0,0,1,1597.541-4.4Z" stroke="none"/>
    <path d="M 1598.071044921875 -4.178922176361084 C 1597.879150390625 -4.178922176361084 1597.687255859375 -4.252052307128906 1597.54052734375 -4.39830207824707 L 1591.66162109375 -10.27815246582031 C 1591.44482421875 -10.40957164764404 1591.299926757813 -10.64773178100586 1591.299926757813 -10.91970252990723 C 1591.299926757813 -11.05781173706055 1591.337158203125 -11.18710231781006 1591.402099609375 -11.29820251464844 C 1591.435546875 -11.35972213745117 1591.478271484375 -11.41758251190186 1591.530395507813 -11.46960258483887 C 1591.55517578125 -11.49447250366211 1591.581298828125 -11.51720237731934 1591.608520507813 -11.53786182403564 L 1597.54052734375 -17.46990203857422 C 1597.687255859375 -17.61615180969238 1597.879150390625 -17.68927764892578 1598.071166992188 -17.68927764892578 C 1598.263061523438 -17.68927764892578 1598.454956054688 -17.61615180969238 1598.601684570313 -17.46990203857422 C 1598.894165039063 -17.1765022277832 1598.894165039063 -16.70220184326172 1598.601684570313 -16.4088020324707 L 1593.862426757813 -11.67030239105225 L 1606.550415039063 -11.67030239105225 C 1606.964477539063 -11.67030239105225 1607.300170898438 -11.33460235595703 1607.300170898438 -10.91970252990723 C 1607.300170898438 -10.50570201873779 1606.964477539063 -10.17000198364258 1606.550415039063 -10.17000198364258 L 1593.890380859375 -10.17000198364258 L 1598.601684570313 -5.459402084350586 C 1598.894165039063 -5.16600227355957 1598.894165039063 -4.691701889038086 1598.601684570313 -4.39830207824707 C 1598.454956054688 -4.252052307128906 1598.263061523438 -4.178922176361084 1598.071044921875 -4.178922176361084 Z" stroke="none" fill="#fff"/>
  </g>
</svg>
