<svg id="Group_1857" data-name="Group 1857" xmlns="http://www.w3.org/2000/svg" width="104.015" height="87.095" viewBox="0 0 104.015 87.095">
  <g id="Group_1852" data-name="Group 1852" transform="translate(33.411 0)">
    <path id="Path_689" data-name="Path 689" d="M455.469,312.108c3.721,1.841,5.857,2.037,7.14,1.083a1.812,1.812,0,0,0,.237-.212c.054-.057.107-.119.156-.183a2.473,2.473,0,0,0,.493-1.082,5.209,5.209,0,0,0-.741-3.026c-.037-.068-.074-.137-.113-.207a15.717,15.717,0,0,0-1.955-3.026l-.672-.788,1.6-1.884.106-.084,1.009,1.061c.332.358.735.812,1.155,1.336l.16.2c1.485,1.891,3.127,4.6,2.806,7.055a4.613,4.613,0,0,1-.38,1.324c-.018.038-.036.076-.055.113a4.926,4.926,0,0,1-1.216,1.545c-.105.09-.214.178-.328.262a6.79,6.79,0,0,1-5.472.915,19.912,19.912,0,0,1-4.523-1.519Z" transform="translate(-430.961 -277.257)" fill="#4c5459"/>
    <path id="Path_690" data-name="Path 690" d="M514.768,271.355a2.092,2.092,0,0,1-1.708-2.111c-.037-1.272-.008-2.719.308-2.812a3.42,3.42,0,0,1,3.085,1.136,4.367,4.367,0,0,1-.63,3.1A1.246,1.246,0,0,1,514.768,271.355Z" transform="translate(-485.493 -243.96)" fill="#f9e2b4"/>
    <path id="Path_691" data-name="Path 691" d="M541.959,252.607l-.168,1.523-.588-.057.168-1.521a.3.3,0,0,1,.328-.26.287.287,0,0,1,.261.315Z" transform="translate(-513.287 -231.084)" fill="#f9e2b4"/>
    <path id="Path_692" data-name="Path 692" d="M530.775,246.723l-.193,1.747-.739-.071.193-1.747a.3.3,0,0,1,.328-.261l.148.014a.289.289,0,0,1,.264.317Z" transform="translate(-501.148 -225.68)" fill="#f9e2b4"/>
    <path id="Path_693" data-name="Path 693" d="M519.376,241.794l-.287,2.591-.74-.071.284-2.568a.386.386,0,0,1,.42-.336.35.35,0,0,1,.322.384Z" transform="translate(-488.783 -221.117)" fill="#f9e2b4"/>
    <path id="Path_694" data-name="Path 694" d="M508.176,249.157l-.634,2.46-.637-.151.615-2.4a.365.365,0,0,1,.437-.259.287.287,0,0,1,.219.348Z" transform="translate(-476.628 -227.887)" fill="#f9e2b4"/>
    <path id="Path_695" data-name="Path 695" d="M508.375,211.68l1.761.669-1.048,3.51-1.768-.158Z" transform="translate(-478.615 -193.887)" fill="#4ec7ea"/>
    <path id="Path_696" data-name="Path 696" d="M521.38,184.85l3.062-.977.544-4.337.423-2.674-2.561-1.373-.883,5.349Z" transform="translate(-495.069 -160.739)" fill="#bbe4ee"/>
    <path id="Path_697" data-name="Path 697" d="M526.41,228.944l3.062-.977.544-4.337-3.022,1.3Z" transform="translate(-500.099 -204.833)" fill="#84d2e6"/>
    <path id="Path_698" data-name="Path 698" d="M548.794,167.918l-1.547,9.908-.476.351-.62-.055-.24-.415,1.533-9.745.416-.442.668.06Z" transform="translate(-520.516 -153.439)" fill="#575e61"/>
    <path id="Path_699" data-name="Path 699" d="M507.32,220.837l.971-3.677.549.208-1.048,3.51Z" transform="translate(-477.318 -198.907)" fill="#25b0d7"/>
    <ellipse id="Ellipse_237" data-name="Ellipse 237" cx="14.627" cy="1.932" rx="14.627" ry="1.932" transform="translate(5.494 83.231)" fill="#14769a"/>
    <path id="Path_700" data-name="Path 700" d="M597.467,691.79c-.252.048-1.91.36-3.9.683-.363.06-.74.119-1.12.177-.115.02-.229.036-.345.055l-.767.114c-.114.014-.229.032-.344.047-2.335.329-4.544.546-5.148.3-1.415-.567-.756-5.766-.756-5.766v-.162h11.179l.841,3.091.225.825C597.378,691.362,597.427,691.574,597.467,691.79Z" transform="translate(-572.47 -629.474)" fill="#1d1a28"/>
    <path id="Path_701" data-name="Path 701" d="M662.094,996.089c-.305-1.863-2.917-1.009-2.917-1.009l-2.122-.192c-.576.279-.538,1.059-.519,1.251l.015.077c-.02.517,2.122.45,3.474.711a4.326,4.326,0,0,0,1.675.024A.776.776,0,0,0,662.094,996.089Z" transform="translate(-643.126 -911.261)" fill="#241f1b"/>
    <path id="Path_702" data-name="Path 702" d="M662.216,993.827l-.018.008a32.387,32.387,0,0,1-3.514-.319c-.682-.062-1.548-.2-1.535-.552-.019-.194-.057-.973.519-1.253l2.121.193a3.3,3.3,0,0,1,2.178.084,1.341,1.341,0,0,1,.666,1.015A.758.758,0,0,1,662.216,993.827Z" transform="translate(-643.716 -908.352)" fill="#b53f24"/>
    <path id="Path_703" data-name="Path 703" d="M681.285,992.671l-.037-.025c-.018-.013-.041,0-.05.023l-.272.672a.057.057,0,0,0,.014.066l.038.025c.018.012.04,0,.05-.023l.272-.672A.057.057,0,0,0,681.285,992.671Z" transform="translate(-664.374 -909.205)" fill="#241f1b"/>
    <path id="Path_704" data-name="Path 704" d="M677.134,992.795l-.037-.025c-.018-.012-.04,0-.05.023l-.272.672a.057.057,0,0,0,.013.066l.038.025c.018.013.04,0,.05-.023l.271-.672A.057.057,0,0,0,677.134,992.795Z" transform="translate(-659.875 -909.319)" fill="#241f1b"/>
    <path id="Path_705" data-name="Path 705" d="M657.994,994a1.418,1.418,0,0,1,1.362,1.429c-.185.3-.3.336-.3.336A1.521,1.521,0,0,0,657.994,994Z" transform="translate(-640.499 -910.45)" fill="#e0462d"/>
    <path id="Path_706" data-name="Path 706" d="M672.762,738.88h-4.339s3.857,8.153.881,21.3a.305.305,0,0,0,.139.342,1.947,1.947,0,0,0,1.884-.038.274.274,0,0,0,.119-.172C671.775,758.94,674.9,745.7,672.762,738.88Z" transform="translate(-655.525 -676.774)" fill="#1d1a28"/>
    <path id="Path_707" data-name="Path 707" d="M573.7,981.205c-.305-1.863-2.918-1.009-2.918-1.009l-2.121-.2c-.577.279-.538,1.059-.519,1.252-.02.516,1.885.58,2.269.6s.163-.121,1.488.252a2.061,2.061,0,0,0,1.294.018A.912.912,0,0,0,573.7,981.205Z" transform="translate(-547.296 -897.627)" fill="#241f1b"/>
    <path id="Path_708" data-name="Path 708" d="M573.779,978.936l-.018.008a2.047,2.047,0,0,1-1.293-.018c-1.326-.374-1.1-.232-1.488-.252-.124-.007-.408-.019-.735-.049-.681-.062-1.547-.2-1.534-.552-.019-.194-.057-.973.52-1.253l2.121.192a3.3,3.3,0,0,1,2.177.084,1.34,1.34,0,0,1,.667,1.015A.757.757,0,0,1,573.779,978.936Z" transform="translate(-547.845 -894.714)" fill="#b53f24"/>
    <path id="Path_709" data-name="Path 709" d="M592.849,977.751l-.037-.025c-.018-.013-.04,0-.05.023l-.271.672a.056.056,0,0,0,.014.066l.037.025c.018.012.04,0,.05-.023l.271-.672A.055.055,0,0,0,592.849,977.751Z" transform="translate(-568.506 -895.539)" fill="#241f1b"/>
    <path id="Path_710" data-name="Path 710" d="M588.647,977.925l-.038-.025c-.018-.012-.04,0-.05.023l-.272.672a.057.057,0,0,0,.014.066l.037.025c.018.013.041,0,.05-.023l.272-.672A.058.058,0,0,0,588.647,977.925Z" transform="translate(-563.95 -895.699)" fill="#241f1b"/>
    <path id="Path_711" data-name="Path 711" d="M569.573,979.08a1.423,1.423,0,0,1,1.361,1.435c-.184.3-.3.336-.3.336A1.525,1.525,0,0,0,569.573,979.08Z" transform="translate(-544.646 -896.784)" fill="#e0462d"/>
    <path id="Path_712" data-name="Path 712" d="M583.352,745.438a.28.28,0,0,1-.119.168,1.947,1.947,0,0,1-1.885.037.3.3,0,0,1-.138-.342c2.077-9.17.825-15.912-.119-19.148a16.81,16.81,0,0,0-.756-2.143h4.3q.126.4.225.825c.051.206.1.42.137.634C586.369,732.556,583.662,744.163,583.352,745.438Z" transform="translate(-559.997 -663.154)" fill="#1d1a28"/>
    <path id="Path_713" data-name="Path 713" d="M650.421,694.947l-.344.056c.168-.733.736-3.625-.029-5.233l.292-.14C651.12,691.268,650.622,694.025,650.421,694.947Z" transform="translate(-631.239 -631.664)" fill="#0f0f1c"/>
    <path id="Path_714" data-name="Path 714" d="M635.834,692.907l-.344.056c.168-.733.736-3.625-.029-5.233l.293-.139C636.533,689.229,636.034,691.985,635.834,692.907Z" transform="translate(-615.426 -629.795)" fill="#0f0f1c"/>
    <rect id="Rectangle_118" data-name="Rectangle 118" width="4.893" height="7.448" transform="translate(15.372 27.682)" fill="#f4d79f"/>
    <path id="Path_715" data-name="Path 715" d="M646.133,329.34v4.04c-3.825.593-4.893-2.293-4.893-2.293V329.34Z" transform="translate(-625.868 -301.658)" fill="#f4cc8c"/>
    <path id="Path_716" data-name="Path 716" d="M591.329,690.114a7.226,7.226,0,0,1-1.389-2.8,4.062,4.062,0,0,0,.605-.076Z" transform="translate(-566.753 -629.474)" fill="#0f0f1c"/>
    <path id="Path_717" data-name="Path 717" d="M592.368,391.225c-.044,1-.145,2.5-.28,4.254-.538,7-1.6,18.111-1.6,18.111H579.279s.145-13.316-1.429-19.365a5.216,5.216,0,0,0-1.32-2.731v-.269s.023-.024.071-.068h0c.113-.107.354-.324.708-.6a12.659,12.659,0,0,1,3.385-1.865c.212-.077.431-.15.656-.216s.448-.125.681-.179a4.43,4.43,0,0,0,2.891,1.513h.028l.007.006,0-.006a2.18,2.18,0,0,0,1.974-1.468c.2.05.409.108.616.172s.42.136.635.216h0a13.919,13.919,0,0,1,3.334,1.832Q591.941,390.873,592.368,391.225Z" transform="translate(-566.665 -355.662)" fill="#e5e5e5"/>
    <path id="Path_718" data-name="Path 718" d="M609.015,675.89l-.109,1.116s-.582,1.167-3.537,1.447c-.16.014-.328.028-.5.037-.158.008-.315.013-.473.013a18.9,18.9,0,0,1-6.692-1.5V675.89Z" transform="translate(-585.091 -619.078)" fill="#e5e5e5"/>
    <path id="Path_719" data-name="Path 719" d="M693.73,395.672l4.791-4.567-1.138-1.226s-3.777.957-5.153,3.014A10.066,10.066,0,0,0,693.73,395.672Z" transform="translate(-682.543 -357.109)" fill="#4c5459"/>
    <path id="Path_720" data-name="Path 720" d="M575.391,391.955s4.639,3.884,5.159,5.915a19.607,19.607,0,0,0,.363-4.151,10.472,10.472,0,0,0-4.9-2.809A1.22,1.22,0,0,0,575.391,391.955Z" transform="translate(-555.126 -358.052)" fill="#4c5459"/>
    <path id="Path_721" data-name="Path 721" d="M640.027,388.521a.026.026,0,0,1,0,.008,2.8,2.8,0,0,1-2.628,1.94,5.274,5.274,0,0,1-3.572-1.981h0c.224-.064.443-.126.681-.177h0a4.429,4.429,0,0,0,2.891,1.513h.039a2.181,2.181,0,0,0,1.974-1.468s0-.006,0-.008C639.616,388.4,639.818,388.452,640.027,388.521Z" transform="translate(-619.139 -355.671)" fill="#e5e5e5"/>
    <path id="Path_722" data-name="Path 722" d="M583.544,89.38v1.859l-.02.252V91.5c-.007.084,0,.414,0,1.338v15.585a2.446,2.446,0,0,1-.266,1.1h0a3.134,3.134,0,0,1-1.306,1.324,14.234,14.234,0,0,1-4.6,1.589,9.138,9.138,0,0,1-6.793-1.552h0a23.184,23.184,0,0,1-4.449-5.775l-.01-.019a.054.054,0,0,0-.008-.016s-3.278,1.328-3.489-3.179c0,0-.19-2.667,1.523-2.1h2.3V89.38Z" transform="translate(-556.668 -81.867)" fill="#f9e2b4"/>
    <path id="Path_723" data-name="Path 723" d="M651.046,210.956a9.138,9.138,0,0,1-6.793-1.552h0a23.181,23.181,0,0,1-4.449-5.775l-.01-.019a.055.055,0,0,0-.008-.016s-3.278,1.328-3.489-3.179c0,0-.19-2.667,1.523-2.1h2.3V196.94a2.75,2.75,0,0,1,1.722.348S637.765,207.158,651.046,210.956Z" transform="translate(-630.365 -180.386)" fill="#f7d997"/>
    <path id="Path_724" data-name="Path 724" d="M780.947,231.436a.987.987,0,0,1-.449-.142.084.084,0,0,1,.076-.142c.175.1.405.183.514.069.173-.183.039-.821-.189-1.2a.271.271,0,0,1-.039-.286c.052-.089.174-.13.375-.123a.247.247,0,0,0,.22-.1.176.176,0,0,0-.011-.2c-.279-.379-.814-.99-1.268-.821a.518.518,0,0,0-.36.317.667.667,0,0,0,.161.5.084.084,0,1,1-.122.1.833.833,0,0,1-.2-.651.654.654,0,0,1,.459-.428c.525-.2,1.079.368,1.453.876a.336.336,0,0,1,.018.386.4.4,0,0,1-.361.179c-.2-.007-.229.038-.231.043a.225.225,0,0,0,.037.12c.2.336.439,1.105.168,1.39A.336.336,0,0,1,780.947,231.436Z" transform="translate(-773.012 -209.104)" fill="#e0ba6e"/>
    <path id="Path_725" data-name="Path 725" d="M689.805,285.18a1.507,1.507,0,0,0-.15.079c-.021.014-.045.027-.068.045a.765.765,0,0,0-.07.055c-.024.018-.043.044-.066.065a.539.539,0,0,0-.055.077l-.023.041-.016.044a.465.465,0,0,0-.023.088.758.758,0,0,0-.005.084.475.475,0,0,0,.006.079.329.329,0,0,0,.01.068.209.209,0,0,0,.012.052c.006.03.008.047.008.047l-.023-.041-.025-.05a.272.272,0,0,1-.024-.067.362.362,0,0,1-.02-.084.465.465,0,0,1,0-.1.379.379,0,0,1,.018-.1l.019-.052.026-.049a.565.565,0,0,1,.066-.084.552.552,0,0,1,.084-.068.448.448,0,0,1,.084-.05.532.532,0,0,1,.078-.035A.613.613,0,0,1,689.805,285.18Z" transform="translate(-673.578 -261.209)" fill="#f9df9d"/>
    <path id="Path_726" data-name="Path 726" d="M752.623,79.277c.125.321,0,4.83,0,7.086,0,8.268-.883,5.127-.883,5.127s-1.364-3.255-3.371-3.629c0,0-2.606-8.231-2.367-10.439S751.741,77.018,752.623,79.277Z" transform="translate(-741.219 -69.996)" fill="#38302a"/>
    <path id="Path_727" data-name="Path 727" d="M623.518,274.7s2.38.462,2.825-.424C626.47,275.194,624.822,276.07,623.518,274.7Z" transform="translate(-604.595 -251.226)" fill="#f7d589"/>
    <path id="Path_728" data-name="Path 728" d="M681.134,214.453a2.979,2.979,0,0,0-.447-.305,2.629,2.629,0,0,0-.5-.21,2.29,2.29,0,0,0-.3-.064,1.727,1.727,0,0,0-.31-.023,2.253,2.253,0,0,0-.31.021c-.1.019-.2.038-.3.066s-.182.062-.271.1a2.23,2.23,0,0,0-.229.113,3,3,0,0,0-.336.211c-.084.058-.131.1-.131.1a.823.823,0,0,1,.052-.084,1.009,1.009,0,0,1,.2-.223,2.132,2.132,0,0,1,.2-.149,2.645,2.645,0,0,1,.289-.15,2.1,2.1,0,0,1,.83-.168,2.148,2.148,0,0,1,.448.046,2.056,2.056,0,0,1,.385.118,1.777,1.777,0,0,1,.492.3C681.115,214.345,681.134,214.455,681.134,214.453Z" transform="translate(-663.96 -195.719)" fill="#f7d589"/>
    <path id="Path_729" data-name="Path 729" d="M584.247,212.33a2.687,2.687,0,0,0-.47-.214,2.346,2.346,0,0,0-.5-.11,2,2,0,0,0-.284-.005,1.44,1.44,0,0,0-.286.038,1.773,1.773,0,0,0-.277.084,2.582,2.582,0,0,0-.252.121c-.076.045-.153.1-.226.146a1.855,1.855,0,0,0-.185.156,2.638,2.638,0,0,0-.259.272c-.062.072-.1.118-.1.118a.8.8,0,0,1,.03-.09,1.022,1.022,0,0,1,.138-.258,1.757,1.757,0,0,1,.146-.183,2.359,2.359,0,0,1,.231-.2,2.164,2.164,0,0,1,.321-.19,2.058,2.058,0,0,1,.4-.131,1.91,1.91,0,0,1,.79,0,1.653,1.653,0,0,1,.509.2A.724.724,0,0,1,584.247,212.33Z" transform="translate(-558.953 -194.033)" fill="#f7d589"/>
    <path id="Path_730" data-name="Path 730" d="M678.321,227.451s-.916-2.109-2.494-1.34a1.818,1.818,0,0,0-.827.971C676.031,226.545,676.36,226.144,678.321,227.451Z" transform="translate(-660.894 -206.951)" fill="#38302a"/>
    <path id="Path_731" data-name="Path 731" d="M578.06,227.3s.8-1.765,2.237-1.2c0,0,.623.277.757.757C580.049,226.331,579.559,226.336,578.06,227.3Z" transform="translate(-555.478 -206.987)" fill="#38302a"/>
    <path id="Path_732" data-name="Path 732" d="M610.379,292.146s-.01.266-.6.85l-.069.066a2.506,2.506,0,0,1-1.945.745,7.212,7.212,0,0,1-3.135-.948,6.4,6.4,0,0,1-.672-.449l-.024-.015a6.11,6.11,0,0,1-.706-.641c-.079-.084-.157-.176-.23-.264a2.322,2.322,0,0,0,.58.336C605.706,292.731,610.379,292.146,610.379,292.146Z" transform="translate(-586.9 -266.989)" fill="#f6f6f6"/>
    <path id="Path_733" data-name="Path 733" d="M665.4,292.682l-.1-.013a1.063,1.063,0,0,1-.131-.021c-.049-.013-.107-.024-.168-.04-.12-.035-.261-.084-.406-.142s-.3-.13-.446-.207a8.711,8.711,0,0,1-.846-.5c-.079-.084-.157-.176-.23-.264a2.32,2.32,0,0,0,.58.336c.161.115.348.24.541.357.141.084.287.162.425.23a3.762,3.762,0,0,0,.392.168c.059.02.115.035.163.05a1.086,1.086,0,0,0,.13.029Z" transform="translate(-646.966 -266.989)" fill="#f9df9d"/>
    <path id="Path_734" data-name="Path 734" d="M629.36,328.15l.356.055.359.057c.131.019.27.04.409.053.069.005.139.016.206.017s.135.009.2,0a1.29,1.29,0,0,0,.184-.01.9.9,0,0,0,.162-.027.53.53,0,0,0,.132-.044.324.324,0,0,0,.1-.05l.084-.055s-.019.029-.059.084a.3.3,0,0,1-.084.084.456.456,0,0,1-.132.084l-.084.037c-.029.01-.06.016-.091.024a1.011,1.011,0,0,1-.2.037,2.206,2.206,0,0,1-.434,0,3.227,3.227,0,0,1-.42-.077,3.065,3.065,0,0,1-.355-.112A2.167,2.167,0,0,1,629.36,328.15Z" transform="translate(-610.285 -300.568)" fill="#f7d589"/>
    <path id="Path_735" data-name="Path 735" d="M550.975,7.93s5.235,4.5,8.977,5.031a30.726,30.726,0,0,1-4.824-4.119c3.015,2.307,12.34,5.447,14.592,3.745,0,1.4,1.394-1.135,1.234-2.547S572.183.252,556.692,0c0,0-9.938.3-8.614,7.385C548.545,7.514,550.975,7.93,550.975,7.93Z" transform="translate(-542.861)" fill="#38302a"/>
    <path id="Path_736" data-name="Path 736" d="M674.037,189.717s.3-.807-.375-.941-3.076-.3-3.495,0a2,2,0,0,0-.608.941S673.636,189.582,674.037,189.717Z" transform="translate(-656.219 -172.756)" fill="#38302a"/>
    <path id="Path_737" data-name="Path 737" d="M573.307,189.717s-.261-.807.329-.941,2.695-.3,3.062,0a2.068,2.068,0,0,1,.532.941A37.994,37.994,0,0,0,573.307,189.717Z" transform="translate(-551.251 -172.756)" fill="#38302a"/>
    <path id="Path_738" data-name="Path 738" d="M579.25,74.628s5.253,4.161,10.793,4.707a53.1,53.1,0,0,1-8.49-3.89c-1.108-.87,6.4,3.5,11.292,4.2l-6.427-2.794S580.168,74.069,579.25,74.628Z" transform="translate(-567.37 -68.287)" fill="#49413a"/>
    <path id="Path_739" data-name="Path 739" d="M728.774,213.017l-6.284-.487a4.423,4.423,0,0,1,1.849,1.2l4.211.42Z" transform="translate(-715.339 -194.666)" fill="#293947"/>
    <g id="Group_27" data-name="Group 27" transform="translate(15.458 18.547)" opacity="0.5">
      <path id="Path_740" data-name="Path 740" d="M679.111,220.65l-1.141,3.387h.571l1.149-3.306Z" transform="translate(-677.97 -220.65)" fill="#f6f6f6"/>
      <path id="Path_741" data-name="Path 741" d="M670.557,223.06l-1,3.184h.5l.787-3.034Z" transform="translate(-668.419 -222.857)" fill="#f6f6f6"/>
    </g>
    <g id="Group_28" data-name="Group 28" transform="translate(24.081 18.436)" opacity="0.5">
      <path id="Path_742" data-name="Path 742" d="M576.531,219.33l-1.141,3.387h.571l1.148-3.306Z" transform="translate(-575.39 -219.33)" fill="#f6f6f6"/>
      <path id="Path_743" data-name="Path 743" d="M567.978,221.74l-1,3.184h.5l.787-3.034Z" transform="translate(-565.839 -221.537)" fill="#f6f6f6"/>
    </g>
    <path id="Path_744" data-name="Path 744" d="M653.979,213.281a.262.262,0,0,0-.16.347l.1.261a.263.263,0,0,0,.33.152c.089-.029.2-.066.336-.1l.32,1.405A2.147,2.147,0,0,0,656.85,217l1.08.07a2.13,2.13,0,0,0,2.163-1.475l.53-1.643.2-.349C658.158,212.051,654.917,212.962,653.979,213.281Zm6.052,1.191-.321,1a1.729,1.729,0,0,1-1.759,1.2l-1.08-.069a1.743,1.743,0,0,1-1.575-1.345l-.238-1.043a.39.39,0,0,1,.051-.294.384.384,0,0,1,.245-.168,7.756,7.756,0,0,1,4.455.252A.384.384,0,0,1,660.031,214.472Z" transform="translate(-641.616 -194.843)" fill="#374c60"/>
    <path id="Path_745" data-name="Path 745" d="M550.2,213.7l.2.345.555,1.631a2.068,2.068,0,0,0,2.126,1.429l1.041-.092a2.086,2.086,0,0,0,1.828-1.7l.272-1.412c.13.036.241.07.329.1a.252.252,0,0,0,.311-.16l.093-.263a.277.277,0,0,0-.011-.208.26.26,0,0,0-.153-.136C555.881,212.935,552.731,212.095,550.2,213.7Zm.986.377a7.211,7.211,0,0,1,4.287-.345.372.372,0,0,1,.241.163.4.4,0,0,1,.057.293l-.2,1.047a1.689,1.689,0,0,1-1.484,1.376l-1.041.092a1.681,1.681,0,0,1-1.721-1.158l-.336-.989A.388.388,0,0,1,551.186,214.073Z" transform="translate(-529.056 -194.863)" fill="#374c60"/>
    <path id="Path_746" data-name="Path 746" d="M623.48,219.34s1.869-.762,2.858.049a3.567,3.567,0,0,0,.238.814,3.263,3.263,0,0,0-2.883-.074A4.328,4.328,0,0,1,623.48,219.34Z" transform="translate(-604.818 -200.606)" fill="#374c60"/>
    <path id="Path_747" data-name="Path 747" d="M728.729,221.818c.016.075-.074.156-.2.183s-.242-.012-.258-.084.075-.156.2-.183S728.714,221.743,728.729,221.818Z" transform="translate(-715.781 -203.088)" fill="#f6f6f6"/>
    <path id="Path_748" data-name="Path 748" d="M553.46,220.224c-.01.076-.122.124-.252.108s-.224-.091-.215-.168.121-.124.252-.108S553.47,220.148,553.46,220.224Z" transform="translate(-525.779 -201.556)" fill="#f6f6f6"/>
    <path id="Path_749" data-name="Path 749" d="M551.939,306.219l.23-.283a6.51,6.51,0,0,1-1.655-2.279,5.335,5.335,0,0,1,1.036-5.647c1.621-2.061,3.221-2.737,5.7-4.128,3.866-2.175,8.168-5.5,6.724-11.812l-.436.1c1.367,5.764-2.55,9.192-6.472,11.394-2.19,1.231-4.455,2.5-5.8,4.221a5.69,5.69,0,0,0-1.08,6.028A6.759,6.759,0,0,0,551.939,306.219Z" transform="translate(-536.301 -258.361)" fill="#bbe4ee"/>
    <path id="Path_750" data-name="Path 750" d="M653.55,309.264c.023-.021.135.039.129-.216-.018-.583-.66-1.776-3.623-4.146-4.254-3.4-5.237-6.538-5.244-6.592l-.345.044c.007.056,1.009,3.329,5.372,6.819,3.936,3.149,3.473,4.008,3.467,4.016a.035.035,0,0,1,.011-.011Z" transform="translate(-633.686 -273.236)" fill="#bbe4ee"/>
    <path id="Path_751" data-name="Path 751" d="M535.344,64.1l-1.424,8.472.33-.332.168-.1,1.861-8.761Z" transform="translate(-506.993 -58.053)" fill="#cccbcb"/>
    <path id="Path_752" data-name="Path 752" d="M554.86,59.81l-19.323.618-1.617,1.978,2.595,12.4.459-.344.191-.383L535.753,63.7l.933-1.9,18.254-.964.935-.724Z" transform="translate(-526.59 -54.783)" fill="#cccbcb"/>
    <path id="Path_753" data-name="Path 753" d="M536.157,60.788l-1.423,2.481L536.8,74.464l-.282.344-2.595-12.4,1.617-1.978,19.323-.618,1.015.3Z" transform="translate(-526.59 -54.783)" fill="#989898"/>
    <path id="Path_754" data-name="Path 754" d="M535.363,63.38l-1.443,8.761.2.025,1.663-8.786Z" transform="translate(-506.496 -58.053)" fill="#989898"/>
    <path id="Path_755" data-name="Path 755" d="M765.9,234.11l-1.777.626.962,3.535,1.772-.115Z" transform="translate(-756.918 -214.432)" fill="#4ec7ea"/>
    <path id="Path_756" data-name="Path 756" d="M740.144,207.893l-3.038-1.051-.438-4.349-.358-2.683,2.594-1.31.754,5.369Z" transform="translate(-727.87 -181.815)" fill="#bbe4ee"/>
    <path id="Path_757" data-name="Path 757" d="M739.786,251.41l-3.038-1.051-.438-4.349,2.99,1.376Z" transform="translate(-727.512 -225.332)" fill="#84d2e6"/>
    <path id="Path_758" data-name="Path 758" d="M725.45,191.036l1.307,9.944.467.362.621-.04.25-.409-1.3-9.78-.406-.452-.669.044Z" transform="translate(-714.909 -174.634)" fill="#575e61"/>
    <path id="Path_759" data-name="Path 759" d="M781.015,242.939l-.881-3.7-.554.2.962,3.534Z" transform="translate(-772.378 -219.131)" fill="#25b0d7"/>
    <path id="Path_760" data-name="Path 760" d="M573.575,55.892l-.375-2.976,13.856-.226-1.175,2.281Z" transform="translate(-561.073 -48.261)" fill="#84d2e6"/>
    <path id="Path_761" data-name="Path 761" d="M573.2,52.812l.765,1.9,12.535-.849.563-1.177Z" transform="translate(-561.079 -48.261)" fill="#bbe4ee"/>
    <path id="Path_762" data-name="Path 762" d="M751.064,295c.3-2.454,2.548-4.67,4.444-6.131l.2-.155c.534-.4,1.033-.741,1.441-1.009l1.135-.7.005.01,1.247,2.253-.841.593a15.664,15.664,0,0,0-2.627,2.438l-.161.172a5.24,5.24,0,0,0-1.462,2.746,2.472,2.472,0,0,0,.205,1.17c.033.075.067.148.106.217a1.814,1.814,0,0,0,.176.267c1,1.242,3.1,1.586,7.131.732l-.146,2.942a19.584,19.584,0,0,1-4.723.342,6.736,6.736,0,0,1-5.034-2.249q-.133-.168-.252-.336a4.942,4.942,0,0,1-.783-1.8c-.009-.041-.017-.084-.025-.124A4.659,4.659,0,0,1,751.064,295Z" transform="translate(-751.03 -262.876)" fill="#4c5459"/>
    <path id="Path_763" data-name="Path 763" d="M757.01,262.56a2.011,2.011,0,0,0,1.563-2.11c-.042-1.213-.161-2.591-.478-2.662a3.443,3.443,0,0,0-2.986,1.261c-.125.672-.059,1.668,1.2,3.52Z" transform="translate(-747.877 -236.075)" fill="#f9e2b4"/>
    <path id="Path_764" data-name="Path 764" d="M759.013,241.7l.259,1.513.581-.092-.259-1.508a.3.3,0,0,0-.336-.24.287.287,0,0,0-.245.327Z" transform="translate(-749.487 -221.08)" fill="#f9e2b4"/>
    <path id="Path_765" data-name="Path 765" d="M770.244,235.743l.3,1.732.729-.116-.3-1.732a.3.3,0,0,0-.34-.24l-.145.024a.288.288,0,0,0-.242.333Z" transform="translate(-761.848 -215.597)" fill="#f9e2b4"/>
    <path id="Path_766" data-name="Path 766" d="M780.185,231.557l.44,2.569.729-.116-.436-2.546a.384.384,0,0,0-.44-.309.349.349,0,0,0-.293.4Z" transform="translate(-772.768 -211.721)" fill="#f9e2b4"/>
    <path id="Path_767" data-name="Path 767" d="M788.423,241.486l.777,2.417.622-.19-.757-2.359a.36.36,0,0,0-.449-.231.287.287,0,0,0-.194.362Z" transform="translate(-781.928 -220.841)" fill="#f9e2b4"/>
    <path id="Path_768" data-name="Path 768" d="M681.722,660.78l.828-2.9a.525.525,0,0,0-.384-.655l-2.49-.588a1.3,1.3,0,0,0-.733.182l-.4,3.12a.525.525,0,0,0,.376.594l2.162.6A.525.525,0,0,0,681.722,660.78Z" transform="translate(-665.44 -601.433)" fill="#989898"/>
    <path id="Path_769" data-name="Path 769" d="M686.954,662.792l.831-2.9a.525.525,0,0,0-.384-.655l-2.49-.588a.525.525,0,0,0-.637.42l-.5,2.882a.525.525,0,0,0,.376.594l2.162.6A.524.524,0,0,0,686.954,662.792Z" transform="translate(-671.114 -603.274)" fill="#cccbcb"/>
    <path id="Path_770" data-name="Path 770" d="M689.432,672.278l.933-3.339-3.192-.809-.564,3.254Z" transform="translate(-673.914 -611.971)" fill="#f6921e"/>
    <path id="Path_771" data-name="Path 771" d="M692.119,681.639l.708-2.553-3.116-.736-.432,2.487Z" transform="translate(-676.601 -621.332)" fill="#f4d345"/>
    <path id="Path_772" data-name="Path 772" d="M687.905,697.292s-1.045,3.94-4.168,2.452a12.616,12.616,0,0,1-.021-3.313Z" transform="translate(-671.203 -637.892)" fill="#0f0f1c"/>
    <path id="Path_773" data-name="Path 773" d="M669.609,566.283l.23-.283a6.939,6.939,0,0,1,2,3.739,5.025,5.025,0,0,1-.483,2.421c-1.306,2.658-.929,1.994-.929,1.994l-.42-.1a13.863,13.863,0,0,0,.747-1.414,6.044,6.044,0,0,0,.616-3.487A7.358,7.358,0,0,0,669.609,566.283Z" transform="translate(-653.972 -518.425)" fill="#bbe4ee"/>
  </g>
  <g id="Group_1853" data-name="Group 1853" transform="translate(60.974 65.593)">
    <ellipse id="Ellipse_240" data-name="Ellipse 240" cx="6.837" cy="0.765" rx="6.837" ry="0.765" transform="translate(0 12.093)" fill="#3db991"/>
    <path id="Path_782" data-name="Path 782" d="M190.25,809.547l-3.024-1.023-2.465-2.035-.321-4.914.745-.214.976-2.664,1.041-.226.637-2.432,5.6.17.421,1.84.647.032.876,2.4.954-.063.45,2.269-1.869,5.522Z" transform="translate(-181.78 -796.04)" fill="#127c5b"/>
    <path id="Path_783" data-name="Path 783" d="M209.268,848.032l-2.544-.9.034-.69-.243.442-2.1-1.551-.183-3.748.389.02.331,2.51.481-.136.4-4.366.512.111-.2,4.117.7-1,.748-2.88.507.2.514,4.995.606-.013.4-4.258.537.156.874,4.213.373-.133.831-3.264.413.408,1.247,4.513-3.03.978-.507-.676-.053.648Z" transform="translate(-201.046 -834.855)" fill="#0d5a45"/>
    <path id="Path_784" data-name="Path 784" d="M195.958,824.832l.923-2.072L196.729,821l-.59.144-.6,1.721-.226-4.2-.475-.024-.526,4.037,1.247.817Z" transform="translate(-182.95 -816.174)" fill="#0d5a45"/>
    <path id="Path_785" data-name="Path 785" d="M227.2,805.9l-.1-4.564-.343-.016-.091,1.832-.517-.458-.123-.568-.478.042-.148,3.039-.236-.574.035-.71-.389-.129.058,2.121,1.446.893.669.033Z" transform="translate(-216.599 -800.744)" fill="#0d5a45"/>
    <ellipse id="Ellipse_241" data-name="Ellipse 241" cx="6.837" cy="0.765" rx="6.837" ry="0.765" transform="translate(20.127 12.093)" fill="#3db991"/>
    <path id="Path_786" data-name="Path 786" d="M5.81,809.547l-3.024-1.023L.321,806.489,0,801.575l.745-.214.976-2.664,1.041-.226L3.4,796.04l5.6.17.422,1.84.646.032.876,2.4.954-.063.451,2.269-1.871,5.522Z" transform="translate(22.788 -796.04)" fill="#127c5b"/>
    <path id="Path_787" data-name="Path 787" d="M24.828,848.032l-2.544-.9.034-.69-.244.442-2.1-1.551-.183-3.748.389.02.33,2.51.482-.136.4-4.366.512.111-.2,4.117.7-1,.748-2.88.509.2.513,4.995.606-.013.4-4.258.537.156.873,4.213.374-.133.83-3.264.411.408,1.248,4.513-3.031.978-.506-.676-.053.648Z" transform="translate(3.523 -834.855)" fill="#0d5a45"/>
    <path id="Path_788" data-name="Path 788" d="M11.518,824.832l.923-2.072L12.289,821l-.59.144-.6,1.721-.226-4.2-.474-.024-.526,4.037,1.247.817Z" transform="translate(21.618 -816.174)" fill="#0d5a45"/>
    <path id="Path_789" data-name="Path 789" d="M42.762,805.9l-.1-4.564-.344-.016-.089,1.832-.517-.458-.124-.568-.477.042-.15,3.039-.236-.574.035-.71-.389-.129.058,2.121,1.446.893.669.033Z" transform="translate(-12.032 -800.744)" fill="#0d5a45"/>
  </g>
  <g id="Group_1854" data-name="Group 1854" transform="translate(5.654 65.593)">
    <ellipse id="Ellipse_240-2" data-name="Ellipse 240" cx="6.837" cy="0.765" rx="6.837" ry="0.765" transform="translate(0 12.093)" fill="#3db991"/>
    <path id="Path_782-2" data-name="Path 782" d="M190.25,809.547l-3.024-1.023-2.465-2.035-.321-4.914.745-.214.976-2.664,1.041-.226.637-2.432,5.6.17.421,1.84.647.032.876,2.4.954-.063.45,2.269-1.869,5.522Z" transform="translate(-181.78 -796.04)" fill="#127c5b"/>
    <path id="Path_783-2" data-name="Path 783" d="M209.268,848.032l-2.544-.9.034-.69-.243.442-2.1-1.551-.183-3.748.389.02.331,2.51.481-.136.4-4.366.512.111-.2,4.117.7-1,.748-2.88.507.2.514,4.995.606-.013.4-4.258.537.156.874,4.213.373-.133.831-3.264.413.408,1.247,4.513-3.03.978-.507-.676-.053.648Z" transform="translate(-201.046 -834.855)" fill="#0d5a45"/>
    <path id="Path_784-2" data-name="Path 784" d="M195.958,824.832l.923-2.072L196.729,821l-.59.144-.6,1.721-.226-4.2-.475-.024-.526,4.037,1.247.817Z" transform="translate(-182.95 -816.174)" fill="#0d5a45"/>
    <path id="Path_785-2" data-name="Path 785" d="M227.2,805.9l-.1-4.564-.343-.016-.091,1.832-.517-.458-.123-.568-.478.042-.148,3.039-.236-.574.035-.71-.389-.129.058,2.121,1.446.893.669.033Z" transform="translate(-216.599 -800.744)" fill="#0d5a45"/>
    <ellipse id="Ellipse_241-2" data-name="Ellipse 241" cx="6.837" cy="0.765" rx="6.837" ry="0.765" transform="translate(20.127 12.093)" fill="#3db991"/>
    <path id="Path_786-2" data-name="Path 786" d="M5.81,809.547l-3.024-1.023L.321,806.489,0,801.575l.745-.214.976-2.664,1.041-.226L3.4,796.04l5.6.17.422,1.84.646.032.876,2.4.954-.063.451,2.269-1.871,5.522Z" transform="translate(22.788 -796.04)" fill="#127c5b"/>
    <path id="Path_787-2" data-name="Path 787" d="M24.828,848.032l-2.544-.9.034-.69-.244.442-2.1-1.551-.183-3.748.389.02.33,2.51.482-.136.4-4.366.512.111-.2,4.117.7-1,.748-2.88.509.2.513,4.995.606-.013.4-4.258.537.156.873,4.213.374-.133.83-3.264.411.408,1.248,4.513-3.031.978-.506-.676-.053.648Z" transform="translate(3.523 -834.855)" fill="#0d5a45"/>
    <path id="Path_788-2" data-name="Path 788" d="M11.518,824.832l.923-2.072L12.289,821l-.59.144-.6,1.721-.226-4.2-.474-.024-.526,4.037,1.247.817Z" transform="translate(21.618 -816.174)" fill="#0d5a45"/>
    <path id="Path_789-2" data-name="Path 789" d="M42.762,805.9l-.1-4.564-.344-.016-.089,1.832-.517-.458-.124-.568-.477.042-.15,3.039-.236-.574.035-.71-.389-.129.058,2.121,1.446.893.669.033Z" transform="translate(-12.032 -800.744)" fill="#0d5a45"/>
  </g>
  <path id="Path_1082" data-name="Path 1082" d="M539.967,474.435s5.716-.19,6.469,3.523h-17.86s-10.423-.055-11.174-4.417,5.566-6.477,7.672-1.966c0,0-1.226-6.351,5.63-6.335s1.184,7.539,1.184,7.539S539.816,467.515,539.967,474.435Z" transform="translate(-442.421 -448.999)" fill="#fff"/>
  <path id="Path_1083" data-name="Path 1083" d="M256.039,593.218s7.276-.24,8.233,4.477H241.541s-13.265-.071-14.231-5.633,7.083-8.233,9.766-2.49c0,0-1.562-8.082,7.163-8.062s1.509,9.594,1.509,9.594S255.856,584.418,256.039,593.218Z" transform="translate(-227.23 -577.967)" fill="#fff"/>
</svg>
