<svg id="Слой_1" data-name="Слой 1" xmlns="http://www.w3.org/2000/svg" xmlns:xlink="http://www.w3.org/1999/xlink" width="364.897" height="256.661" viewBox="0 0 364.897 256.661">
  <defs>
    <linearGradient id="linear-gradient" y1="0.5" x2="1" y2="0.5" gradientUnits="objectBoundingBox">
      <stop offset="0" stop-color="#40d5e6"/>
      <stop offset="1" stop-color="#57f"/>
    </linearGradient>
  </defs>
  <path id="Path_826" data-name="Path 826" d="M456.768,22.067a24.345,24.345,0,0,0-2.579-6.224l2.628-3.952-3.645-3.645L449.526,4.6l-3.952,2.628a24.346,24.346,0,0,0-6.224-2.579L438.416,0H428.1l-.934,4.649a24.346,24.346,0,0,0-6.224,2.579L416.991,4.6l-3.645,3.645L409.7,11.891l2.628,3.952a24.346,24.346,0,0,0-2.579,6.224L405.1,23V33.316l4.649.934a24.241,24.241,0,0,0,2.579,6.224L409.7,44.426l3.645,3.666,3.645,3.645,3.952-2.628a24.4,24.4,0,0,0,6.224,2.586l.934,4.642h10.316l.934-4.642a24.4,24.4,0,0,0,6.224-2.586l3.952,2.628,3.645-3.645,3.645-3.645L454.189,40.5a24.242,24.242,0,0,0,2.579-6.224l4.649-.934V23Zm-23.51,24.158a18.066,18.066,0,1,1,18.066-18.066A18.066,18.066,0,0,1,433.259,46.225Z" transform="translate(-122.748)" fill="#73c0ff"/>
  <path id="Path_827" data-name="Path 827" d="M479.036,90.17a10.928,10.928,0,0,0-1.178-2.851l1.206-1.812-1.673-1.673-1.673-1.673-1.784,1.206a11.048,11.048,0,0,0-2.851-1.185l-.432-2.133h-4.726l-.432,2.133a11.047,11.047,0,0,0-2.851,1.185l-1.812-1.206-1.673,1.673-1.673,1.673,1.206,1.812a10.93,10.93,0,0,0-1.178,2.851l-2.133.425v4.754l2.133.425a11.076,11.076,0,0,0,1.178,2.858l-1.206,1.812,1.673,1.666,1.673,1.673,1.812-1.206a11.047,11.047,0,0,0,2.851,1.185l.432,2.133h4.726l.432-2.133a11.048,11.048,0,0,0,2.851-1.185l1.812,1.206,1.673-1.673,1.673-1.666-1.206-1.812a11.074,11.074,0,0,0,1.178-2.858l2.133-.425V90.6ZM468.26,101.246a8.287,8.287,0,1,1,8.28-8.28,8.287,8.287,0,0,1-8.28,8.28Z" transform="translate(-137.983 -24.256)" fill="#73c0ff"/>
  <rect id="Rectangle_1517" data-name="Rectangle 1517" width="25.364" height="77.039" transform="translate(216.605 230.168) rotate(180)" fill="#4da8f2"/>
  <rect id="Rectangle_1518" data-name="Rectangle 1518" width="219.01" height="154.503" rx="15.98" transform="translate(313.431 190.245) rotate(180)" fill="#b5deff"/>
  <rect id="Rectangle_1519" data-name="Rectangle 1519" width="201.857" height="146.731" transform="translate(304.851 166.031) rotate(180)" fill="#fff"/>
  <rect id="Rectangle_1520" data-name="Rectangle 1520" width="201.857" height="17.725" transform="translate(304.851 37.017) rotate(180)" fill="url(#linear-gradient)"/>
  <path id="Path_828" data-name="Path 828" d="M282.44,251.047A7.068,7.068,0,1,0,289.508,244a7.067,7.067,0,0,0-7.068,7.047Z" transform="translate(-85.581 -73.933)" fill="#4da8f2"/>
  <rect id="Rectangle_1521" data-name="Rectangle 1521" width="65.19" height="5.248" rx="2.624" transform="translate(233.87 54.881) rotate(180)" fill="#dfe1e8"/>
  <rect id="Rectangle_1522" data-name="Rectangle 1522" width="65.19" height="5.248" rx="2.624" transform="translate(233.87 64.347) rotate(180)" fill="#dfe1e8"/>
  <rect id="Rectangle_1523" data-name="Rectangle 1523" width="65.19" height="5.248" rx="2.624" transform="translate(233.87 73.819) rotate(180)" fill="#dfe1e8"/>
  <path id="Path_829" data-name="Path 829" d="M248.29,193.457H172.625a11.459,11.459,0,0,1-11.445-11.431v-46a11.459,11.459,0,0,1,11.445-11.445H248.29a11.459,11.459,0,0,1,11.445,11.445v46a11.459,11.459,0,0,1-11.445,11.431Zm-75.666-67.476a10.016,10.016,0,0,0-10.009,10.044v46a10.016,10.016,0,0,0,10.009,10.009H248.29A10.016,10.016,0,0,0,258.3,182.026v-46a10.016,10.016,0,0,0-10.009-10.009Z" transform="translate(-48.838 -37.748)" fill="#dfe1e8"/>
  <rect id="Rectangle_1524" data-name="Rectangle 1524" width="73.805" height="11.068" rx="5.534" transform="translate(198.518 104.138) rotate(180)" fill="#dfe1e8"/>
  <rect id="Rectangle_1525" data-name="Rectangle 1525" width="114.105" height="5.813" transform="translate(146.878 227.262)" fill="#b5deff"/>
  <path id="Path_830" data-name="Path 830" d="M390.526,139.087a16.4,16.4,0,0,1-11.243,15.585l-.3.1a16.428,16.428,0,1,1,11.542-15.682Z" transform="translate(-108.376 -37.165)" fill="#eef0f7"/>
  <path id="Path_831" data-name="Path 831" d="M375.584,140.642s-1.122-7.263,4.879-7.123,5.924,3.722,5.82,7.284-2.412,3.29.188,8.245S384.22,154,384.22,154l-3.757-5.165Z" transform="translate(-113.779 -40.456)" fill="#3c4145"/>
  <path id="Path_832" data-name="Path 832" d="M379.845,134.483s-4.07.641-4.231,6.426,1.1,7.012,4.663,5.813,4.684-7.263,4.767-8.2S385.337,133.786,379.845,134.483Z" transform="translate(-113.809 -40.723)" fill="#eea886"/>
  <path id="Path_833" data-name="Path 833" d="M385.516,160.877a3.924,3.924,0,0,1-2.279,3.631l-.3.1a16.456,16.456,0,0,1-12.176-.969c-.5-.99.216-2.391,1.673-4.544,1-1.478,1.986-2.99,3.659-3.722,2.481-.4,5.1-.418,6.97.627C384.478,156.827,385.453,158.34,385.516,160.877Z" transform="translate(-112.294 -47.002)" fill="#e55353"/>
  <path id="Path_834" data-name="Path 834" d="M373.515,159.318l-1.875,2.948a16.23,16.23,0,0,0,.342-1.756c.042-.244.084-.523.132-.829a1.9,1.9,0,0,1,.056-.272h0c.8-1.847,3.3-3.22,3.394-3.269Z" transform="translate(-112.609 -47.311)" fill="#e55353"/>
  <path id="Path_835" data-name="Path 835" d="M390.75,163.461a16.522,16.522,0,0,1-3.116,1.394l-.3.1c-.418-1.073-.774-2-.85-2.237a1.657,1.657,0,0,0-.153-.376,12.483,12.483,0,0,1-1.1-4.07c0-.92.3-1.673,1.227-1.889a2.377,2.377,0,0,1,.983-.035,2.9,2.9,0,0,1,1.972,1.938.1.1,0,0,0,0,.042,6.5,6.5,0,0,1,.369,1.31l.042.181c.063.23.174.7.314,1.241S390.527,162.555,390.75,163.461Z" transform="translate(-116.727 -47.363)" fill="#eea886"/>
  <path id="Path_836" data-name="Path 836" d="M383.329,148.3a31.1,31.1,0,0,0-.7,4.8s-4.977,1.882-4.468.815a4,4,0,0,0,.3-1.652,8.567,8.567,0,0,0-.049-1c0-.112,0-.174,0-.174S383.684,147.634,383.329,148.3Z" transform="translate(-114.575 -44.91)" fill="#eea886"/>
  <path id="Path_837" data-name="Path 837" d="M378.192,138.6s2.091,3.4,3.987,4.74.941,2.412.941,2.412,4.963-10.455.244-11.152-7.611-.781-7.744,6.273C375.62,140.877,377.76,138.542,378.192,138.6Z" transform="translate(-113.815 -40.691)" fill="#3c4145"/>
  <path id="Path_838" data-name="Path 838" d="M381.337,152a4.727,4.727,0,0,1-2.788,1.429h0a8.554,8.554,0,0,0-.049-1,5.674,5.674,0,0,0,2.837-.425Z" transform="translate(-114.688 -46.057)" fill="#a77860"/>
  <path id="Path_839" data-name="Path 839" d="M372.325,159.379h0a4.35,4.35,0,0,0-.2,1.122l.732-1.108s1.31-1.875,1.763-2.363a6.971,6.971,0,0,1,1.094-.92S373.113,157.351,372.325,159.379Z" transform="translate(-112.757 -47.302)" fill="#bd4444"/>
  <path id="Path_840" data-name="Path 840" d="M386.134,162.223a28.489,28.489,0,0,1,4.14-1.324s-.641-5.13-3.785-4.586S386.134,162.223,386.134,162.223Z" transform="translate(-116.655 -47.351)" fill="#e55353"/>
  <path id="Path_841" data-name="Path 841" d="M377.686,155.242s-2.342,3.61-1.547,3.924,5.088-.425,6.921-3.847a6.454,6.454,0,0,0-5.374-.077Z" transform="translate(-113.922 -46.873)" fill="#eea886"/>
  <rect id="Rectangle_1526" data-name="Rectangle 1526" width="25.594" height="2.342" transform="translate(65.376 187.846) rotate(-0.43)" fill="#323657"/>
  <rect id="Rectangle_1527" data-name="Rectangle 1527" width="25.594" height="2.342" transform="translate(88.76 189.285) rotate(-73)" fill="#323657"/>
  <rect id="Rectangle_1528" data-name="Rectangle 1528" width="2" height="61.531" transform="translate(134.994 193.047)" fill="#706865"/>
  <rect id="Rectangle_1529" data-name="Rectangle 1529" width="87.779" height="3.499" transform="translate(147.839 193.047) rotate(180)" fill="#b59074"/>
  <rect id="Rectangle_1530" data-name="Rectangle 1530" width="2" height="61.531" transform="translate(73.296 254.577) rotate(180)" fill="#706865"/>
  <rect id="Rectangle_1531" data-name="Rectangle 1531" width="2.398" height="30.305" transform="translate(31.177 214.172)" fill="#918783"/>
  <path id="Path_842" data-name="Path 842" d="M85.851,344.961a12.824,12.824,0,0,0,.453,2.9c.321,1.15.962,5.576,1.777,6.2s3.485,2.258,3.067,3.945-.7,2.865-3.562,1.868-4.747-1.568-5.3-4.07a15.64,15.64,0,0,0-2.091-4.774l-2.091,5.123-1.087-.439s1.645-5.527,1.506-6.022.753-4.879,4.182-5.973S85.851,344.961,85.851,344.961Z" transform="translate(-23.337 -104.059)" fill="#1d3b54"/>
  <path id="Path_843" data-name="Path 843" d="M114.655,347.555a12.936,12.936,0,0,0,1.506,2.516c.7.948,2.969,4.816,3.959,5.088s4.05.809,4.314,2.516.4,2.927-2.607,3.06-4.99.314-6.433-1.8a15.543,15.543,0,0,0-3.729-3.645V360.8h-1.192s-.544-5.736-.857-6.141-1.122-4.816,1.666-7.109S114.655,347.555,114.655,347.555Z" transform="translate(-33.107 -105.001)" fill="#1d3b54"/>
  <path id="Path_844" data-name="Path 844" d="M73,238.083s.7-2.37.739-2.683a4.963,4.963,0,0,1,1.485-1.568,5.771,5.771,0,0,1,2.314-1.1.85.85,0,0,1,.634.376,1.749,1.749,0,0,1,.321.809,1.045,1.045,0,0,1,.551.843.906.906,0,0,1,.4.92.76.76,0,0,1,.369.753,7.013,7.013,0,0,0-.8.913,14.191,14.191,0,0,1-3.1,2.426S73.962,241.212,73,238.083Z" transform="translate(-22.119 -70.518)" fill="#eea886"/>
  <path id="Path_845" data-name="Path 845" d="M77.19,237.7a5.1,5.1,0,0,1,.223,1.324c-.063.321,2.286.369,2.286.369S78.41,237.382,77.19,237.7Z" transform="translate(-23.389 -72.013)" fill="#cf8c6c"/>
  <path id="Path_846" data-name="Path 846" d="M38.978,244.258c.948-1.533,2.209-2.223,6.224.551s3.067,2.23,4.029,3.116A43.68,43.68,0,0,0,54.4,251a37.6,37.6,0,0,0,3.631-4.182c1.331-1.959,4.105-7.186,4.105-7.186l3.889,2.893s-7.555,13.71-9.145,14.721-6.336-.7-8.81-1.722-5.1-2.4-6.231-2.676S36.51,248.252,38.978,244.258Z" transform="translate(-11.579 -72.609)" fill="#1d3b54"/>
  <rect id="Rectangle_1532" data-name="Rectangle 1532" width="8.789" height="0.746" transform="translate(54.008 164.302) rotate(-77.63)" fill="#eb4747"/>
  <path id="Path_847" data-name="Path 847" d="M78.44,232.906s-1.959,1.673-1.729,2.028a.648.648,0,0,0,.53.335l-.495,1.059s.07.878,1.011.551c0,0,0,.829.85.4,0,0,.23.558.7.432a8.552,8.552,0,0,0,1.631-1.317s.146-.355-.369-.753a.9.9,0,0,0-.4-.92.99.99,0,0,0-.551-.843s0-1.122-.955-1.185A1.852,1.852,0,0,0,78.44,232.906Z" transform="translate(-23.238 -70.506)" fill="#db9c7c"/>
  <path id="Path_848" data-name="Path 848" d="M74.1,235.912a8.713,8.713,0,0,1,2.314-1.526c.223-.07.46-.1.613.077s.091.641-.453,1.185a6.474,6.474,0,0,0-1,1.492S74.86,237.536,74.1,235.912Z" transform="translate(-22.453 -71.003)" fill="#eea886"/>
  <path id="Path_849" data-name="Path 849" d="M65.716,256a9.034,9.034,0,0,0-.139-5.074,6.635,6.635,0,0,1-.648,3.924C64.224,256.032,65.716,256,65.716,256Z" transform="translate(-19.616 -76.033)" fill="#152c3d"/>
  <path id="Path_850" data-name="Path 850" d="M84.656,249.054s2.091-15.689,5.813-22.534H85.04s-6.085,10.72-4.942,21.537Z" transform="translate(-24.227 -68.637)" fill="#eddad3"/>
  <path id="Path_851" data-name="Path 851" d="M88.57,241.285s.613-1.157.767-1.533.76.279.7.76S88.57,241.285,88.57,241.285Z" transform="translate(-26.837 -72.612)" fill="#eea886"/>
  <path id="Path_852" data-name="Path 852" d="M92.249,244.217a2.642,2.642,0,0,1-.355.781s-.376.355-.634.627c-.077.091-.146.167-.181.216a4.879,4.879,0,0,1-1,1.213c-.544.439-2.614,1.784-2.614,1.784l-1.457-1.561-1.171-1.213s.99-3.715,1.443-4.182a1.13,1.13,0,0,1,.139-.125,6.274,6.274,0,0,1,1.136-.606c.091-.056,1.032-.578,1.331-.467a1.052,1.052,0,0,1,.7.739,2.53,2.53,0,0,1,1.066.871,1.561,1.561,0,0,1,.9,1.039S92.27,243.729,92.249,244.217Z" transform="translate(-25.707 -72.924)" fill="#eea886"/>
  <path id="Path_853" data-name="Path 853" d="M101.806,303.031s-3.583,8.071-6.147,13.828c-.425.969-.829,1.875-1.178,2.663l-.99,2.216c-1.624,3.673-5.639,11.661-5.639,11.661s-3.018.118-3.192-2.44c0,0,2.893-5.576,2.893-9.451s.53-15.39,4.252-17.871C96.349,300.612,99.3,300.034,101.806,303.031Z" transform="translate(-25.652 -91.221)" fill="#eea886"/>
  <path id="Path_854" data-name="Path 854" d="M53.447,280.657a4.183,4.183,0,0,0,1.394.927c.641.174,11.347.99,16.3,2.621s11.528,2.676,12.748,4.077,3.262,9.061,3.2,10.532,4.349,25.984,4.879,27.88c.293,1.018-3.987.627-3.987.627S81.9,312.83,80.6,310.154c-2.384-4.921-2.5-10.943-3.373-11.849s-10.594-3.025-16.184-3.025-18.122.467-19.439-.293-9.723-6.273-6.231-13.675S53.447,280.657,53.447,280.657Z" transform="translate(-10.463 -84.188)" fill="#eea886"/>
  <path id="Path_855" data-name="Path 855" d="M77.384,285.3l-8.866,17.1s-2.669-6.329-7.325-7.423-23.252-.5-23.252-.5S29.41,283.641,36.715,278s15.836.892,15.836.892,1.763,1.91,2.614,1.952C61.367,281.132,67.975,282.289,77.384,285.3Z" transform="translate(-10.229 -83.541)" fill="#1d3b54"/>
  <path id="Path_856" data-name="Path 856" d="M120.7,355.293s-2.7.7-3.736,0-4.551-6.621-5.715-6.97c0,0,1.129-2.293,3.987-.627C115.258,347.724,119.935,354.3,120.7,355.293Z" transform="translate(-33.709 -105.17)" fill="#eea886"/>
  <path id="Path_857" data-name="Path 857" d="M90.2,354.1s-2.788-.383-3.485-1.394-1.749-7.841-2.7-8.6c0,0,1.9-1.708,3.931.9C87.972,345,89.861,352.925,90.2,354.1Z" transform="translate(-25.459 -104.098)" fill="#eea886"/>
  <path id="Path_858" data-name="Path 858" d="M49.426,205a7.207,7.207,0,0,1,7.583,6.607,17.424,17.424,0,0,1-.537,2.718c-.369,1.192.7,4.719.418,4.879a7.721,7.721,0,0,1-1.436.4s-1.241,3.847-2.593,3.813a11.144,11.144,0,0,1-8.88-5.869C41.571,212.732,40.832,205.42,49.426,205Z" transform="translate(-12.841 -62.111)" fill="#eea886"/>
  <path id="Path_859" data-name="Path 859" d="M52,227.063s-.167.544-.355,1.345c-.1.4-.2.885-.286,1.394a9.507,9.507,0,0,0,0,4.133s-2.983,1.039-5.346-3.185c0,0,1.011-4.551-.307-7.311S52,227.063,52,227.063Z" transform="translate(-13.802 -67.494)" fill="#eea886"/>
  <path id="Path_860" data-name="Path 860" d="M56.778,211.242s-3.269,2.934-6.719,2.7-5.792,4.182-5.792,4.182-5.22-6.559-1.011-11.849S57.524,204.662,56.778,211.242Z" transform="translate(-12.61 -61.737)" fill="#1d3b54"/>
  <path id="Path_861" data-name="Path 861" d="M50.469,217.854a1.052,1.052,0,0,0-1.847-.753c-1.087.906.376,4.063,1.269,3.75S50.49,218.537,50.469,217.854Z" transform="translate(-14.616 -65.672)" fill="#eea886"/>
  <path id="Path_862" data-name="Path 862" d="M52.348,229.779c-.1.4-.2.885-.286,1.394a14.9,14.9,0,0,1-4.182-3.9,16.86,16.86,0,0,0,4.468,2.509Z" transform="translate(-14.508 -68.864)" fill="#a77860"/>
  <path id="Path_863" data-name="Path 863" d="M56.881,247.322c-.634,2.92-2.286,3.067-2.189,5.22s.746,2.342-.369,5.736a18.351,18.351,0,0,0-.509,2.007l-.042.251c-.077.39-.139.788-.188,1.178-.1.7-.174,1.394-.223,2.091a4.273,4.273,0,0,0,1.1,2.969s-10.894,6.517-18.373,5.639c0,0,1.938-8.141,3-10.936s.746-15.717-.042-18.491c-1.157-4.091,1.157-10.225,4.314-11.026l4.879,2.272s4.942,5.9,6.05,6.789S57.516,244.38,56.881,247.322Z" transform="translate(-10.935 -70.285)" fill="#1d3b54"/>
  <path id="Path_864" data-name="Path 864" d="M42.065,236.222c1.394-1.157,3.387-3.13,6.315.774s5.046,6.419,5.681,7.562,6.127,9.061,6.127,9.061,2.913-2.711,4.586-3.98c1.882-1.436,7-6.775,7-6.775l3.394,3.757s-11.758,13.048-13.577,13.5-6.907-4.119-8.928-5.9S45,245.987,44.01,245.36,38.455,239.226,42.065,236.222Z" transform="translate(-12.331 -71.111)" fill="#1d3b54"/>
  <path id="Path_865" data-name="Path 865" d="M99.4,319.961c-.425.969-.829,1.875-1.178,2.663-1.324-4.245-1.213-11.333-1.213-11.333a40.725,40.725,0,0,0,2.391,8.671Z" transform="translate(-29.394 -94.323)" fill="#a77860"/>
  <rect id="Rectangle_1533" data-name="Rectangle 1533" width="37.763" height="4.154" transform="translate(13.201 210.897)" fill="#b5deff"/>
  <path id="Path_866" data-name="Path 866" d="M46.251,283.56s-.948,3.847,3.534,4.726,9.995,1.993,9.995,8.908H44.23Z" transform="translate(-13.402 -85.92)" fill="#b5deff"/>
  <path id="Path_867" data-name="Path 867" d="M80.2,222.915l.641-1.185.084,1.345Z" transform="translate(-24.301 -67.185)" fill="#eea886"/>
  <path id="Path_868" data-name="Path 868" d="M13.2,284.147,0,228.666s23.865-3.729,26.709,6.97,7.521,42.517,13.243,44.524S13.2,284.147,13.2,284.147Z" transform="translate(0 -69.097)" fill="#b5deff"/>
  <path id="Path_869" data-name="Path 869" d="M60.252,264.632s-.244,1.018-.5,1.861L53.93,259Z" transform="translate(-16.341 -78.478)" fill="#152c3d"/>
  <path id="Path_870" data-name="Path 870" d="M42.1,217.4s2.293,6.064,1.673,7.716a5.109,5.109,0,0,0,2.927-5.5C46.045,215.645,42.1,217.4,42.1,217.4Z" transform="translate(-12.757 -65.757)" fill="#1d3b54"/>
  <path id="Path_871" data-name="Path 871" d="M51,234.057v-1.206l-5.1-2.481-1.763,2.035Z" transform="translate(-13.375 -69.803)" fill="#1d3b54"/>
  <path id="Path_872" data-name="Path 872" d="M78.169,361.142a1.979,1.979,0,1,1-1.979-1.972,1.98,1.98,0,0,1,1.979,1.972Z" transform="translate(-22.486 -108.831)" fill="#bfb2ac"/>
  <path id="Path_873" data-name="Path 873" d="M16.11,355.708l.495,1.408,21.126-6.545L36.72,347.72Z" transform="translate(-4.881 -105.361)" fill="#918783"/>
  <path id="Path_874" data-name="Path 874" d="M67.651,355.632l-.495,1.408L46.03,350.495l.927-3.025Z" transform="translate(-13.947 -105.285)" fill="#918783"/>
  <path id="Path_875" data-name="Path 875" d="M52.77,356.886v1.638l-6.74-8.029.927-3.025Z" transform="translate(-13.947 -105.285)" fill="#918783"/>
  <path id="Path_876" data-name="Path 876" d="M54.225,361.142a1.972,1.972,0,1,1-1.972-1.972,1.972,1.972,0,0,1,1.972,1.972Z" transform="translate(-15.235 -108.831)" fill="#bfb2ac"/>
  <circle id="Ellipse_318" data-name="Ellipse 318" cx="1.972" cy="1.972" r="1.972" transform="translate(9.256 250.333)" fill="#bfb2ac"/>
  <path id="Path_877" data-name="Path 877" d="M394.925,68.2a21.391,21.391,0,0,1-7.4,16.163c-.244.216-.495.425-.753.62s-.578.446-.878.7a21.279,21.279,0,0,1-9.723,3.764q-.941.112-1.924.146h-.7a14.121,14.121,0,0,1-2.049-.1,21.426,21.426,0,0,1-10.964-4.321,22.3,22.3,0,0,1-2.154-1.9l-.39-.4q-.7-.76-1.394-1.589A21.37,21.37,0,1,1,394.89,68.221Z" transform="translate(-106.703 -14.197)" fill="#eef0f7"/>
  <path id="Path_878" data-name="Path 878" d="M390.725,92.233l-1.575,5.66a21.279,21.279,0,0,1-9.723,3.764q-.941.112-1.924.146h-.7a14.12,14.12,0,0,1-2.049-.1,21.426,21.426,0,0,1-10.964-4.321c-.3-1.868-.627-3.938-.913-5.876,1.575-.585,6.573-2.279,9.758-3.353l.132-.042.2-.07.537-.181L374,87.7l1.269-.425h.1l4.238.321.7.056h.321c.258.07,1,.265,1.986.565h0C385.114,89.006,389.191,90.469,390.725,92.233Z" transform="translate(-109.955 -26.443)" fill="#d9c7c1"/>
  <path id="Path_879" data-name="Path 879" d="M381.768,62.225s5.088.857,4.231,8.824-5.36,7.263-5.66,7.249-4.517.1-4.74-9.639C375.6,68.658,375.537,61.458,381.768,62.225Z" transform="translate(-113.809 -18.837)" fill="#eea987"/>
  <path id="Path_880" data-name="Path 880" d="M384.744,81.583a18.522,18.522,0,0,0,.132,3.994c.307.711-4.07,2.976-6.817.4a27.946,27.946,0,0,0,.383-4.879C378.269,79.8,384.744,81.583,384.744,81.583Z" transform="translate(-114.554 -24.429)" fill="#eea987"/>
  <path id="Path_881" data-name="Path 881" d="M390.527,71.566s.565-.592.767,0-.906,3.29-.836,3.415c0,0-.1.23-.237.1a29.264,29.264,0,0,1,.307-3.52Z" transform="translate(-118.239 -21.605)" fill="#eea987"/>
  <path id="Path_882" data-name="Path 882" d="M375.34,71.251s-.544-.613-.767,0,.592,3.276.7,3.443c0,0,.181.272.314.153a29.171,29.171,0,0,0-.244-3.6Z" transform="translate(-113.486 -21.507)" fill="#eea987"/>
  <path id="Path_883" data-name="Path 883" d="M386.258,67.534c-.174,1.087-.342,1.9-.342,1.9l-.739.969a19.824,19.824,0,0,0-.07-2.474c-.042-.125-.091-.348-.146-.592-.084-.4-.174-.864-.23-1.011a11.408,11.408,0,0,0-8.162.258,6.292,6.292,0,0,1,0,.7c0,.425-.042.906-.244.976-.362.132-.209,2.5-.209,2.5l-.592-.7s-.174-1.234-.341-2.656h0a9.321,9.321,0,0,0-.112-1.011c-.091-1.394.056-4.029,1.917-5.576,1.262-.537,3.269-1,6.614,0a2.279,2.279,0,0,1,.983.258C386.7,63.414,386.258,67.534,386.258,67.534Z" transform="translate(-113.643 -18.249)" fill="#e8734d"/>
  <path id="Path_884" data-name="Path 884" d="M379.11,83.79a3.255,3.255,0,0,0,2.711,1.08,3.687,3.687,0,0,0,2.711-1.025,3.3,3.3,0,0,1-2.718,1.847A3.37,3.37,0,0,1,379.11,83.79Z" transform="translate(-114.872 -25.389)" fill="#c78d71"/>
  <path id="Path_885" data-name="Path 885" d="M377.32,87.98a5.576,5.576,0,0,0,3.959,2.6c1.638.139,3.06-1.938,3.729-2.962a9.932,9.932,0,0,0-7.688.362Z" transform="translate(-114.33 -26.365)" fill="#eea987"/>
  <path id="Path_886" data-name="Path 886" d="M386.245,86.8a14.009,14.009,0,0,1-3.255,2.788l1.394,2.126,2.349-4.182Z" transform="translate(-116.048 -26.301)" fill="#eddad3"/>
  <path id="Path_887" data-name="Path 887" d="M377.843,87.26a9.451,9.451,0,0,0,3.339,2.5l-1.519,2.2L377,88.124Z" transform="translate(-114.233 -26.44)" fill="#eddad3"/>
  <path id="Path_888" data-name="Path 888" d="M382.473,90.85l1.178,1.8a2.453,2.453,0,0,1-2.391-.042Z" transform="translate(-115.524 -27.528)" fill="#5073ab"/>
  <path id="Path_889" data-name="Path 889" d="M399.284,92.107l-.035.118c-.132.467-.627,2.237-1.276,4.593-.244.216-.495.425-.753.62s-.578.446-.878.7a21.279,21.279,0,0,1-9.723,3.764c.321-7.4,1.2-13.94,1.2-13.94.7.181,1.345.362,1.972.544h0a44.7,44.7,0,0,1,9.11,3.443h0Z" transform="translate(-117.148 -26.652)" fill="#323657"/>
  <path id="Path_890" data-name="Path 890" d="M371.546,101.778a21.223,21.223,0,0,1-8.74-3.987,22.3,22.3,0,0,1-2.154-1.9l-.39-.4c-.376-1.589-.62-2.628-.641-2.69h0s2.649-1.736,12-4.231h0C371.622,88.779,371.629,94.78,371.546,101.778Z" transform="translate(-108.967 -26.837)" fill="#323657"/>
  <path id="Path_891" data-name="Path 891" d="M382.776,93.422c-.091,1.952-.1,5.729-.07,10.044h-.7a14.123,14.123,0,0,1-2.049-.1,65.967,65.967,0,0,1,1.394-9.96c.1-.432.167-.648.167-.648l1.255.209Q382.776,93.185,382.776,93.422Z" transform="translate(-115.13 -28.107)" fill="#5073ab"/>
  <path id="Path_892" data-name="Path 892" d="M404.966,96.1a21.116,21.116,0,0,1-2.384,2.419c-.244.216-.495.425-.753.62l1.68-5.576h0a1.449,1.449,0,0,1,.328.328A10.33,10.33,0,0,1,404.966,96.1Z" transform="translate(-121.757 -28.349)" fill="#323657"/>
  <path id="Path_893" data-name="Path 893" d="M360.324,97.732l-.39-.4q-.7-.76-1.394-1.589a2.537,2.537,0,0,1,.7-1.108h0Z" transform="translate(-108.64 -28.673)" fill="#323657"/>
  <rect id="Rectangle_1534" data-name="Rectangle 1534" width="28.793" height="6.698" rx="3.349" transform="translate(111.428 24.813)" fill="#f5f7ff"/>
  <path id="Path_894" data-name="Path 894" d="M172.917,96.425A13.821,13.821,0,0,0,191.178,83.5v-.927a13.836,13.836,0,1,0-18.261,13.849Zm-5.931-13.243A10.371,10.371,0,0,1,187.1,79.773h0a10.231,10.231,0,0,1,.606,2.969c0,.23,0,.46,0,.7a10.371,10.371,0,0,1-20.736-.265Z" transform="translate(-49.549 -21.059)" fill="#78c2ff"/>
  <path id="Path_895" data-name="Path 895" d="M189.6,98.437l2.732,2.091A13.856,13.856,0,0,1,177,105.191l1.115-3.276a10.378,10.378,0,0,0,11.521-3.485Z" transform="translate(-53.632 -29.825)" fill="#1a598c"/>
  <path id="Path_896" data-name="Path 896" d="M197.24,88.448l3.485-.188v.927a13.717,13.717,0,0,1-2.893,8.294L195.1,95.39a10.3,10.3,0,0,0,2.168-6.21C197.254,88.908,197.254,88.678,197.24,88.448Z" transform="translate(-59.116 -26.743)" fill="#2273b5"/>
  <path id="Path_897" data-name="Path 897" d="M197.906,86.724a10.231,10.231,0,0,0-.606-2.969h0l3.255-1.185a13.94,13.94,0,0,1,.809,3.973Z" transform="translate(-59.783 -25.019)" fill="#2273b5"/>
  <path id="Path_898" data-name="Path 898" d="M171.38,72.275A13.835,13.835,0,0,1,192.722,78.6l-3.255,1.192h0a10.371,10.371,0,0,0-16.031-4.7Z" transform="translate(-51.929 -21.053)" fill="#4da8f2"/>
  <path id="Path_899" data-name="Path 899" d="M316.67,125.56h8.956a3.227,3.227,0,0,1,3.227,3.227v8.928a3.22,3.22,0,0,1-3.22,3.22H316.67a3.227,3.227,0,0,1-3.22-3.22V128.78A3.227,3.227,0,0,1,316.67,125.56Z" transform="translate(-94.977 -38.045)" fill="#78c2ff"/>
  <path id="Path_900" data-name="Path 900" d="M321.969,138.528l-3.9-3.4a.767.767,0,1,1,1.011-1.15l2.788,2.4L325.8,132a.76.76,0,0,1,1.08-.063.774.774,0,0,1,.056,1.087Z" transform="translate(-96.289 -39.918)" fill="#f3f3f3"/>
  <path id="Path_901" data-name="Path 901" d="M316.67,153.88h8.956a3.227,3.227,0,0,1,3.227,3.227v8.956a3.22,3.22,0,0,1-3.22,3.22H316.67a3.227,3.227,0,0,1-3.22-3.22V157.1a3.22,3.22,0,0,1,3.22-3.22Z" transform="translate(-94.977 -46.626)" fill="#78c2ff"/>
  <path id="Path_902" data-name="Path 902" d="M321.984,166.848l-3.9-3.394a.781.781,0,0,1-.07-1.087.767.767,0,0,1,1.08-.07l2.788,2.4,3.931-4.377a.76.76,0,0,1,1.08-.063.774.774,0,0,1,.056,1.087Z" transform="translate(-96.304 -48.499)" fill="#f3f3f3"/>
  <path id="Path_903" data-name="Path 903" d="M316.67,182.2h8.956a3.22,3.22,0,0,1,3.22,3.22v8.956a3.227,3.227,0,0,1-3.22,3.227H316.67a3.22,3.22,0,0,1-3.22-3.22v-8.956A3.227,3.227,0,0,1,316.67,182.2Z" transform="translate(-94.977 -55.208)" fill="#78c2ff"/>
  <path id="Path_904" data-name="Path 904" d="M240.116,333.53s.467,3.123.781,4.454,3.185,5.151,3.136,5.806-1.269,1.394-1.882.892-4.684-4.7-5.576-6.5-3.75-4.126-4.043-4.921,3.394-3.123,4.342-3.485S240.116,333.53,240.116,333.53Z" transform="translate(-70.454 -99.918)" fill="#1d2033"/>
  <path id="Path_905" data-name="Path 905" d="M231.489,255.061a11.618,11.618,0,0,0,.655,2.363,16.617,16.617,0,0,1,1.115,2.474c.077.265.544,2.133.62,2.37s-.453.606-.815.1a15.827,15.827,0,0,1-.781-1.91c-.167-.39-.662-1.624-.795-1.394a15.382,15.382,0,0,0-.125,2.307,14.212,14.212,0,0,0,.376,2.279c.125.544.85,2.788.558,2.941s-.53.091-.906-.523c0,0-.592.335-.934-.418,0,0-.53.2-.857-.781a1.331,1.331,0,0,1-.523-.558,21.375,21.375,0,0,1-1-4.565c0-1.22.293-2.091.244-2.927a23.655,23.655,0,0,0-.495-2.7Z" transform="translate(-69.034 -77)" fill="#eea886"/>
  <path id="Path_906" data-name="Path 906" d="M239.918,329.08l-1.108.488,3.213,3.757,1.066-1.178Z" transform="translate(-72.361 -99.713)" fill="#50558a"/>
  <path id="Path_907" data-name="Path 907" d="M254.675,340.38a11.976,11.976,0,0,1-1.317,2.412c-.606.7-2.913,1.9-2.927,3.931,0,2.2,3.9,1.6,5.423,1.512s1.645-1.255,2.286-2.5,1.289-1.039,1.394-2.042a12.872,12.872,0,0,0-.495-3.255Z" transform="translate(-75.882 -103.137)" fill="#1d2033"/>
  <path id="Path_908" data-name="Path 908" d="M256.372,339.343l-.112,1.046a7.953,7.953,0,0,0,4.677.091l-.125-1.429Z" transform="translate(-77.648 -102.734)" fill="#50558a"/>
  <path id="Path_909" data-name="Path 909" d="M264.79,283.041c0-2.711-1.986-26.4-1.9-27.3.063-.592-.572-6.273-1.018-10.134v-.1h0c-.132-1.087-.237-2.028-.314-2.656-.035-.293-.063-.523-.077-.7v-.181s-12.783-2.523-19.411-.139a8.237,8.237,0,0,0-.795.328,1.583,1.583,0,0,1-.049.321c-.063.488-.2,1.512-.383,2.9a7.045,7.045,0,0,1-.1.732,68.883,68.883,0,0,0,1.31,22.848c1.617,7.792,2.509,13.619,2.676,14.755.223,1.485.871,5.576,1.589,10.051-3.485,4.342-6.517,8.029-6.273,8.364.558.906,5.492,6.022,5.764,5.116,0,0,.892-1.011,2.286-2.621.446,2.746.753,4.614.753,4.614s5.409,1.289,7.4.112c0,0-.788-5.938-1.6-12.406C259.577,291.042,264.79,284.463,264.79,283.041Zm-12-1.959c-.063-3.645-1.687-24.067-1.512-24.067.795,0,5.29,19.446,5.457,22.185.035.558-.7,1.812-1.8,3.485-.509.746-1.108,1.568-1.763,2.439h0C252.941,283.1,252.8,281.633,252.788,281.082Z" transform="translate(-72.734 -72.967)" fill="#292c47"/>
  <path id="Path_910" data-name="Path 910" d="M266.517,191.737l-3.436,12.33c-.118.4-.258.892-.411,1.464v.035a48.435,48.435,0,0,0-1.5,9.27c-.139,2.544.328,12.741.328,12.741a34.188,34.188,0,0,1-12.985,1.45s-8.364-.2-7.667-5.325c1.805-13.584.042-19.188-.2-20.554,0,0-1.136-6.594-1.952-12.121,2.356-.878,12.42-4.266,12.42-4.266l5.214.39S264.231,189.1,266.517,191.737Z" transform="translate(-72.327 -56.589)" fill="#d9c7c1"/>
  <path id="Path_911" data-name="Path 911" d="M257.548,161.725s5.088.857,4.224,8.824-5.353,7.263-5.653,7.256-4.517.1-4.74-9.646C251.38,168.172,251.317,160.959,257.548,161.725Z" transform="translate(-76.17 -48.986)" fill="#eea987"/>
  <path id="Path_912" data-name="Path 912" d="M260.524,181.086a18.522,18.522,0,0,0,.132,3.994c.307.711-4.084,2.976-6.817.4a28.013,28.013,0,0,0,.383-4.879C254.049,179.316,260.524,181.086,260.524,181.086Z" transform="translate(-76.915 -54.582)" fill="#eea987"/>
  <path id="Path_913" data-name="Path 913" d="M266.307,171.067s.565-.585.767,0-.906,3.29-.836,3.408c0,0-.1.237-.237.1A29.268,29.268,0,0,1,266.307,171.067Z" transform="translate(-80.599 -51.755)" fill="#eea987"/>
  <path id="Path_914" data-name="Path 914" d="M251.113,170.753s-.537-.606-.76,0,.592,3.283.7,3.443c0,0,.174.279.314.153A29.132,29.132,0,0,0,251.113,170.753Z" transform="translate(-75.847 -51.657)" fill="#eea987"/>
  <path id="Path_915" data-name="Path 915" d="M262.038,167.037c-.174,1.094-.342,1.9-.342,1.9l-.739.969a19.818,19.818,0,0,0-.07-2.474c-.042-.132-.1-.355-.146-.6-.084-.4-.174-.857-.23-1.011a11.386,11.386,0,0,0-8.162.265,6.233,6.233,0,0,1,0,.7c0,.432-.049.906-.244.983-.362.132-.209,2.5-.209,2.5l-.592-.7s-.174-1.241-.342-2.663h0c-.042-.328-.077-.7-.112-1.011-.091-1.394.056-4.029,1.917-5.576,1.255-.537,3.262-1,6.607,0a2.363,2.363,0,0,1,.983.258C262.47,162.924,262.038,167.037,262.038,167.037Z" transform="translate(-76.003 -48.401)" fill="#e8734d"/>
  <path id="Path_916" data-name="Path 916" d="M254.89,183.29a3.248,3.248,0,0,0,2.7,1.087,3.645,3.645,0,0,0,2.7-1.032,2.879,2.879,0,0,1-5.4-.056Z" transform="translate(-77.233 -55.538)" fill="#c78d71"/>
  <path id="Path_917" data-name="Path 917" d="M253.1,187.482a5.576,5.576,0,0,0,3.952,2.6c1.638.139,3.06-1.938,3.729-2.962a9.974,9.974,0,0,0-7.681.362Z" transform="translate(-76.691 -56.516)" fill="#eea987"/>
  <path id="Path_918" data-name="Path 918" d="M262.025,186.31a14.211,14.211,0,0,1-3.255,2.823l1.394,2.091,2.356-4.182Z" transform="translate(-78.409 -56.453)" fill="#eddad3"/>
  <path id="Path_919" data-name="Path 919" d="M253.636,186.76a9.521,9.521,0,0,0,3.332,2.509l-1.512,2.182-2.656-3.826Z" transform="translate(-76.6 -56.589)" fill="#eddad3"/>
  <path id="Path_920" data-name="Path 920" d="M258.243,190.36l1.178,1.791a2.453,2.453,0,0,1-2.391-.042Z" transform="translate(-77.882 -57.68)" fill="#5073ab"/>
  <path id="Path_921" data-name="Path 921" d="M241.33,247.651s6.384,2.356,20.826.132l-.2-2.614s-8.364,2.474-20.373.355Z" transform="translate(-73.124 -74.288)" fill="#1d2033"/>
  <path id="Path_922" data-name="Path 922" d="M263.559,187.38a158.171,158.171,0,0,0-1.289,20.77c.2,9.632,7.479,27.092,7.479,27.092s3.178-3.074,4.558-4.809c0,0-4.942-14.267-4.879-16.839s5.576-22,5.576-22S271.972,189.6,263.559,187.38Z" transform="translate(-79.469 -56.777)" fill="#323657"/>
  <path id="Path_923" data-name="Path 923" d="M247.387,188.06s0,10.678-.2,20.3-1.471,27.531-1.471,27.531-7.13-1.129-8.524-2.865c0,0,2.886-16.651,2.788-19.223s-4.635-21.5-4.635-21.5S238.026,190.555,247.387,188.06Z" transform="translate(-71.312 -56.983)" fill="#323657"/>
  <rect id="Rectangle_1535" data-name="Rectangle 1535" width="3.924" height="2.913" transform="translate(176.918 171.691)" fill="#3a4066"/>
  <path id="Path_924" data-name="Path 924" d="M257.157,192.28s-1.749,5.98-1.9,17.857.216,15.285.216,15.285l1.394,2.7,1.819-2.823s-.578-27.329-.244-32.814Z" transform="translate(-77.332 -58.262)" fill="#5073ab"/>
  <path id="Path_925" data-name="Path 925" d="M270.584,253.405a2.377,2.377,0,0,0,.544-.488s.181-.383.328-.648a1.821,1.821,0,0,1,.125-.2,3.77,3.77,0,0,0,.7-1.087A22.56,22.56,0,0,0,272.64,248l-1.506-.446L269.8,247a28.728,28.728,0,0,0-3.178,2.718.612.612,0,0,0-.063.139,4.418,4.418,0,0,0-.139,1.011c0,.084-.16.927.035,1.115a1.039,1.039,0,0,0,.864.3,2.412,2.412,0,0,0,1.094.537,1.527,1.527,0,0,0,1.185.348S270.173,253.566,270.584,253.405Z" transform="translate(-80.709 -74.842)" fill="#eea886"/>
  <path id="Path_926" data-name="Path 926" d="M269.66,230.465a15.8,15.8,0,0,0,4.879,2.746s9.451-15.4,9.57-16.5-4.691-21.962-6.851-23.287l-3.938,11.514c.265-.077,4.482,8.747,4.5,9.876C277.843,216.337,269.66,230.465,269.66,230.465Z" transform="translate(-81.708 -58.607)" fill="#323657"/>
  <path id="Path_927" data-name="Path 927" d="M232.413,238.971a23.762,23.762,0,0,1-5.193.223s1.2-19.767,1.08-20.875,2.46-22.854,4.621-24.179l3.861,11.633c-.258-.077-2.586,11.9-2.607,13.034C234.155,220.326,232.413,238.971,232.413,238.971Z" transform="translate(-68.849 -58.826)" fill="#323657"/>
  <path id="Path_928" data-name="Path 928" d="M265.475,249.71l6.071,3.143-2.391,4.419-5.165-5.52Z" transform="translate(-79.99 -75.664)" fill="#292c47"/>
  <path id="Path_929" data-name="Path 929" d="M260.643,300.86l-.613,12.016-1.15-9.57h0C259.535,302.428,260.135,301.606,260.643,300.86Z" transform="translate(-78.442 -91.162)" fill="#1d2033"/>
  <rect id="Rectangle_1536" data-name="Rectangle 1536" width="3.541" height="11.619" transform="translate(151.638 63.657)" fill="#78c2ff"/>
  <path id="Path_930" data-name="Path 930" d="M390.532,195.241a16.421,16.421,0,1,1-16.421-16.421,16.421,16.421,0,0,1,16.421,16.421Z" transform="translate(-108.382 -54.183)" fill="#eef0f7"/>
  <rect id="Rectangle_1537" data-name="Rectangle 1537" width="3.541" height="8.357" transform="translate(145.832 66.911)" fill="#78c2ff"/>
  <rect id="Rectangle_1538" data-name="Rectangle 1538" width="3.541" height="17.007" transform="translate(157.451 58.269)" fill="#78c2ff"/>
  <rect id="Rectangle_1539" data-name="Rectangle 1539" width="22.792" height="1.352" transform="translate(327.88 189.485) rotate(180)" fill="#e2d2ca"/>
  <rect id="Rectangle_1540" data-name="Rectangle 1540" width="2" height="61.531" transform="translate(322.827 193.005)" fill="#706865"/>
  <rect id="Rectangle_1541" data-name="Rectangle 1541" width="15.843" height="1.931" transform="translate(308.65 189.68) rotate(180)" fill="#ccbdb7"/>
  <rect id="Rectangle_1542" data-name="Rectangle 1542" width="6.001" height="18.219" transform="translate(303.729 189.485) rotate(180)" fill="#4667a8"/>
  <rect id="Rectangle_1543" data-name="Rectangle 1543" width="87.779" height="3.499" transform="translate(336.056 193.005) rotate(180)" fill="#b59074"/>
  <path id="Path_931" data-name="Path 931" d="M502.1,238.955s.962,13.466-1.673,15.076c-1.645,1.011-8.218,4.412-8.022,5.053s3.708,5.68,3.708,5.68,12.623-8.315,13.034-10.929-.627-19.718-2.356-20.506c-1.3-.592-1.986-.1-3.624,1.115C500.87,236.147,502.1,238.955,502.1,238.955Z" transform="translate(-149.201 -70.624)" fill="#ffc05c"/>
  <path id="Path_932" data-name="Path 932" d="M484,352.985s.39,2.725.439,3.13,4.37-.237,4.37-.237l.349-3.248S484.565,352.6,484,352.985Z" transform="translate(-146.655 -106.849)" fill="#424773"/>
  <path id="Path_933" data-name="Path 933" d="M481.356,357.055a11.682,11.682,0,0,1-2.69,2.356c-1.324.7-3.4,1-4.182,1.736-.558.537-2.056,2.837,3.443,2.788s8.141.321,8.726-.558-.85-6.517-.85-6.517A11.593,11.593,0,0,1,481.356,357.055Z" transform="translate(-143.585 -108.131)" fill="#292c47"/>
  <path id="Path_934" data-name="Path 934" d="M444.36,353.025s.39,2.718.439,3.13,4.37-.244,4.37-.244l.348-3.241S444.9,352.635,444.36,353.025Z" transform="translate(-134.644 -106.861)" fill="#424773"/>
  <path id="Path_935" data-name="Path 935" d="M440.571,357.091a11.847,11.847,0,0,1-2.69,2.363c-1.324.7-6.2,1.3-6.97,2.042-.565.53-1.505,2.683,6.231,2.481,5.492-.139,8.141.328,8.726-.558s-.85-6.51-.85-6.51S443.785,357.412,440.571,357.091Z" transform="translate(-130.458 -108.146)" fill="#292c47"/>
  <path id="Path_936" data-name="Path 936" d="M484.415,285.62s-15.7,2.656-19.244,3.213-22.764,5.339-25.168,6.8c-1.91,1.164,1,29.023,1.687,39.652h7.569l.551-31.888c9.061.23,15.571-2.091,22.185-1.115s12.128,2.433,16.331-3.206C488.339,299.072,488.5,286.854,484.415,285.62Z" transform="translate(-133.129 -86.544)" fill="#292c47"/>
  <path id="Path_937" data-name="Path 937" d="M480.8,336.784l7.381-.46.7-31.455a44.4,44.4,0,0,0,8.42-.53l5.952-13.849c-5.22,1.045-21.948,5.262-24.179,6.614C477.18,298.268,480.121,326.155,480.8,336.784Z" transform="translate(-144.972 -88.02)" fill="#292c47"/>
  <path id="Path_938" data-name="Path 938" d="M489.678,201.1s-5.75-1.589-7.946,2.879-1.2,12.929,1.7,13.731,7.068-.125,8.273-2.906,2.161-6.726,1.875-9.284S491.2,201.714,489.678,201.1Z" transform="translate(-145.607 -60.851)" fill="#eea886"/>
  <path id="Path_939" data-name="Path 939" d="M486.7,222.061s.063,3.394-.307,4.119,8.008.544,8.008.544a17.09,17.09,0,0,1-.572-7.555C494.578,215.69,486.7,222.061,486.7,222.061Z" transform="translate(-147.377 -66.094)" fill="#eea886"/>
  <path id="Path_940" data-name="Path 940" d="M492.438,212.4s-.446.906-2.621.76-5.032-2.788-5.952-3-.976-.76-.976-.76l-.488.864-.948.146s.641-2.628-.753-3.548.627-8.364,7.709-6.573c0,0,5.4.99,5.471,4.008S493.483,210.793,492.438,212.4Z" transform="translate(-145.53 -60.605)" fill="#3a3f47"/>
  <path id="Path_941" data-name="Path 941" d="M485.76,228.581s0-1.394.655-1.512,6.594-.955,7.36-.648l.328,1.826S492.625,229.16,485.76,228.581Z" transform="translate(-147.188 -68.586)" fill="#e2d2ca"/>
  <path id="Path_942" data-name="Path 942" d="M483.26,211.92c.16-1.136,1.45-2.433,2.189-.7s-.5,4.342-1.331,4.182S483.058,213.46,483.26,211.92Z" transform="translate(-146.41 -63.746)" fill="#eea886"/>
  <path id="Path_943" data-name="Path 943" d="M449.908,253Z" transform="translate(-136.316 -76.66)" fill="#323657"/>
  <path id="Path_944" data-name="Path 944" d="M496.06,202.38s7.012-.328,1.227,10.622Z" transform="translate(-150.309 -61.322)" fill="#3a3f47"/>
  <path id="Path_945" data-name="Path 945" d="M508.669,358.636l-.516,1.471L486.1,353.276l1.059-2.976Z" transform="translate(-147.291 -106.143)" fill="#918783"/>
  <rect id="Rectangle_1544" data-name="Rectangle 1544" width="2.509" height="23.97" transform="translate(340.558 246.088) rotate(180)" fill="#918783"/>
  <rect id="Rectangle_1545" data-name="Rectangle 1545" width="14.783" height="1.415" transform="translate(346.699 222.251) rotate(180)" fill="#5e5854"/>
  <path id="Path_946" data-name="Path 946" d="M454.87,358.554l.523,1.471,22.046-6.831-.969-3.164Z" transform="translate(-137.828 -106.061)" fill="#918783"/>
  <path id="Path_947" data-name="Path 947" d="M477.15,359.865v1.708l7.04-8.378-.969-3.164Z" transform="translate(-144.579 -106.061)" fill="#918783"/>
  <path id="Path_948" data-name="Path 948" d="M451.91,364.3A2.091,2.091,0,1,0,454,362.24a2.091,2.091,0,0,0-2.091,2.056Z" transform="translate(-136.931 -109.761)" fill="#bfb2ac"/>
  <path id="Path_949" data-name="Path 949" d="M476.9,364.3a2.091,2.091,0,1,0,2.091-2.056A2.091,2.091,0,0,0,476.9,364.3Z" transform="translate(-144.503 -109.761)" fill="#bfb2ac"/>
  <path id="Path_950" data-name="Path 950" d="M515.53,364.3a2.091,2.091,0,1,0,2.091-2.056,2.091,2.091,0,0,0-2.091,2.056Z" transform="translate(-156.208 -109.761)" fill="#bfb2ac"/>
  <rect id="Rectangle_1546" data-name="Rectangle 1546" width="35.017" height="5.353" rx="2.676" transform="translate(356.715 220.843) rotate(180)" fill="#e2d2ca"/>
  <rect id="Rectangle_1547" data-name="Rectangle 1547" width="1.993" height="61.531" transform="translate(261.505 254.535) rotate(180)" fill="#706865"/>
  <rect id="Rectangle_1548" data-name="Rectangle 1548" width="51.808" height="36.543" rx="3.78" transform="translate(326.633 180.041) rotate(180)" fill="#5f8be3"/>
  <rect id="Rectangle_1549" data-name="Rectangle 1549" width="47.744" height="28.842" transform="translate(324.604 174.311) rotate(180)" fill="#f5f7ff"/>
  <rect id="Rectangle_1550" data-name="Rectangle 1550" width="47.744" height="2.293" transform="translate(324.604 147.763) rotate(180)" fill="#cecfd6"/>
  <rect id="Rectangle_1551" data-name="Rectangle 1551" width="5.757" height="23.043" rx="2.34" transform="translate(284.381 172.541) rotate(180)" fill="#cecfd6"/>
  <rect id="Rectangle_1552" data-name="Rectangle 1552" width="10.504" height="2.133" rx="1.066" transform="translate(323.252 151.631) rotate(180)" fill="#cecfd6"/>
  <rect id="Rectangle_1553" data-name="Rectangle 1553" width="10.504" height="20.066" rx="2.61" transform="translate(323.252 173.126) rotate(180)" fill="#cecfd6"/>
  <path id="Path_951" data-name="Path 951" d="M429.07,253.273a1.673,1.673,0,1,0,1.673-1.673A1.673,1.673,0,0,0,429.07,253.273Z" transform="translate(-130.011 -76.236)" fill="#5c5552"/>
  <path id="Path_952" data-name="Path 952" d="M416.08,269.937v-.7s.92-4.049,7.381-4.049,6.336,4.7,6.336,4.7Z" transform="translate(-126.075 -80.354)" fill="#2e436e"/>
  <path id="Path_953" data-name="Path 953" d="M430.83,264.992a6.272,6.272,0,0,1-1.924-.418c-.516-.307-3.59-2.377-4.314-2.049s-5.541,1.805-5.374,2.509.613.634.955.516a25.228,25.228,0,0,1,4.14-.739s-3.429,1.255-3.443,2.168.7,1.136,1.046,1.485.7,1.2,1.6,1.269,5.207-1.436,6.092-1.505a21.661,21.661,0,0,0,2.649-.091A24.524,24.524,0,0,0,430.83,264.992Z" transform="translate(-127.024 -79.536)" fill="#eea886"/>
  <path id="Path_954" data-name="Path 954" d="M460.82,231.328c4.482-.788,9.193-1.924,9.193-1.924l8.364-.335s7.667,1.68,10.678,3.046c.286.125.286,6.831,1.066,8.587l-2.516,5.276s-1.45,10.455-1.749,15.09c-.132,2.133.39,20.617.39,20.617s-.746.369-6.44,1-19.92-.23-20.011-.9,2.753-25.043,2.879-26.3c.2-1.938-.558-10.887-.558-10.887-1.073,1.443-3.806,7.953-6.656,11.047-1.68,1.819-9.981,2.941-11.549,2.99-3.4.112-9.618.795-9.8.46-.146-.2-.544-5.513-.153-5.646s11.884-.781,14.839-2.349c1.08-.572,4.314-7.625,4.314-7.625S458.331,232.436,460.82,231.328Z" transform="translate(-131.441 -69.409)" fill="#ffc05c"/>
  <rect id="Rectangle_1554" data-name="Rectangle 1554" width="24.151" height="33.449" rx="7.28" transform="translate(364.897 211.74) rotate(180)" fill="#e2d2ca"/>
  <path id="Path_955" data-name="Path 955" d="M494.415,306.306A11.082,11.082,0,0,0,503,302.751c4.83-5.332,3.959-14.7,3.917-15.1a1.341,1.341,0,0,0-2.669.265c0,.1.781,8.6-3.248,13.034a8.373,8.373,0,0,1-6.587,2.663,1.345,1.345,0,1,0,0,2.69Z" transform="translate(-149.403 -86.795)" fill="#e2d2ca"/>
  <path id="Path_956" data-name="Path 956" d="M426.582,222.707a6.726,6.726,0,0,1-1.575,4.342,7.894,7.894,0,0,1-.76.767l-.23.2-.279.209a6.768,6.768,0,0,1-3.067,1.185c-.2,0-.4.042-.606.049h-.871a4.113,4.113,0,0,1-.7-.1,6.726,6.726,0,0,1-2.788-1.262,6.186,6.186,0,0,1-.7-.6l-.119-.125a5.877,5.877,0,0,1-.432-.5,6.74,6.74,0,1,1,12.079-4.126Z" transform="translate(-125.159 -65.451)" fill="#eef0f7"/>
  <path id="Path_957" data-name="Path 957" d="M425.26,230.349l-.495,1.791a6.768,6.768,0,0,1-3.067,1.185c-.2,0-.4.042-.606.049h-.871a4.113,4.113,0,0,1-.7-.1,6.726,6.726,0,0,1-2.788-1.262c-.1-.585-.2-1.241-.286-1.854.495-.181,2.091-.7,3.067-1.059h.167l.167-.056.16-.049.4-.139h0l1.345.1h.321l.627.174h0a6.455,6.455,0,0,1,2.558,1.22Z" transform="translate(-126.187 -69.343)" fill="#d9c7c1"/>
  <path id="Path_958" data-name="Path 958" d="M422.445,220.812s1.61.272,1.331,2.788-1.687,2.286-1.784,2.286-1.394,0-1.492-3.046C420.5,222.84,420.479,220.568,422.445,220.812Z" transform="translate(-127.414 -66.902)" fill="#eea987"/>
  <path id="Path_959" data-name="Path 959" d="M423.385,226.924a5.805,5.805,0,0,0,.042,1.262c.1.223-1.289.941-2.147.125a8.735,8.735,0,0,0,.118-1.526C421.343,226.381,423.385,226.924,423.385,226.924Z" transform="translate(-127.65 -68.672)" fill="#eea987"/>
  <path id="Path_960" data-name="Path 960" d="M425.208,223.764s.181-.188.244,0-.286,1.039-.265,1.08-.035.07-.077,0a9.25,9.25,0,0,1,.1-1.08Z" transform="translate(-128.811 -67.776)" fill="#eea987"/>
  <path id="Path_961" data-name="Path 961" d="M420.417,223.662s-.167-.2-.237,0a3.339,3.339,0,0,0,.216,1.087s.056.091.1.049A9.54,9.54,0,0,0,420.417,223.662Z" transform="translate(-127.317 -67.745)" fill="#eea987"/>
  <path id="Path_962" data-name="Path 962" d="M423.881,222.49c-.056.342-.112.6-.112.6l-.23.307a6.279,6.279,0,0,0,0-.781.325.325,0,0,0-.049-.188,1.273,1.273,0,0,1-.07-.321,3.485,3.485,0,0,0-2.579.084,1.862,1.862,0,0,1,0,.216c0,.139,0,.286-.077.314s-.07.788-.07.788l-.188-.216s-.056-.39-.1-.836h0v-.321a2.091,2.091,0,0,1,.6-1.749,2.893,2.893,0,0,1,2.091,0s.244,0,.307.084a2.955,2.955,0,0,1,.481,2.021Z" transform="translate(-127.379 -66.719)" fill="#e8734d"/>
  <path id="Path_963" data-name="Path 963" d="M421.61,227.62a1.01,1.01,0,0,0,.85.342,1.15,1.15,0,0,0,.85-.328,1.031,1.031,0,0,1-.857.585,1.045,1.045,0,0,1-.843-.6Z" transform="translate(-127.75 -68.97)" fill="#c78d71"/>
  <path id="Path_964" data-name="Path 964" d="M421,228.939a1.749,1.749,0,0,0,1.248.822c.516.042.969-.613,1.178-.934a3.157,3.157,0,0,0-2.426.112Z" transform="translate(-127.565 -69.278)" fill="#eea987"/>
  <path id="Path_965" data-name="Path 965" d="M423.855,228.57a4.426,4.426,0,0,1-1.025.892l.432.7.746-1.324Z" transform="translate(-128.12 -69.258)" fill="#eddad3"/>
  <path id="Path_966" data-name="Path 966" d="M421.223,228.71a3.04,3.04,0,0,0,1.053.795l-.474.7-.8-1.22Z" transform="translate(-127.565 -69.3)" fill="#eddad3"/>
  <path id="Path_967" data-name="Path 967" d="M422.663,229.85l.369.565a.767.767,0,0,1-.753,0Z" transform="translate(-127.953 -69.646)" fill="#5073ab"/>
  <path id="Path_968" data-name="Path 968" d="M427.974,230.234l-.418,1.492-.23.2-.279.209a6.769,6.769,0,0,1-3.067,1.185c.1-2.335.376-4.405.376-4.405l.62.167h0A15.028,15.028,0,0,1,427.974,230.234Z" transform="translate(-128.468 -69.361)" fill="#323657"/>
  <path id="Path_969" data-name="Path 969" d="M419.2,233.295a6.726,6.726,0,0,1-2.788-1.262,6.182,6.182,0,0,1-.7-.6l-.118-.125c-.118-.5-.2-.829-.2-.85h0a15.046,15.046,0,0,1,3.785-1.338h0C419.223,229.19,419.223,231.086,419.2,233.295Z" transform="translate(-125.865 -69.425)" fill="#323657"/>
  <path id="Path_970" data-name="Path 970" d="M422.761,230.671c0,.613-.035,1.805,0,3.171h-.871a21.321,21.321,0,0,1,.446-3.143c.035-.139.056-.209.056-.209l.4.07a.9.9,0,0,0-.028.111Z" transform="translate(-127.835 -69.84)" fill="#5073ab"/>
  <path id="Path_971" data-name="Path 971" d="M429.77,231.535a7.888,7.888,0,0,1-.76.767l-.23.2.648-1.687C429.63,230.942,429.693,231.354,429.77,231.535Z" transform="translate(-129.923 -69.937)" fill="#323657"/>
  <path id="Path_972" data-name="Path 972" d="M415.681,232.016l-.118-.125a5.853,5.853,0,0,1-.432-.5.739.739,0,0,1,.23-.348h0Z" transform="translate(-125.787 -70.006)" fill="#323657"/>
  <path id="Path_973" data-name="Path 973" d="M380.889,206.083a.829.829,0,0,1-.829-.829V193.809a.829.829,0,1,1,1.659,0v11.445A.829.829,0,0,1,380.889,206.083Z" transform="translate(-115.16 -58.474)" fill="#949494"/>
  <path id="Path_974" data-name="Path 974" d="M384.112,202.849H372.639a.829.829,0,1,1,0-1.659h11.445a.829.829,0,0,1,0,1.659Z" transform="translate(-112.661 -60.962)" fill="#949494"/>
</svg>
