<svg xmlns="http://www.w3.org/2000/svg" width="88.724" height="90.92" viewBox="0 0 88.724 90.92">
  <g id="Layer_2" data-name="Layer 2" transform="translate(0 0)">
    <g id="Illustration">
      <path id="Path_457" data-name="Path 457" d="M252.293,1028.036l11.8-4.49-3.46-1.446-11.614,5.856Z" transform="translate(-228.442 -937.637)" fill="#93c4cc"/>
      <path id="Path_458" data-name="Path 458" d="M149.348,1006.25l11.96-4.523-3.459-1.446-11.6,5.123Z" transform="translate(-134.164 -917.62)" fill="#93c4cc"/>
      <ellipse id="Ellipse_234" data-name="Ellipse 234" cx="39.185" cy="2.512" rx="39.185" ry="2.512" transform="translate(3.706 81.95)" fill="#93c4cc"/>
      <path id="Path_459" data-name="Path 459" d="M14.423,357.506l-.411-14.744L9.9,341.3l-.212-16.817-5.3-2.02.258-7.411,3.008-.134L4.645,309.54,0,314.793l2.124.311L.181,323.986,7.257,326.8l-1.788,16,5.967,1.944-.071,15.82Z" transform="translate(0 -283.961)" fill="#739999"/>
      <path id="Path_460" data-name="Path 460" d="M17.9,320.96l-2.434,3.449-.812.121,3.307-3.631Z" transform="translate(-13.439 -294.382)" fill="#93c4cc"/>
      <path id="Path_461" data-name="Path 461" d="M839.24,147.353l.552-34.677,5.518-1.962.285-16.8,7.112-2.714-.346-9.953-4.039-.18,4.053-7.227,6.238,7.055-2.853.417,2.609,11.929-9.5,3.777,2.4,15.708-8.015,2.612,1.917,32.053Z" transform="translate(-769.888 -67.738)" fill="#739999"/>
      <path id="Path_462" data-name="Path 462" d="M974.012,89.172,971.56,94.3l1.115-.453,1.254-4.76Z" transform="translate(-891.274 -81.728)" fill="#93c4cc"/>
      <path id="Path_463" data-name="Path 463" d="M249.9,187.949l-7.275.7,1.555-10.168-4.083.217,5.908-9.5,6.469,9.535-3.889-.439Z" transform="translate(-220.259 -155.218)" fill="#93c4cc"/>
      <path id="Path_464" data-name="Path 464" d="M272.7,209.647l3.078-4.9-1.539,4.657Z" transform="translate(-250.165 -187.83)" fill="#ace4ea"/>
      <path id="Path_465" data-name="Path 465" d="M711.756,15.122l-5.867.567,1.254-8.2-3.293.174L708.615,0l5.218,7.69L710.7,7.336Z" transform="translate(-645.686)" fill="#93c4cc"/>
      <path id="Path_466" data-name="Path 466" d="M730.14,32.619l2.482-3.949-1.241,3.756Z" transform="translate(-669.804 -26.301)" fill="#ace4ea"/>
      <path id="Path_467" data-name="Path 467" d="M102.417,65.373l-3.819.369.816-5.337-2.144.113,3.1-4.988,3.4,5.005-2.041-.23Z" transform="translate(-89.232 -50.941)" fill="#5c7a7a"/>
      <path id="Path_468" data-name="Path 468" d="M114.39,76.761l1.616-2.571-.807,2.445Z" transform="translate(-104.937 -68.059)" fill="#739999"/>
      <path id="Path_469" data-name="Path 469" d="M766.716,303.8l-3.819.369.816-5.338-2.144.113,3.1-4.988,3.4,5.006-2.042-.231Z" transform="translate(-698.637 -269.668)" fill="#5c7a7a"/>
      <path id="Path_470" data-name="Path 470" d="M778.68,315.2l1.616-2.571-.808,2.444Z" transform="translate(-714.333 -286.795)" fill="#739999"/>
      <path id="Path_471" data-name="Path 471" d="M652.006,841.953l-3.819.369.817-5.338-2.144.113,3.1-4.988,3.4,5.005-2.042-.23Z" transform="translate(-593.406 -763.348)" fill="#93c4cc"/>
      <path id="Path_472" data-name="Path 472" d="M663.98,853.341l1.616-2.571-.808,2.445Z" transform="translate(-609.111 -780.466)" fill="#ace4ea"/>
      <path id="Path_473" data-name="Path 473" d="M69.46,423.244s-15.281-1.259-21.3,10.381c0,0-9.226-.943-9.739,6.31,0,0-8.2,2.126-8.457,5.586s4.485,10.763,16.274,5.253a19.456,19.456,0,0,0,17.621,2.691s22.358,4.357,29.662-2.82c0,0,18.451,2.334,19.22-6.776s-13.2-4.876-13.2-4.876-2.829-11.756-13.455-8.842C86.085,430.147,84.743,417.24,69.46,423.244Z" transform="translate(-27.476 -386.808)" fill="#fff"/>
      <path id="Path_474" data-name="Path 474" d="M347.267,596a6.557,6.557,0,0,0-4.673,0s.266.064.707,1.027c0,0-3.231-.634-4.761,1.121,0,0,3.772.148,4.449,2.367,0,0,4.453,1.074,5.109,2.83a20.416,20.416,0,0,1,14.079,0s1.912-4.718,6.2-4.271c0,0-3.354-3.962-7.49-3.517Z" transform="translate(-310.564 -546.307)" fill="#e5e5e4"/>
      <path id="Path_475" data-name="Path 475" d="M163.286,727.637l-1.936.146,11.522-30.148.417-1.065,1.937,1.044Z" transform="translate(-148.017 -639.008)" fill="#faaf40"/>
      <path id="Path_476" data-name="Path 476" d="M160.391,695.643l-1.361-.083-11.74,30.3,1.162.993Z" transform="translate(-135.118 -638.081)" fill="#fabc65"/>
      <path id="Path_477" data-name="Path 477" d="M300.952,749.347l-.75,2.079-6.9-.945a2.353,2.353,0,0,1-.119-.572c0-.026,0-.052-.006-.083a.888.888,0,0,1,.1-.455c.007-.012.013-.025.021-.036a.863.863,0,0,1,.46-.382C294.122,748.833,300.952,749.347,300.952,749.347Z" transform="translate(-268.951 -687.046)" fill="#8c8b8b"/>
      <path id="Path_478" data-name="Path 478" d="M300.917,754.99l-.64.761-6.9-.944a2.354,2.354,0,0,1-.119-.572l.1-.534.01-.051.011.015Z" transform="translate(-269.026 -691.371)" fill="#727272"/>
      <path id="Path_479" data-name="Path 479" d="M267.082,828.642l-.75,2.079-6.9-.944a2.358,2.358,0,0,1-.119-.573c0-.026,0-.051-.006-.083a.879.879,0,0,1,.1-.455.381.381,0,0,1,.02-.036.858.858,0,0,1,.46-.382C260.252,828.129,267.082,828.642,267.082,828.642Z" transform="translate(-237.879 -759.789)" fill="#8c8b8b"/>
      <path id="Path_480" data-name="Path 480" d="M267.047,834.28l-.64.761-6.9-.945a2.359,2.359,0,0,1-.119-.573l.1-.533.009-.051.011.015Z" transform="translate(-237.955 -764.109)" fill="#727272"/>
      <path id="Path_481" data-name="Path 481" d="M238.692,914.562l-.751,2.079-6.9-.944a2.359,2.359,0,0,1-.119-.572c0-.026,0-.052-.006-.079a.883.883,0,0,1,.1-.455c.006-.012.013-.025.02-.036a.861.861,0,0,1,.461-.382C231.863,914.049,238.692,914.562,238.692,914.562Z" transform="translate(-211.835 -838.611)" fill="#8c8b8b"/>
      <path id="Path_482" data-name="Path 482" d="M238.693,920.38l-.656.551-6.9-.944a2.356,2.356,0,0,1-.119-.572l.1-.534.009-.051.011.015Z" transform="translate(-211.929 -842.901)" fill="#727272"/>
      <path id="Path_483" data-name="Path 483" d="M208.785,989.977l-.754,2.079-6.9-.945a2.355,2.355,0,0,1-.119-.572c0-.026,0-.052-.006-.083a.89.89,0,0,1,.1-.455c.007-.012.013-.025.021-.036a.863.863,0,0,1,.46-.382C201.954,989.463,208.785,989.977,208.785,989.977Z" transform="translate(-184.397 -907.792)" fill="#8c8b8b"/>
      <path id="Path_484" data-name="Path 484" d="M208.823,995.8l-.656.552-6.9-.944a2.356,2.356,0,0,1-.119-.572l.1-.534.01-.051.011.015Z" transform="translate(-184.528 -912.089)" fill="#727272"/>
      <path id="Path_485" data-name="Path 485" d="M268.114,754.488l-1.944.52,12.157-31.1,1.825,1.259Z" transform="translate(-244.175 -664.089)" fill="#faaf40"/>
      <path id="Path_486" data-name="Path 486" d="M263.577,720.218l-1.357-.328-12.13,30.829,1.329.6Z" transform="translate(-229.423 -660.401)" fill="#fabc65"/>
      <path id="Path_487" data-name="Path 487" d="M444.57,902.394l-6.412.621,1.371-8.962-3.6.191,5.207-8.374,5.7,8.4-3.428-.387Z" transform="translate(-399.906 -812.665)" fill="#648587"/>
      <path id="Path_488" data-name="Path 488" d="M464.67,921.516l2.712-4.316-1.356,4.1Z" transform="translate(-426.271 -841.406)" fill="#93c4cc"/>
      <path id="Path_489" data-name="Path 489" d="M421.747,404.944s-1.616-7.754,2.75-10.358c0,0-.152-4.239-2.887-4.915,0,0-5.321,6.3-1.621,15.651C419.989,405.32,420.812,406.042,421.747,404.944Z" transform="translate(-384.082 -357.469)" fill="#eaa13a"/>
      <path id="Path_490" data-name="Path 490" d="M420.617,405.551a1.093,1.093,0,0,1-.628-.231c-3.7-9.354,1.621-15.651,1.621-15.651a2.872,2.872,0,0,1,1.335.758C417.289,397.21,419.673,403.618,420.617,405.551Z" transform="translate(-384.082 -357.469)" fill="#eaa13a"/>
      <path id="Path_491" data-name="Path 491" d="M429.159,567.76s-1.007.1-.78.981.765,1.924,1.493,1.688,1.5-.6,1.358-1.624S430.61,566.794,429.159,567.76Z" transform="translate(-392.949 -520.481)" fill="#f9e3c3"/>
      <path id="Path_492" data-name="Path 492" d="M443.63,662.592a50.559,50.559,0,0,1-1.462,4.94c-.685,1.744-1.188,2.093-1.876,1.863,0,0-.509-.6-.293-3.6s1-3.255,1-3.255l-.428-.029a3.922,3.922,0,0,1,.389-1.517s1.217.1,1.653.186A1.12,1.12,0,0,1,443.63,662.592Z" transform="translate(-403.59 -606.368)" fill="#7e6760"/>
      <path id="Path_493" data-name="Path 493" d="M440.431,667.535c0,1.229.183,1.719.349,1.912a.98.98,0,0,1-.488-.051s-.509-.6-.293-3.6,1-3.255,1-3.255l-.428-.029a3.915,3.915,0,0,1,.39-1.517s.518.041,1,.1C440.914,662.256,440.437,665.563,440.431,667.535Z" transform="translate(-403.59 -606.368)" fill="#65534e"/>
      <path id="Path_494" data-name="Path 494" d="M478.868,673.938,477,673.716s-.2-.066-.189-.631.314-.57.314-.57l1.853-.036Z" transform="translate(-437.404 -616.909)" fill="#ffd0a5"/>
      <path id="Path_495" data-name="Path 495" d="M500.027,576.4s1.026,4.446-1.025,7.107c0,0-.949,1.983-6.789,1.939a.661.661,0,0,1-.634-.476,1.178,1.178,0,0,1,.125-.96.326.326,0,0,1,.24-.158c.606-.074,2.928-.436,3.9-1.668,1.178-1.5.368-5.289.368-5.289S499.609,575.073,500.027,576.4Z" transform="translate(-450.909 -528.323)" fill="#3c64a2"/>
      <path id="Path_496" data-name="Path 496" d="M498.32,582.365a2.3,2.3,0,0,0,1.068-.165c.33,1.4.879,4.585-.559,6.032a5.744,5.744,0,0,1-4.9,1.508.321.321,0,0,1,.217-.127c.606-.074,2.928-.435,3.9-1.668C499.224,586.448,498.32,582.365,498.32,582.365Z" transform="translate(-453.113 -534.089)" fill="#335587"/>
      <path id="Path_497" data-name="Path 497" d="M563.342,663.955A49.534,49.534,0,0,0,564.374,669c.536,1.8,1,2.187,1.709,2.018,0,0,.559-.555.6-3.567s-.716-3.329-.716-3.329l.429.008a3.915,3.915,0,0,0-.257-1.546s-1.221-.007-1.66.045A1.122,1.122,0,0,0,563.342,663.955Z" transform="translate(-516.77 -607.833)" fill="#7e6760"/>
      <path id="Path_498" data-name="Path 498" d="M586.248,669.156c-.1,1.225-.331,1.7-.512,1.875a.978.978,0,0,0,.49-.008s.559-.555.6-3.567-.717-3.329-.717-3.329l.429.008a3.915,3.915,0,0,0-.257-1.546s-.521,0-1,.01C586.221,663.856,586.414,667.192,586.248,669.156Z" transform="translate(-536.915 -607.836)" fill="#65534e"/>
      <path id="Path_499" data-name="Path 499" d="M545.57,671.152l1.885-.061s.2-.049.243-.612-.264-.595-.264-.595l-1.844-.194Z" transform="translate(-500.486 -614.349)" fill="#ffd0a5"/>
      <path id="Path_500" data-name="Path 500" d="M456.841,566.845s-1.4,4.342.413,7.166c0,0,.775,2.055,6.6,2.515a.666.666,0,0,0,.673-.421,1.177,1.177,0,0,0-.042-.967.322.322,0,0,0-.226-.178c-.6-.126-2.879-.685-3.738-2-1.045-1.593.088-5.3.088-5.3S457.371,565.56,456.841,566.845Z" transform="translate(-418.615 -519.621)" fill="#3c64a2"/>
      <path id="Path_501" data-name="Path 501" d="M490.443,575.147a2.3,2.3,0,0,1-1.049-.257c-.451,1.368-1.269,4.492.039,6.06a5.744,5.744,0,0,0,4.753,1.923.321.321,0,0,0-.206-.145c-.6-.127-2.879-.685-3.738-2C489.195,579.133,490.443,575.147,490.443,575.147Z" transform="translate(-448.337 -527.383)" fill="#335587"/>
      <path id="Path_502" data-name="Path 502" d="M479.309,551.041c.074-.578.146-1.055.213-1.381l.05-3.16-9.953.174s.173,1.777.423,4.229a8.279,8.279,0,0,0,3.564,1.144v-.014l.621.035A16.275,16.275,0,0,0,479.309,551.041Z" transform="translate(-430.812 -501.339)" fill="#3c64a2"/>
      <path id="Path_503" data-name="Path 503" d="M573.644,549.66l.05-3.16-1.438.025c.018.683-.019,2.491-.036,4.91.452-.133.915-.287,1.211-.394C573.5,550.461,573.577,549.986,573.644,549.66Z" transform="translate(-524.934 -501.339)" fill="#3c64a2"/>
      <path id="Path_504" data-name="Path 504" d="M501.933,608.34a10.271,10.271,0,0,0,2.767.248s.1.325-1.421.238S501.933,608.34,501.933,608.34Z" transform="translate(-460.449 -558.069)" fill="#3c64a2"/>
      <path id="Path_505" data-name="Path 505" d="M488.8,360.441h-4.3a6.182,6.182,0,0,0-.887,2.287c-.031.923.666,13.139.666,13.139l6.133.112s2.054-12.031,2.314-13.248-.9-2.953-2.083-2.924A2.946,2.946,0,0,0,488.8,360.441Z" transform="translate(-443.644 -330.073)" fill="#f0f0f0"/>
      <path id="Path_506" data-name="Path 506" d="M538.091,365c.058,1.181-3.388,8.888-4.1,10.883s-.669,6.308.806,7.7c1.245,1.173,3.232.727,3.823.559a.254.254,0,0,0,.183-.226l.739-11h0a37.878,37.878,0,0,1,.661-6.454A4.265,4.265,0,0,0,538.091,365Z" transform="translate(-489.446 -334.838)" fill="#edb056"/>
      <path id="Path_507" data-name="Path 507" d="M457.542,377.987A76.231,76.231,0,0,1,456.2,367.17a5.405,5.405,0,0,0-2.867,1.95c.413,1.952.768,6.018.768,6.018l-.188,10.577a.364.364,0,0,0,.376.37c.761-.026,2.462-.5,3.255-4.04C457.542,382.046,458.019,379.21,457.542,377.987Z" transform="translate(-415.868 -336.828)" fill="#edb056"/>
      <path id="Path_508" data-name="Path 508" d="M479.65,366.288s-.635-3.5-1.193-5.612-2.139-5.34-.489-8.067c0,0,.44-.873,4.372-.93s4.5.321,4.538,1.818a13.987,13.987,0,0,1-1.57,4.958c-.364.621-3.149,6.219-3.417,8.055a15.672,15.672,0,0,1,.6-4.444,63.544,63.544,0,0,1,2.415-6.194c.607-1.392,2.372-3.766-1.273-3.534h-3.129s-2.079.549-2.079,2.2S480.129,363.827,479.65,366.288Z" transform="translate(-437.8 -322.612)" fill="#f5d29d"/>
      <path id="Path_509" data-name="Path 509" d="M511.608,352.1s-1.818-.045-1.989.36.426,1.311,2.231,1.192,2.757-.684,2.756-1.378S511.608,352.1,511.608,352.1Z" transform="translate(-467.481 -322.831)" fill="#8a8a8a"/>
      <path id="Path_510" data-name="Path 510" d="M510,337.414a5.015,5.015,0,0,1,.31,1.969s1.054,1.145,3.927,0l.368-.233a4.858,4.858,0,0,1,.017-2.3Z" transform="translate(-467.855 -309.014)" fill="#ffbf8f"/>
      <path id="Path_511" data-name="Path 511" d="M512.553,330.877a9.222,9.222,0,0,1,.633-2.427l-5.316.909a8.785,8.785,0,0,1,.469,1.51,5.376,5.376,0,0,1,1.653-.206A12.916,12.916,0,0,1,512.553,330.877Z" transform="translate(-465.901 -301.308)" fill="#ffb481"/>
      <path id="Path_512" data-name="Path 512" d="M512.21,393.942A27.266,27.266,0,0,0,511,401.8a.366.366,0,0,0,.061.207l.543.8a.309.309,0,0,0,.483.036l.668-.73a.446.446,0,0,0,.116-.319c-.041-1.041-.236-6.219-.06-7.972Z" transform="translate(-468.773 -361.285)" fill="#ef4945"/>
      <path id="Path_513" data-name="Path 513" d="M518.19,374.371s.371,1.4.768,1.492,1.259-1.368,1.259-1.368-.478-1.031-1.15-1.036S518.19,374.371,518.19,374.371Z" transform="translate(-475.369 -342.598)" fill="#cc3e3e"/>
      <path id="Path_514" data-name="Path 514" d="M501.1,357a2.582,2.582,0,0,0,1.611,1.322s-.762,1.191-1.022,1.77a.134.134,0,0,1-.224.031,6.852,6.852,0,0,1-1.167-1.959C500.3,358.157,500.8,357.1,501.1,357Z" transform="translate(-458.957 -327.499)" fill="#c6c6c6"/>
      <path id="Path_515" data-name="Path 515" d="M533.5,356.28s-.767.846-3.313,1.388c0,0,.775,1.3,1.056,1.911a.184.184,0,0,0,.281.07c.584-.445,2.295-1.8,2.445-2.479Z" transform="translate(-486.377 -326.838)" fill="#c6c6c6"/>
      <path id="Path_516" data-name="Path 516" d="M436.894,138.038a.916.916,0,0,0-1.1.792c-.235,1,.608,1.633.5,4.588l.5.352,1.064-4.253Z" transform="translate(-399.746 -126.616)" fill="#945e43"/>
      <path id="Path_517" data-name="Path 517" d="M428.747,196.633s-.517-1.4-1.453-.868.555,2.231.413,3.32.032,1.827,1.14,2.091A36.552,36.552,0,0,0,428.747,196.633Z" transform="translate(-391.699 -179.479)" fill="#ffb481"/>
      <path id="Path_518" data-name="Path 518" d="M438.282,222.584s-.053-2.019-.65-1.781.042,1,.042,1-.243-.474,0-.586S438.282,222.584,438.282,222.584Z" transform="translate(-401.235 -202.539)" fill="#ec8f6f"/>
      <path id="Path_519" data-name="Path 519" d="M447.454,141.086s-1.668.248-2.137,3.085-.025,5.252-.16,6.47.016,3.183,3.148,5.65,4.228,2.027,6.07,1.137,4.42-2.446,4.747-3.522a8.609,8.609,0,0,0,.454-3.481s.854.26,1.157-.47-.259-.9.2-2.568.326-2.083-.234-2.135-1.422,1.263-1.637,1.682c0,0,.236-5.414-.5-6.373Z" transform="translate(-408.315 -128.945)" fill="#ffd0a5"/>
      <path id="Path_520" data-name="Path 520" d="M518.989,145.251c-.561-.052-1.422,1.263-1.637,1.682,0,0,.236-5.414-.5-6.373l-2.495.119a4.772,4.772,0,0,1,1.807,3.81c-.108,2.67.528,8.935-.426,10.184a11.256,11.256,0,0,1-4.535,3.058,5.3,5.3,0,0,1-2.568-.075c1.7.854,2.655.441,4.028-.222,1.842-.89,4.42-2.446,4.747-3.522a8.611,8.611,0,0,0,.454-3.481s.854.26,1.157-.47-.259-.9.2-2.568S519.55,145.307,518.989,145.251Z" transform="translate(-466.608 -128.945)" fill="#ffbf8f"/>
      <path id="Path_521" data-name="Path 521" d="M460.371,207.277a3.8,3.8,0,0,1,2.314-.361,2.294,2.294,0,0,1,1.666,2.1,7.2,7.2,0,0,1-.607,3.66.884.884,0,0,0,.578.473c.457.143,1.1.206,1.229.938s-.449.578-.472.18-.131-.654-.464-.676-1.52-.107-1.322-1.011a7.444,7.444,0,0,0,.108-3.338l-2.686-.1S459.716,208.061,460.371,207.277Z" transform="translate(-422.123 -189.758)" fill="#ffbf8f"/>
      <path id="Path_522" data-name="Path 522" d="M533.4,204.447s-.816-.042-.826,1.09.679,1.266,2.048,1.135,2.488.434,2.251-1.983A3.844,3.844,0,0,0,533.4,204.447Z" transform="translate(-488.559 -187.292)" fill="#ffbf8f"/>
      <path id="Path_523" data-name="Path 523" d="M503.8,217.68a4.568,4.568,0,0,1,.693,2.759,4.856,4.856,0,0,1-.528,2.153s1.15.421,1.254.936a2.706,2.706,0,0,0-.709-.364,1.221,1.221,0,0,1-.862-.555A6.256,6.256,0,0,0,503.8,217.68Z" transform="translate(-462.03 -199.692)" fill="#ec8f6f"/>
      <path id="Path_524" data-name="Path 524" d="M525,332.075a3.153,3.153,0,0,1,1.173-.178c.346.093.238.287.161.34C526.074,332.414,526.14,331.979,525,332.075Z" transform="translate(-481.616 -304.452)" fill="#ffbf8f"/>
      <path id="Path_525" data-name="Path 525" d="M459.178,203.4a.192.192,0,0,1-.29-.134.856.856,0,0,1,.17-.626s.5-.65,2.449-.545a.5.5,0,0,1,.343.165,1.322,1.322,0,0,1,.326.635.316.316,0,0,1-.406.351A3.224,3.224,0,0,0,459.178,203.4Z" transform="translate(-420.961 -185.382)" fill="#8c5334"/>
      <path id="Path_526" data-name="Path 526" d="M533.456,197.272a.466.466,0,0,0-.193.157,1.011,1.011,0,0,0-.131.744.133.133,0,0,0,.061.093.131.131,0,0,0,.111.011,6.753,6.753,0,0,1,2.182-.382,3.677,3.677,0,0,1,1.769.378.1.1,0,0,0,.088.007.1.1,0,0,0,.063-.061,1.035,1.035,0,0,0,.065-.421.319.319,0,0,0-.144-.248A4.062,4.062,0,0,0,533.456,197.272Z" transform="translate(-489.061 -180.636)" fill="#8c5334"/>
      <path id="Path_527" data-name="Path 527" d="M619.09,220.586a1.122,1.122,0,0,0,.47-.976c-.047-.639-.074-1.107.36-1.121a1.9,1.9,0,0,0-.1.94C619.881,220,619.5,220.608,619.09,220.586Z" transform="translate(-567.931 -200.435)" fill="#ec8f6f"/>
      <path id="Path_528" data-name="Path 528" d="M466.609,225.1c-.22.094-.544.512-.257.855s1.759.785,2.314,0S467.488,224.725,466.609,225.1Z" transform="translate(-427.711 -206.375)" fill="#fff"/>
      <path id="Path_529" data-name="Path 529" d="M477.143,227.522a.612.612,0,1,1-.611-.612.612.612,0,0,1,.611.612Z" transform="translate(-436.592 -208.159)" fill="#2c3438"/>
      <path id="Path_530" data-name="Path 530" d="M483.21,230.619a.2.2,0,1,1-.2-.2A.2.2,0,0,1,483.21,230.619Z" transform="translate(-442.912 -211.379)" fill="#fff"/>
      <path id="Path_531" data-name="Path 531" d="M543.168,223.016c-.476.094-1.538.584-1.538.949s.641.627,1.72.583,1.463-.476,1.479-.9S544.083,222.835,543.168,223.016Z" transform="translate(-496.872 -204.545)" fill="#fff"/>
      <circle id="Ellipse_235" data-name="Ellipse 235" cx="0.612" cy="0.612" r="0.612" transform="translate(45.665 19.294) rotate(-45)" fill="#2c3438"/>
      <path id="Path_532" data-name="Path 532" d="M562.96,229.8a.2.2,0,1,1-.2-.2A.2.2,0,0,1,562.96,229.8Z" transform="translate(-516.072 -210.627)" fill="#fff"/>
      <path id="Path_533" data-name="Path 533" d="M597.21,137.728a3.958,3.958,0,0,1,1.035,2.528c.083,1.619.007,4.738.007,4.738s.413-1.171.832-1.366c0,0,.2-1.164.289-2.087s.909-3.951-.469-4.431Z" transform="translate(-547.859 -125.78)" fill="#945e43"/>
      <path id="Path_534" data-name="Path 534" d="M438.1,74.092a5.737,5.737,0,0,0-4.61,1.7c-2.095,2.091-.872,4.1.734,4.38S438.1,74.092,438.1,74.092Z" transform="translate(-396.645 -67.943)" fill="#844c2c"/>
      <path id="Path_535" data-name="Path 535" d="M448.2,143s-.826,1.29.892,2.195,3.042-1.476,5.759-1.383Z" transform="translate(-410.984 -131.183)" fill="#7f452b"/>
      <path id="Path_536" data-name="Path 536" d="M451.763,71.913a8.125,8.125,0,0,0-4.966-1.921c-2.777.044-5.9,1.695-6.878,3.54s.345,3.218,2.632,3.361a13.4,13.4,0,0,0,3.305-.083,17.162,17.162,0,0,0,4.628.3c2.066-.242,4.083-1.57,4.3-2.247C455.1,73.862,454.641,72.065,451.763,71.913Z" transform="translate(-403.266 -64.207)" fill="#8c5334"/>
      <path id="Path_537" data-name="Path 537" d="M487.722,93.25c2.247.413,2.247,1.669,2.247,1.669-.977-1.24-2.644-1.23-4.091-1.088s-3.862.316-3.862.316c3.56.015,2.829.065,4.838.13,2.239.072,2.685,1.363,2.479,2.084s-1.091,2.093-4.823,1.634a9.666,9.666,0,0,1-5.72-2.675,7.962,7.962,0,0,0,3.534,2.924,16,16,0,0,0,4.109.2c2.066-.243,4.083-1.57,4.3-2.247C491.06,95.2,490.6,93.4,487.722,93.25Z" transform="translate(-439.225 -85.544)" fill="#7f452b"/>
      <path id="Path_538" data-name="Path 538" d="M501.22,70.335a12.052,12.052,0,0,1,3.842,1.182,4.947,4.947,0,0,0,3.236.423,8.107,8.107,0,0,0-4.966-1.919A8.625,8.625,0,0,0,501.22,70.335Z" transform="translate(-459.801 -64.234)" fill="#7f452b"/>
      <path id="Path_539" data-name="Path 539" d="M500.23,291.335c-.178.2.176,1.4,1.433,1.8a.731.731,0,0,0,.507-.037c1.036-.744,1.6-.113,2.057-.727a2.938,2.938,0,0,0,.6-1.625c-.04-.73-.413-.844-.518-.744a4.913,4.913,0,0,1-1.989,1.1C501.226,291.386,500.543,290.99,500.23,291.335Z" transform="translate(-458.853 -266.011)" fill="#d67056"/>
      <path id="Path_540" data-name="Path 540" d="M519.226,316.441a1.078,1.078,0,0,0-1.176.648c.12.037.248.072.387.1a2.041,2.041,0,0,0,2.176-.868A.94.94,0,0,0,519.226,316.441Z" transform="translate(-475.24 -289.963)" fill="#f0a58c"/>
      <path id="Path_541" data-name="Path 541" d="M507.056,290.28l-.011.008a5.607,5.607,0,0,1-2.03,1,15.493,15.493,0,0,1-1.845.2,1.376,1.376,0,0,0,1.473.566C506.286,291.675,506.957,291.291,507.056,290.28Z" transform="translate(-461.59 -266.292)" fill="#fff"/>
      <path id="Path_542" data-name="Path 542" d="M446.88,611.66l-.279.827-3.9,1.954-8.565.4v-1.038Z" transform="translate(-398.264 -561.115)" fill="#339f46"/>
      <path id="Path_543" data-name="Path 543" d="M513.29,609.96l6.2.141-4.435,2.294Z" transform="translate(-470.874 -559.555)" fill="#2f8e43"/>
      <path id="Path_544" data-name="Path 544" d="M522.775,592.2a4.92,4.92,0,0,1-.954,1.518c-.568.531-1.741,1.679-2.652,1.334,0,0-.473.154-.44-.378a.527.527,0,0,1-.46-.308c-.132-.3,1.566-.585,2.057-1.735a.065.065,0,0,0-.054-.089.894.894,0,0,0-.5.116c-.341.18-.391.231-.474.155-.2-.19-.176-.387.431-.757a2.306,2.306,0,0,1,1.128-.491,1.419,1.419,0,0,0,.833-.27Z" transform="translate(-475.434 -542.428)" fill="#ffd0a5"/>
      <path id="Path_545" data-name="Path 545" d="M525.853,617.68a6.211,6.211,0,0,1-1.933,1.2l.009.165A3.251,3.251,0,0,0,525.853,617.68Z" transform="translate(-480.625 -566.637)" fill="#ffbf8f"/>
      <path id="Path_546" data-name="Path 546" d="M529.25,622.669a4.562,4.562,0,0,0,1.778-1.269,3.818,3.818,0,0,1-1.556,1.322Z" transform="translate(-485.515 -570.05)" fill="#ffbf8f"/>
      <path id="Path_547" data-name="Path 547" d="M412.94,540.42l-11.39.6,1.288,7.951,9.71-.371Z" transform="translate(-368.367 -495.762)" fill="#37b34a"/>
      <ellipse id="Ellipse_236" data-name="Ellipse 236" cx="0.801" cy="0.731" rx="0.801" ry="0.731" transform="translate(38.464 47.806)" fill="#f4d345"/>
      <path id="Path_548" data-name="Path 548" d="M572.694,398.071s2.817-5.92,2.239-9.06-.255-6.6,1.05-6.439,3.523,4.285,2.4,8.522-2.744,6.8-4.914,8.493C572.99,399.547,572.22,399.146,572.694,398.071Z" transform="translate(-525.232 -350.953)" fill="#eaa13a"/>
      <path id="Path_549" data-name="Path 549" d="M556.484,570.4s.888.485.34,1.2-1.449,1.476-2.027.98-1.145-1.134-.622-2.023S555.521,568.942,556.484,570.4Z" transform="translate(-508.19 -522.5)" fill="#f9e3c3"/>
    </g>
  </g>
</svg>
