<svg xmlns="http://www.w3.org/2000/svg" width="414.5" height="165.088" viewBox="0 0 414.5 165.088">
  <g id="Group_1838" data-name="Group 1838" transform="translate(0 -197.898)">
    <rect id="Rectangle_1555" data-name="Rectangle 1555" width="414.5" height="46.745" transform="translate(0 316.219)" fill="#2070ad"/>
    <path id="Path_975" data-name="Path 975" d="M264.536,126.02l-1.5.393-.524.262.131.362,4.118,11.6,1.205,3.135h6.829l.646-2.917,3.594-11.764.148-.48-1.375-.393Z" transform="translate(-38.881 112.01)" fill="#fff"/>
    <path id="Path_976" data-name="Path 976" d="M247.628,128.35c-6.349,1.253-11.249,4.113-11.249,8.681l-.52,6.052h17.091l-1.205-3.135Z" transform="translate(-23.868 110.697)" fill="#b0b0b0"/>
    <path id="Path_977" data-name="Path 977" d="M294.88,128.47l-3.594,11.764-.646,2.917h16.528l-.52-6.052C306.648,132.693,301.474,129.78,294.88,128.47Z" transform="translate(-54.727 110.629)" fill="#b0b0b0"/>
    <path id="Path_978" data-name="Path 978" d="M276.03,122.049c-6.34-.921-8.528-4.148-8.528-4.148l8.768-3.441h-6.987a2.361,2.361,0,0,0-2.594,2.026v5.24a2.364,2.364,0,0,0,2.594,2.026h8.3a2.364,2.364,0,0,0,2.594-2.026v-.114A7.029,7.029,0,0,1,276.03,122.049Z" transform="translate(-41.235 118.522)" fill="#ededed"/>
    <path id="Path_979" data-name="Path 979" d="M277.88,114.46h-1.31l-9.38,2.389s1.437,4.336,9.139,5.2c1.86.21,3.192.546,4.161.07v-5.633A2.376,2.376,0,0,0,277.88,114.46Z" transform="translate(-41.517 118.522)" fill="#c9c9c9"/>
    <path id="Path_980" data-name="Path 980" d="M277.586,77.068c-.323-.087-.694.114-1.048.528v-.6c0-6.55-4.991-11.834-11.144-11.834s-11.139,5.3-11.139,11.834v.6c-.354-.437-.725-.616-1.048-.528-.786.214-1.022,2.039-.524,4.07s1.528,3.493,2.31,3.3a1.07,1.07,0,0,0,.62-.777c1.891,4.891,5.559,9.318,9.768,9.318s7.86-4.428,9.773-9.318a1.057,1.057,0,0,0,.664.777c.782.214,1.817-1.262,2.31-3.3S278.372,77.282,277.586,77.068Z" transform="translate(-33.198 146.294)" fill="#fff"/>
    <path id="Path_981" data-name="Path 981" d="M256.17,126.838l7.017,11.375-3.659-12.943Z" transform="translate(-35.309 112.432)" fill="#f2f2f2"/>
    <path id="Path_982" data-name="Path 982" d="M292.12,138.713l7.022-11.375-3.358-1.568Z" transform="translate(-55.561 112.15)" fill="#f2f2f2"/>
    <path id="Path_983" data-name="Path 983" d="M276.462,98.743a13.279,13.279,0,0,1-2.07,5.864,7.319,7.319,0,0,1-2.026.677,27.139,27.139,0,0,0-.786-4.1,6.747,6.747,0,0,0-3.223-1.655v1.485a6.471,6.471,0,0,1,2.266.956,11.248,11.248,0,0,1,1.131,3.576,8.677,8.677,0,0,1-4.174,1.371,7.021,7.021,0,0,1-3.668-1.371,11.247,11.247,0,0,1,1.131-3.576,6.507,6.507,0,0,1,2.279-.956V99.529a6.764,6.764,0,0,0-3.223,1.655,26.576,26.576,0,0,0-.782,4.1,7.345,7.345,0,0,1-2.031-.677,13.279,13.279,0,0,1-2.07-5.864A16.851,16.851,0,0,0,258,92.73l-1.279.4,1.358,6.061a15.72,15.72,0,0,0,2.694,5.834,5.192,5.192,0,0,1,1.83,1.655,8.272,8.272,0,0,0,4.7,2.668l.271.061a1.243,1.243,0,0,0,.253-.052c1.773-.41,4.087-1.179,5.24-2.677a5.153,5.153,0,0,1,1.83-1.655,15.846,15.846,0,0,0,2.712-5.834l1.354-6.061-1.275-.4a16.764,16.764,0,0,0-1.227,6.013Z" transform="translate(-35.619 130.763)" fill="#575757"/>
    <path id="Path_984" data-name="Path 984" d="M267.457,63.7c-2.7-.358-14.218-1.109-11.353,13l1.668.782s-.742-2.266-.437-3.271.913-6.319,4.441-5.45a13.428,13.428,0,0,0,5.271.288,13.388,13.388,0,0,0,5.607-.231c3.533-.873,4.144,4.445,4.45,5.445s-.437,3.271-.437,3.271l1.668-.777C281.06,63.347,270.8,63.351,267.457,63.7Z" transform="translate(-35.016 147.199)" fill="#575757"/>
    <path id="Path_985" data-name="Path 985" d="M273.184,93.984H271.7V92.324h-6.8v3.493h6.8v-1.41h1.48v1.406h6.8V92.32h-6.8Zm-2,1.31h-5.755V92.848h5.755Zm2.528-2.441h5.751v2.441h-5.751Z" transform="translate(-40.227 130.994)" fill="#333030"/>
    <path id="Path_986" data-name="Path 986" d="M170.437,123.984c-5.087-.873-6.829-3.93-6.829-3.93l7.039-3.266h-5.6a2,2,0,0,0-2.079,1.926v4.965a2,2,0,0,0,2.079,1.921h6.668a2.009,2.009,0,0,0,2.083-1.921v-.114A4.757,4.757,0,0,1,170.437,123.984Z" transform="translate(17.194 117.211)" fill="#ededed"/>
    <path id="Path_987" data-name="Path 987" d="M171.818,116.827h-1.065l-7.6,2.183s.926,4,7.423,5.048a4.9,4.9,0,0,0,3.345-.437v-4.869a2.009,2.009,0,0,0-2.1-1.926Z" transform="translate(17.092 117.189)" fill="#c9c9c9"/>
    <path id="Path_988" data-name="Path 988" d="M171.012,79.028c-.31-.087-.659.1-1,.5v-.572c0-6.214-4.742-11.244-10.589-11.244s-10.585,5.03-10.585,11.244v.572c-.336-.393-.69-.585-1-.5-.747.2-.969,1.934-.5,3.865s1.454,3.336,2.183,3.131a1,1,0,0,0,.629-.72c1.8,4.646,5.284,8.851,9.284,8.851s7.489-4.205,9.288-8.851a.987.987,0,0,0,.585.738c.742.205,1.725-1.2,2.183-3.131S171.759,79.229,171.012,79.028Z" transform="translate(26.133 144.858)" fill="#fff"/>
    <path id="Path_989" data-name="Path 989" d="M167.48,138.849a17.03,17.03,0,0,1-26.047-.389,10.572,10.572,0,0,0-2.856,4.572l-.437,5.747h32.471l-.415-5.747A10.324,10.324,0,0,0,167.48,138.849Z" transform="translate(31.181 105.002)" fill="#bdbdbd"/>
    <path id="Path_990" data-name="Path 990" d="M163.594,131.449h-7.03a2.128,2.128,0,0,1-1.882-2.079,14.148,14.148,0,0,0-6.471,2.974,15.532,15.532,0,0,0,23.846.376,14.746,14.746,0,0,0-6.6-3.223A2.1,2.1,0,0,1,163.594,131.449Z" transform="translate(25.508 110.122)" fill="#ededed"/>
    <path id="Path_991" data-name="Path 991" d="M158.859,141.948a15.091,15.091,0,0,1-12.074-5.768,14.376,14.376,0,0,0-1.1,1,17.03,17.03,0,0,0,26.047.389,14.413,14.413,0,0,0-1.1-1.009,15.152,15.152,0,0,1-11.773,5.393Z" transform="translate(26.934 106.286)" fill="#fff"/>
    <path id="Path_992" data-name="Path 992" d="M191.01,80.576c-1.218-5.72-3.856-9.851-8.3-11.956a5.532,5.532,0,0,1-1.773,5.572,5.93,5.93,0,0,1,.14,2.965,3.543,3.543,0,0,1,.236.319,6.4,6.4,0,0,0,.987.118c4.367,5.808,2.751,12.34-.166,19.052-1.087,2.284,2.467,4.131,7.86,5.795-2.109-4.616-3.445-7.908-1.24-12.257A13.905,13.905,0,0,0,191.01,80.576Z" transform="translate(7.07 144.345)" fill="#575757"/>
    <path id="Path_993" data-name="Path 993" d="M160.618,63.366c-8.388.533-12.869,5.467-14.58,13.5a14,14,0,0,0,2.236,9.607c2.183,4.367.873,7.637-1.245,12.262,5.4-1.668,8.96-3.515,7.86-5.8-3.03-6.76-4.506-13.292-.17-19.056a6.162,6.162,0,0,0,4.227-1.982,5.692,5.692,0,0,1-3.057,3.891c2.026-.131,3.581-1.533,4.8-3.812.1,3.17-2.061,4.493-4.974,5.24,6.537-.035,10.3-2.655,10.449-8.55C165.971,65.248,164.321,63.279,160.618,63.366Z" transform="translate(26.821 147.306)" fill="#575757"/>
    <path id="Path_994" data-name="Path 994" d="M322.79,149.774c-5.908-.873-7.947-3.865-7.947-3.865l8.174-3.21h-6.5a2.2,2.2,0,0,0-2.415,1.891v4.864a2.2,2.2,0,0,0,2.415,1.891h7.733a2.2,2.2,0,0,0,2.415-1.891v-.1A6.318,6.318,0,0,1,322.79,149.774Z" transform="translate(-67.943 102.613)" fill="#ededed"/>
    <path id="Path_995" data-name="Path 995" d="M324.479,142.7h-1.236L314.51,145s1.192,3.716,8.454,4.917a6.3,6.3,0,0,0,3.93-.568v-4.773A2.2,2.2,0,0,0,324.479,142.7Z" transform="translate(-68.174 102.613)" fill="#c9c9c9"/>
    <path id="Path_996" data-name="Path 996" d="M324.236,107.86c-.3-.083-.646.1-.978.493v-.563c0-6.113-4.65-11.03-10.38-11.03s-10.371,4.939-10.371,11.021v.563c-.332-.389-.677-.576-.978-.493-.729.2-.948,1.9-.489,3.795s1.424,3.271,2.157,3.057a.987.987,0,0,0,.572-.725c1.747,4.559,5.183,8.685,9.109,8.685s7.34-4.131,9.1-8.685a.987.987,0,0,0,.572.725c.734.2,1.694-1.179,2.157-3.057S324.97,108.061,324.236,107.86Z" transform="translate(-60.451 128.493)" fill="#ebebeb"/>
    <path id="Path_997" data-name="Path 997" d="M317.25,87.941c-2.725-2.118-6.947-.555-9.912,1.559-4.24,3.022-4.864,6.69-6.947,11.292a25.466,25.466,0,0,0,17.467-5.677A4.719,4.719,0,0,0,317.25,87.941Z" transform="translate(-60.22 134.028)"/>
    <path id="Path_998" data-name="Path 998" d="M336.3,92.415l1.057,4.039h1.218a1.393,1.393,0,0,0,.162,1.467l3.738,7.991a2.183,2.183,0,0,1,.782-1.144c.437-5.393.406-10.161-1.271-12.9C340.322,89.616,337.645,90.878,336.3,92.415Z" transform="translate(-80.449 131.938)"/>
    <path id="Path_999" data-name="Path 999" d="M304.471,117.8a2.183,2.183,0,0,1,.782,1.144l1.856-3.965a10.654,10.654,0,0,1-2.869-1.262C304.271,115.021,304.349,116.388,304.471,117.8Z" transform="translate(-62.389 118.939)"/>
    <path id="Path_1000" data-name="Path 1000" d="M317.659,157.045H309.5a2.279,2.279,0,0,1-2.183-2.035A28.023,28.023,0,0,0,302,156.285a4.834,4.834,0,0,0,4.292,2.62h14.545a4.8,4.8,0,0,0,4.205-2.463,29.788,29.788,0,0,0-5.218-1.31A2.271,2.271,0,0,1,317.659,157.045Z" transform="translate(-61.127 95.679)" fill="#ededed"/>
    <path id="Path_1001" data-name="Path 1001" d="M316.569,158.872a5.812,5.812,0,0,1-5.122,3.057H296.9a5.808,5.808,0,0,1-5.205-3.249c-3.524,1.45-5.886,3.685-5.886,6.747l-.48,5.637h37.689l-.48-5.637C322.538,162.549,320.141,160.348,316.569,158.872Z" transform="translate(-51.736 93.611)" fill="#cfcfcf"/>
    <path id="Path_1002" data-name="Path 1002" d="M319.66,160.56H305.115a4.834,4.834,0,0,1-4.292-2.62c-.314.109-.62.227-.913.349a5.808,5.808,0,0,0,5.205,3.249H319.66a5.812,5.812,0,0,0,5.122-3.057c-.3-.122-.6-.245-.917-.358A4.8,4.8,0,0,1,319.66,160.56Z" transform="translate(-59.949 94.028)" fill="#2f3a3e"/>
    <path id="Path_1003" data-name="Path 1003" d="M137.919,129.56l-4.458-1.07L128.5,136.9l.943,6.218,6.087,4.144s7.218.568,4.205-3.2S137.919,129.56,137.919,129.56Z" transform="translate(36.612 110.618)"/>
    <path id="Path_1004" data-name="Path 1004" d="M97.622,129.571s1.192,10.733-1.821,14.5,4.205,3.2,4.205,3.2l6.087-4.135.943-6.209-4.961-8.415Z" transform="translate(55.446 110.607)"/>
    <path id="Path_1005" data-name="Path 1005" d="M109.855,151.92l-1.327.376-.467.253.118.349,3.646,11.135,1.065,3.009h6.048l.576-2.8,3.179-11.3.131-.463-1.218-.376Z" transform="translate(48.126 97.419)" fill="#dbdbdb"/>
    <path id="Path_1006" data-name="Path 1006" d="M95.537,154.16c-3.319,4.319-8.663,4.943-9.607,10.174l-.31,3.969h14.633l-1.065-3.009Z" transform="translate(60.767 96.157)" fill="#d7d7d7"/>
    <path id="Path_1007" data-name="Path 1007" d="M136.742,154.27l-3.179,11.3-.563,2.8h14.131l-.306-3.969C146.074,160.837,142.065,159.126,136.742,154.27Z" transform="translate(34.077 96.095)" fill="#d7d7d7"/>
    <path id="Path_1008" data-name="Path 1008" d="M120.053,147.581c-5.611-.921-7.55-4.144-7.55-4.144L120.267,140H114.1a2.174,2.174,0,0,0-2.3,2.026v5.214a2.173,2.173,0,0,0,2.3,2.022h7.349a2.169,2.169,0,0,0,2.293-2.022v-.114A5.463,5.463,0,0,1,120.053,147.581Z" transform="translate(46.019 104.134)" fill="#ededed"/>
    <path id="Path_1009" data-name="Path 1009" d="M121.666,140h-1.179l-8.3,2.389s1.275,4.332,8.091,5.192c1.651.21,2.83.546,3.685.07v-5.624A2.183,2.183,0,0,0,121.666,140Z" transform="translate(45.8 104.134)" fill="#c9c9c9"/>
    <path id="Path_1010" data-name="Path 1010" d="M121.412,102.655c-.284-.092-.611.114-.926.524v-.6c0-6.524-4.419-11.816-9.869-11.816s-9.864,5.292-9.864,11.816v.6c-.319-.41-.646-.616-.934-.524-.69.214-.9,2.03-.463,4.065s1.354,3.493,2.048,3.288c.245-.074.437-.358.546-.777,1.677,4.886,4.921,9.305,8.65,9.305s6.987-4.419,8.655-9.305c.118.437.3.7.546.777.694.214,1.611-1.258,2.048-3.288S122.106,102.873,121.412,102.655Z" transform="translate(53.158 131.873)" fill="#fff"/>
    <path id="Path_1011" data-name="Path 1011" d="M114.953,155.873c-3.358-1-3.55-2.843-3.55-2.843l-.153,1.419.655,2.3,1.541,3.013,2.62-.546S118.311,156.877,114.953,155.873Z" transform="translate(46.329 96.794)" fill="#dbdbdb"/>
    <path id="Path_1012" data-name="Path 1012" d="M128.826,156.637c-3.354,1-1.118,3.345-1.118,3.345l2.62.546,1.546-3.013.655-2.3-.153-1.424S132.184,155.628,128.826,156.637Z" transform="translate(37.469 96.366)" fill="#dbdbdb"/>
    <path id="Path_1013" data-name="Path 1013" d="M101.21,154.516l6.755,9.76-3.113-11.925Z" transform="translate(51.985 97.177)" fill="#333030"/>
    <path id="Path_1014" data-name="Path 1014" d="M134.29,164.434l6.987-9.31-3.812-2.865Z" transform="translate(33.35 97.228)" fill="#333030"/>
    <path id="Path_1015" data-name="Path 1015" d="M122.329,170.34,120.29,177.4h4.956l-1.79-7.061Z" transform="translate(41.237 87.043)" fill="#0c0a0a"/>
    <path id="Path_1016" data-name="Path 1016" d="M122.176,160.874l-.546,2.175.607,2.218h2.782l.668-2.07-.563-2.367Z" transform="translate(40.482 92.4)" fill="#0c0a0a"/>
    <path id="Path_1017" data-name="Path 1017" d="M123.69,161.55l1.838.524.5,1.4-.1,1.843.546-1.8-.441-1.969Z" transform="translate(39.321 91.994)" fill="#514d4d"/>
    <path id="Path_1018" data-name="Path 1018" d="M128.334,177.818h.472l-1.616-6.7Z" transform="translate(37.35 86.603)" fill="#514d4d"/>
    <path id="Path_1019" data-name="Path 1019" d="M111.9,88.073c-4.175-.5-7.305,1.817-9.707,6.113a9.305,9.305,0,0,0-.17,7.454l1.2,6.052c.463-3.026,1.1-6.039,3.24-8.9.41,1.458-.262,2.716-1.17,3.93a9.108,9.108,0,0,0,4.515-4.685,5.79,5.79,0,0,1-1.672,4.183,5.217,5.217,0,0,0,3.768-3.515c.716,1.428.044,2.646-1.258,3.768,5.205-.873,8.685-3.21,8.537-8.537C119.117,90.719,116.75,88.736,111.9,88.073Z" transform="translate(51.92 133.425)"/>
    <path id="Path_1020" data-name="Path 1020" d="M139.976,97.93c-1.672,6.026,2.594,7.615,2.1,15.344l1.183-6.052C144.176,100.777,142.692,98.323,139.976,97.93Z" transform="translate(30.367 127.834)"/>
    <path id="Path_1021" data-name="Path 1021" d="M146.42,117.71a1.365,1.365,0,0,1,2.183.166,8.545,8.545,0,0,0-1.341-6.816Z" transform="translate(26.517 120.437)"/>
    <path id="Path_1022" data-name="Path 1022" d="M99.295,117.876a1.368,1.368,0,0,1,2.183-.166l-.838-6.65a8.546,8.546,0,0,0-1.345,6.816Z" transform="translate(53.184 120.437)"/>
    <path id="Path_1023" data-name="Path 1023" d="M121.67,122.845a2.62,2.62,0,0,0-2.594,2.236,2.087,2.087,0,0,0-2.345,0,2.659,2.659,0,1,0,0,.607,1.672,1.672,0,0,1,2.314,0,2.62,2.62,0,1,0,2.62-2.843Zm-7.533,4.7a2.07,2.07,0,1,0,0-.009Zm7.533,0a2.07,2.07,0,1,0,0-.009Z" transform="translate(46.228 113.866)" fill="#0c0a0a"/>
    <path id="Path_1024" data-name="Path 1024" d="M215.912,131.569c-9.415-1.371-12.663-6.161-12.663-6.161l13.026-5.118H205.921c-2.131,0-3.851,1.354-3.851,3.013v7.777c0,1.664,1.72,3.013,3.851,3.013h12.327c2.127,0,3.851-1.349,3.851-3.013v-.17A10.6,10.6,0,0,1,215.912,131.569Z" transform="translate(-4.833 115.238)" fill="#edc89f"/>
    <path id="Path_1025" data-name="Path 1025" d="M218.389,120.29h-1.974l-14.1,3.554s2.707,6.406,13.724,7.816a10.6,10.6,0,0,0,6.2-.769V123.3C222.241,121.644,220.52,120.29,218.389,120.29Z" transform="translate(-4.974 115.238)" fill="#c9aa85"/>
    <path id="Path_1026" data-name="Path 1026" d="M218.229,64.748c-.48-.135-1.031.166-1.559.786v-.9c0-9.707-7.423-17.58-16.545-17.58S183.57,54.91,183.57,64.63c0,.3,0,.6.026.9-.528-.62-1.079-.921-1.559-.786-1.17.319-1.511,3.026-.782,6.043s2.271,5.214,3.428,4.9c.437-.118.729-.537.917-1.157,2.821,7.266,8.262,13.842,14.524,13.842s11.7-6.576,14.515-13.842a1.554,1.554,0,0,0,.917,1.157c1.162.314,2.7-1.878,3.428-4.9S219.395,65.067,218.229,64.748Z" transform="translate(7.108 156.496)" fill="#ffe2c2"/>
    <path id="Path_1027" data-name="Path 1027" d="M212.658,140.56H196.789c-2.14,0-1.633-2.24-1.961-4.48-1.223.179-4.7.917-5.869,1.157l15.9,18.165L219.8,137.394c-.969-.2-4-.616-4.991-.782C214.4,138.739,214.741,140.56,212.658,140.56Z" transform="translate(2.553 106.343)" fill="#edc89f"/>
    <path id="Path_1028" data-name="Path 1028" d="M201.659,156.9,185.778,138.73c-.843.175-1.672.371-2.5.581l18.654,21.5,16.9-21.4c-.734-.188-1.489-.362-2.249-.524Z" transform="translate(5.752 104.85)" fill="#ff5757"/>
    <path id="Path_1029" data-name="Path 1029" d="M200.651,140.787,182.8,163.407,163.049,140.7c-9.524,2.62-13.646,7.493-13.646,14.794l-.183,10.952h66.172l-.188-10.952C215.2,148.407,210.646,143.451,200.651,140.787Z" transform="translate(24.939 103.74)" fill="#ff5757"/>
    <path id="Path_1030" data-name="Path 1030" d="M200.577,161.557l-18.689-21.5-1.017.271,19.746,22.707,17.864-22.611c-.328-.1-.651-.183-1-.266Z" transform="translate(7.11 104.1)" fill="#ffa308"/>
    <path id="Path_1031" data-name="Path 1031" d="M189.767,40.756c-3.249,5.354-3.7,11.414-3,17.493A43.747,43.747,0,0,1,197.208,43.3c3.9,5.45,8.026,6.585,12.563.249a48.671,48.671,0,0,1,10.043,14.7c.956-6,.725-11.79-1.637-17.152C210.085,31.791,198.225,31.9,189.767,40.756Z" transform="translate(3.946 163.782)"/>
    <path id="Path_1032" data-name="Path 1032" d="M205.984,82.08a4.664,4.664,0,1,0,4.664,4.668,4.664,4.664,0,0,0-4.664-4.668Zm0,7.773a3.1,3.1,0,1,1,2.2-.906A3.1,3.1,0,0,1,205.984,89.853Z" transform="translate(-4.41 136.763)" fill="#3c2415"/>
    <path id="Path_1033" data-name="Path 1033" d="M233.508,82.08a4.664,4.664,0,1,0,4.659,4.668A4.664,4.664,0,0,0,233.508,82.08Zm0,7.773a3.1,3.1,0,1,1,3.113-3.1A3.1,3.1,0,0,1,233.508,89.853Z" transform="translate(-19.913 136.763)" fill="#3c2415"/>
    <rect id="Rectangle_1556" data-name="Rectangle 1556" width="3.755" height="1.297" transform="translate(205.7 223.122)" fill="#3c2415"/>
    <path id="Path_1034" data-name="Path 1034" d="M248.22,89.827l.271.7,6.14-2.362-.275-.7Z" transform="translate(-30.831 133.732)" fill="#3c2415"/>
    <path id="Path_1035" data-name="Path 1035" d="M187.27,87.965l6.323,2.437.284-.725-6.323-2.437Z" transform="translate(3.505 133.856)" fill="#3c2415"/>
    <path id="Path_1036" data-name="Path 1036" d="M111.4,352l35.715,1.026h47.706l.214-6.1-83.054-.769Z" transform="translate(46.245 -11.997)" fill="#c9c9c9"/>
    <rect id="Rectangle_1557" data-name="Rectangle 1557" width="79.679" height="51.195" transform="translate(167.409 269.317)"/>
    <path id="Path_1037" data-name="Path 1037" d="M201.422,327.11l-8.222,11h30.235l-8.218-11Z" transform="translate(0.164 -1.271)" fill="#c7c7c7"/>
    <path id="Path_1038" data-name="Path 1038" d="M193.194,352.29l0,3.458h30.244l0-3.458Z" transform="translate(0.17 -15.456)" fill="#969696"/>
    <path id="Path_1039" data-name="Path 1039" d="M139.11,203.02v46.522h75.006V203.02H139.11Z" transform="translate(30.635 68.633)" fill="#bbebf9"/>
    <path id="Path_1040" data-name="Path 1040" d="M133.76,320.237a5.606,5.606,0,0,0,5.847,5.327h35.226V314.91H133.76Z" transform="translate(33.649 5.602)" fill="#dbdbdb"/>
    <path id="Path_1041" data-name="Path 1041" d="M227.82,325.565h32.75a5.6,5.6,0,0,0,5.843-5.327V314.91H227.82Z" transform="translate(-19.339 5.602)" fill="#dbdbdb"/>
    <rect id="Rectangle_1558" data-name="Rectangle 1558" width="71.142" height="10.864" transform="translate(171.985 275.701)" fill="#00b3fe"/>
    <rect id="Rectangle_1559" data-name="Rectangle 1559" width="18.2" height="26.903" transform="translate(171.985 288.7)" fill="#93b9c4"/>
    <rect id="Rectangle_1560" data-name="Rectangle 1560" width="18.2" height="26.903" transform="translate(192.578 288.7)" fill="#dfe4e6"/>
    <rect id="Rectangle_1561" data-name="Rectangle 1561" width="29.96" height="26.903" transform="translate(213.167 288.7)" fill="#93b9c4"/>
    <path id="Path_1042" data-name="Path 1042" d="M224.682,320.54a2.432,2.432,0,1,0,2.432,2.432A2.432,2.432,0,0,0,224.682,320.54Z" transform="translate(-16.201 2.43)" fill="#fff"/>
    <path id="Path_1043" data-name="Path 1043" d="M143.63,289.252l.044-.052h0Z" transform="translate(28.088 20.085)" fill="#d98c52"/>
    <path id="Path_1044" data-name="Path 1044" d="M147.127,295.07c.065-.048.118-.079.2-.14s.17-.144.253-.223l.118-.122.031-.039.057-.07h0v-.026a1.6,1.6,0,0,1-.118.131,1.718,1.718,0,0,1-.345.253,1.559,1.559,0,0,1-.716.2,1.352,1.352,0,0,1-.371-.031l-.114-.031-.057-.022-.061-.026.061.044a5,5,0,0,1,.437.341l.052.052.192-.079A2.7,2.7,0,0,0,147.127,295.07Z" transform="translate(26.753 17.127)" fill="#d98c52"/>
    <path id="Path_1045" data-name="Path 1045" d="M143.9,288.8l.039-.035.057-.044.074-.048c.07-.035.044-.031,0-.026L144,288.7Z" transform="translate(27.936 20.398)" fill="#d98c52"/>
    <path id="Path_1046" data-name="Path 1046" d="M146.709,295.3c-.266-.349-.642-.852-1.092-1.454-.917-1.2-2.131-2.773-3.493-4.327-.345-.393-.7-.777-1.1-1.17-.205-.192-.415-.389-.681-.6a3.953,3.953,0,0,0-.493-.336l-.175-.1a2.148,2.148,0,0,0-.236-.1l-.14-.048a1.223,1.223,0,0,0-.2-.052,2.015,2.015,0,0,0-.541-.052,1.986,1.986,0,0,0-.873.249,1.7,1.7,0,0,0-.349.253c.057,0,.083,0,0,.026l-.074.048-.057.044-.039.035a.672.672,0,0,0-.074.083l-.044.052.039-.048h0l.026-.035h0l-.057.061v.026l.052-.066c.026-.031.057-.052.083-.079l.092-.1.065-.052h-.031a4.2,4.2,0,0,1-.738-.092,10.351,10.351,0,0,1-1.441-.415c-.354-.131-.546-.218-.52-.205a1.967,1.967,0,1,0-1.432,3.664c.031,0,.3.109.764.245a15.14,15.14,0,0,0,2.039.437,7.326,7.326,0,0,0,1.651.039,4.086,4.086,0,0,0,1.026-.245l-.052-.052a5.005,5.005,0,0,0-.437-.341l-.061-.044h.013l.061.026.057.022.114.031a1.355,1.355,0,0,0,.371.031,1.559,1.559,0,0,0,.716-.2,1.715,1.715,0,0,0,.345-.253,1.6,1.6,0,0,0,.118-.131c.044-.057.122-.153.057-.066l-.035.039-.022.026v.026h0l-.057.07-.031.039-.118.122c-.083.079-.166.153-.253.223s-.131.092-.2.14a2.7,2.7,0,0,1-.376.205l-.192.079c.293.266.6.576.908.873,1.31,1.367,2.563,2.878,3.493,4l1.118,1.375.437.52h0a1.6,1.6,0,1,0,2.537-1.943Z" transform="translate(34.677 21.488)" fill="#d98c52"/>
    <path id="Path_1047" data-name="Path 1047" d="M155.16,294.85l.48.489.515.14Z" transform="translate(21.593 16.902)" fill="#f7a05e"/>
    <path id="Path_1048" data-name="Path 1048" d="M148.348,283.832a2.048,2.048,0,0,0-.852-.581l-.144-.048-6.838-2.384-.17-.052a2.5,2.5,0,0,0-1.31,4.834l6.476,1.747-.48-.489,1,.629-.515-.14,5.205,5.34a2,2,0,0,0,2.939-2.694Z" transform="translate(31.72 24.885)" fill="#f7a05e"/>
    <path id="Path_1049" data-name="Path 1049" d="M147.861,280.072a2.114,2.114,0,0,0-1.585-.559h-.135l-8.318.646h-.153a2.5,2.5,0,1,0,.668,4.965l7.358-1.009-.808-.668,1.716.546-.9.122,5.563,4.6a2,2,0,0,0,2.62-2.991Z" transform="translate(32.669 25.545)" fill="#ffb176"/>
    <path id="Path_1050" data-name="Path 1050" d="M157.01,288.52l.817.672.9-.122Z" transform="translate(20.551 20.468)" fill="#ffb176"/>
    <rect id="Rectangle_1562" data-name="Rectangle 1562" width="55.548" height="76.404" transform="translate(178.277 248.366)" fill="#fff"/>
    <rect id="Rectangle_1563" data-name="Rectangle 1563" width="55.548" height="12.829" transform="translate(178.277 248.366)" fill="#2f3a3e"/>
    <rect id="Rectangle_1564" data-name="Rectangle 1564" width="55.548" height="0.681" transform="translate(178.277 324.084)" fill="#00b3fe"/>
    <rect id="Rectangle_1565" data-name="Rectangle 1565" width="20.257" height="21.72" transform="translate(180.701 250.903)" fill="#fff"/>
    <path id="Path_1051" data-name="Path 1051" d="M208.268,273.54c-.17.843-.192.974-.358,1.812h.157l.1-.472h.415l.092.472h.153l-.358-1.812Zm-.087,1.236.188-1.07.192,1.07Z" transform="translate(-8.123 28.907)" fill="#fff"/>
    <path id="Path_1052" data-name="Path 1052" d="M211.2,275.09l-.214-1.55h-.2l-.236,1.55-.245-1.55h-.153l.306,1.812h.183l.245-1.6.223,1.6h.188l.3-1.812h-.148Z" transform="translate(-9.384 28.907)" fill="#fff"/>
    <path id="Path_1053" data-name="Path 1053" d="M213.928,273.54c-.17.843-.192.974-.358,1.812h.157l.1-.472h.415l.092.472h.162l-.358-1.812Zm-.087,1.236.188-1.07.192,1.07Z" transform="translate(-11.311 28.907)" fill="#fff"/>
    <path id="Path_1054" data-name="Path 1054" d="M217.029,274.007c0-.249-.074-.467-.389-.467h-.48v1.812h.157v-.873h.306l.266.873h.17l-.284-.9A.437.437,0,0,0,217.029,274.007Zm-.389.332h-.323v-.672h.323c.188,0,.231.157.231.336S216.832,274.339,216.64,274.339Z" transform="translate(-12.77 28.907)" fill="#fff"/>
    <path id="Path_1055" data-name="Path 1055" d="M219.14,273.54h-.41v1.812h.41c.358,0,.463-.24.463-.533v-.738C219.6,273.78,219.49,273.54,219.14,273.54Zm.3,1.31c0,.2-.065.371-.3.371h-.249v-1.559h.249c.236,0,.3.17.3.38Z" transform="translate(-14.218 28.907)" fill="#fff"/>
    <path id="Path_1056" data-name="Path 1056" d="M221.5,274.153a.437.437,0,0,1-.148-.288.231.231,0,0,1,.262-.24c.175,0,.271.14.3.31h0l.131-.044h0a.437.437,0,0,0-.437-.393.384.384,0,0,0-.415.393.546.546,0,0,0,.192.362l.279.3a.664.664,0,0,1,.245.437.236.236,0,0,1-.258.262c-.214,0-.3-.188-.323-.376l-.14.039c.035.249.179.467.437.467a.389.389,0,0,0,.437-.406.817.817,0,0,0-.3-.515Z" transform="translate(-15.604 28.931)" fill="#fff"/>
    <rect id="Rectangle_1566" data-name="Rectangle 1566" width="21.327" height="2.838" transform="translate(204.045 250.903)" fill="#e6e6e6"/>
    <rect id="Rectangle_1567" data-name="Rectangle 1567" width="9.904" height="1.738" transform="translate(204.045 257.23)" fill="#ff5757"/>
    <rect id="Rectangle_1568" data-name="Rectangle 1568" width="21.327" height="1.105" transform="translate(204.045 254.994)" fill="#596e75"/>
    <rect id="Rectangle_1569" data-name="Rectangle 1569" width="27.3" height="3.821" transform="translate(204.045 264.19)" fill="#00b3fe"/>
    <rect id="Rectangle_1570" data-name="Rectangle 1570" width="27.501" height="2.227" transform="translate(204.045 270.395)" fill="#ccc"/>
    <rect id="Rectangle_1571" data-name="Rectangle 1571" width="50.793" height="2.227" transform="translate(180.753 274.587)" fill="#ccc"/>
    <rect id="Rectangle_1572" data-name="Rectangle 1572" width="50.535" height="3.821" transform="translate(180.701 280.251)" fill="#00b3fe"/>
    <rect id="Rectangle_1573" data-name="Rectangle 1573" width="50.845" height="2.227" transform="translate(180.701 286.46)" fill="#ccc"/>
    <rect id="Rectangle_1574" data-name="Rectangle 1574" width="50.845" height="2.227" transform="translate(180.701 290.652)" fill="#ccc"/>
    <rect id="Rectangle_1575" data-name="Rectangle 1575" width="50.535" height="3.821" transform="translate(180.701 296.316)" fill="#00b3fe"/>
    <rect id="Rectangle_1576" data-name="Rectangle 1576" width="50.845" height="2.227" transform="translate(180.701 302.521)" fill="#ccc"/>
    <rect id="Rectangle_1577" data-name="Rectangle 1577" width="50.845" height="2.227" transform="translate(180.701 306.717)" fill="#ccc"/>
    <rect id="Rectangle_1578" data-name="Rectangle 1578" width="16.999" height="10.725" transform="translate(180.701 310.887)" fill="#ccc"/>
    <rect id="Rectangle_1579" data-name="Rectangle 1579" width="9.891" height="10.663" transform="translate(199.097 310.887)" fill="#ff5757"/>
    <rect id="Rectangle_1580" data-name="Rectangle 1580" width="9.891" height="10.663" transform="translate(210.377 310.887)" fill="#ff5757"/>
    <rect id="Rectangle_1581" data-name="Rectangle 1581" width="9.891" height="10.663" transform="translate(221.656 310.887)" fill="#ff5757"/>
    <path id="Path_1057" data-name="Path 1057" d="M184.87,185.6a5.083,5.083,0,0,1-3.493-1.7l3.576-1.406H182.1a.965.965,0,0,0-1.061.825v2.14a.965.965,0,0,0,1.061.83h3.393a.969.969,0,0,0,1.061-.83v-.048A2.856,2.856,0,0,1,184.87,185.6Z" transform="translate(7.014 80.2)" fill="#edc89f"/>
    <path id="Path_1058" data-name="Path 1058" d="M185.551,182.5h-.559l-3.882.978s.742,1.747,3.777,2.153a2.943,2.943,0,0,0,1.707-.214V183.32a.969.969,0,0,0-1.044-.825Z" transform="translate(6.975 80.197)" fill="#c9aa85"/>
    <path id="Path_1059" data-name="Path 1059" d="M185.491,167.193c-.131-.035-.284.048-.437.218v-.249a4.565,4.565,0,1,0-9.113,0v.249c-.144-.17-.3-.253-.437-.218-.323.092-.437.834-.214,1.668s.624,1.437.943,1.349a.437.437,0,0,0,.253-.319c.773,2,2.275,3.812,4,3.812s3.223-1.812,4-3.812a.437.437,0,0,0,.253.319c.319.087.742-.52.943-1.349S185.814,167.285,185.491,167.193Z" transform="translate(10.318 91.561)" fill="#ffe2c2"/>
    <path id="Path_1060" data-name="Path 1060" d="M184.6,188.813h-3.585a1,1,0,0,1-.956-.873c-.275.039-.546.087-.812.14l3.594,4.1,3.375-4.07-.664-.122a1,1,0,0,1-.952.821Z" transform="translate(8.022 77.128)" fill="#edc89f"/>
    <path id="Path_1061" data-name="Path 1061" d="M182.117,192.325l-3.594-4.1-.563.131,4.223,4.856,3.816-4.83-.507-.122Z" transform="translate(8.749 76.97)" fill="#ff5757"/>
    <path id="Path_1062" data-name="Path 1062" d="M180.863,188.682l-4.035,5.109-4.463-5.131c-2.148.59-3.712,1.694-3.712,3.345l-.214,2.472h16.55L184.776,192C184.776,190.407,183.116,189.289,180.863,188.682Z" transform="translate(14.112 76.722)" fill="#ff5757"/>
    <path id="Path_1063" data-name="Path 1063" d="M181.907,193.376,177.7,188.52l-.231.061,4.463,5.131,4.035-5.109-.227-.057Z" transform="translate(9.025 76.801)" fill="#ffa308"/>
    <path id="Path_1064" data-name="Path 1064" d="M177.695,160.617a7.383,7.383,0,0,0-.825,4.8,12.061,12.061,0,0,1,2.873-4.113c1.074,1.5,2.214,1.812,3.463.066a13.537,13.537,0,0,1,2.768,4.048,8.3,8.3,0,0,0-.437-4.725A5.019,5.019,0,0,0,177.695,160.617Z" transform="translate(9.408 93.561)"/>
    <path id="Path_1065" data-name="Path 1065" d="M182.144,172a1.284,1.284,0,1,0,1.284,1.284A1.284,1.284,0,0,0,182.144,172Zm0,2.14a.867.867,0,1,0,0-.013Z" transform="translate(7.116 86.108)" fill="#3c2415"/>
    <path id="Path_1066" data-name="Path 1066" d="M189.738,172a1.284,1.284,0,1,0,1.279,1.284A1.284,1.284,0,0,0,189.738,172Zm0,2.14a.867.867,0,1,0,0-.013Z" transform="translate(2.84 86.108)" fill="#3c2415"/>
    <rect id="Rectangle_1582" data-name="Rectangle 1582" width="1.035" height="0.358" transform="translate(190.399 259.273)" fill="#3c2415"/>
    <path id="Path_1067" data-name="Path 1067" d="M193.79,174.1l.074.2,1.69-.651-.074-.2Z" transform="translate(-0.168 85.291)" fill="#3c2415"/>
    <path id="Path_1068" data-name="Path 1068" d="M177,173.591l1.742.672.079-.2-1.742-.672Z" transform="translate(9.29 85.325)" fill="#3c2415"/>
    <path id="Path_1069" data-name="Path 1069" d="M250.055,253.036c-.528-1.131-1.087-2.244-1.638-3.349l-1.624-3.258c-1.079-2.14-2.065-4.218-3.127-6.161l-2.908-5.485c-.437-.852-.873-1.668-1.31-2.437s-.873-1.493-1.245-2.183c-.782-1.367-1.463-2.555-2.022-3.537l-1.747-3.083-1.873,1.1-.6-1.074c.293-1.1-.1-2.463-.873-4.179-.175-.389-.476-.987-.817-1.642a.437.437,0,0,0-.1-.336s-1.371-4.236-3.183-5.533c-1.7-1.214-1.974-.629-2.62-.026-.183-.057-.371-.109-.559-.157l-.2-.4a2.074,2.074,0,0,0-3.873.476,4.825,4.825,0,0,0-.817.393l-.4-.7-.052-.087a2.266,2.266,0,1,0-3.838,2.41l.3.485-.223.074-8.017-9.733a1.609,1.609,0,0,0-2.62,1.869l6.851,11.021a8.76,8.76,0,0,0,.59,1.851c.437.991,3.533,6.454,5.332,8.113,1.375,1.266,2.716,2.646,4.292,2.668l.507.9-2.55,1.489,1.6,2.926c.507.93,1.127,2.057,1.838,3.354.354.646.729,1.336,1.131,2.061s.777,1.524,1.192,2.341c.83,1.633,1.747,3.4,2.677,5.275s1.891,3.891,2.891,5.961l1.507,3.166c.511,1.065,1.026,2.148,1.52,3.258l1.07,2.367a157.821,157.821,0,0,1,20.165-.349c-.437-.991-.913-1.991-1.384-2.982C252.212,257.595,251.125,255.3,250.055,253.036Z" transform="translate(-5.793 68.118)" fill="#c9c9c9"/>
    <path id="Path_1070" data-name="Path 1070" d="M207.654,202.619a1.609,1.609,0,0,0-2.62,1.869l7.052,11.323a2.684,2.684,0,0,0,.188.266,2.489,2.489,0,0,0,3.843-3.161Z" transform="translate(-6.334 69.239)" fill="#ffb176"/>
    <path id="Path_1071" data-name="Path 1071" d="M238.485,221.837c-2.157-2.131-6.908-3.974-9.877-1.707-4.533,3.467-9.336,1.218-6.934,6.873.437.991,3.533,6.454,5.332,8.113s3.55,3.524,5.847,2.244l7.633-4.253c2.3-1.279,2.044-3.179.742-6.052C240.621,225.711,238.485,221.837,238.485,221.837Z" transform="translate(-15.515 59.58)" fill="#ffb176"/>
    <path id="Path_1072" data-name="Path 1072" d="M233.042,217.7l-.052-.087a2.266,2.266,0,1,0-3.838,2.41l4.4,7.008a2.083,2.083,0,0,0,3.576-2.131Z" transform="translate(-19.893 61.011)" fill="#ffb176"/>
    <rect id="Rectangle_1583" data-name="Rectangle 1583" width="12.633" height="9.956" transform="translate(215.172 296.281) rotate(-29.13)" fill="#ffb176"/>
    <path id="Path_1073" data-name="Path 1073" d="M245.136,217.439a2.083,2.083,0,0,0-3.707,1.891l3.672,7.214a2.083,2.083,0,0,0,2.8.908,2.14,2.14,0,0,0,.59-.437,2.087,2.087,0,0,0,.319-2.354Z" transform="translate(-26.899 61.104)" fill="#ffb176"/>
    <path id="Path_1074" data-name="Path 1074" d="M253.932,219.206c-1.808-1.31-2-.541-2.755.092s-.022,1.349.616,2.1l3.812,4.515c.638.751,1.991-.607,1.511-1.175C257.115,224.739,255.744,220.5,253.932,219.206Z" transform="translate(-32.315 59.918)" fill="#ffb176"/>
    <path id="Path_1075" data-name="Path 1075" d="M242.26,253.718l.537,1.039,12.462-7.113-.358-1.114Z" transform="translate(-27.473 44.122)" fill="#fff"/>
    <path id="Path_1076" data-name="Path 1076" d="M285.411,308.6l-2.424-5.607c-.873-1.987-1.8-4.083-2.755-6.253s-1.965-4.4-3-6.672-2.057-4.581-3.153-6.877-2.183-4.594-3.249-6.856c-.528-1.131-1.087-2.244-1.638-3.349l-1.624-3.258c-1.079-2.14-2.065-4.218-3.127-6.161l-2.908-5.485c-.437-.852-.873-1.668-1.31-2.437s-.873-1.493-1.245-2.183c-.782-1.367-1.463-2.554-2.022-3.537l-1.747-3.083-15.331,8.969,1.6,2.926c.507.93,1.127,2.057,1.838,3.354.354.646.729,1.336,1.131,2.061s.777,1.524,1.192,2.341c.83,1.633,1.747,3.4,2.677,5.275s1.891,3.891,2.891,5.96l1.507,3.166c.511,1.065,1.026,2.148,1.52,3.258l3.026,6.7c1.026,2.24,1.978,4.533,2.956,6.76s1.926,4.423,2.812,6.576l2.594,6.179,2.284,5.568,1.253,3.078h20.711L289,316.964Z" transform="translate(-26.132 43.948)"/>
    <path id="Path_1077" data-name="Path 1077" d="M131.086,282.463a4.5,4.5,0,0,0-5.6,1.786s-4.733,6.506-5.677,8.987c-1.262,3.24-1.157,5.14,1.589,6.048l5.707,1.891c2.751.908,4.258-1.467,5.864-3.642s2.231-7.423,2.218-8.594C135.174,286.821,134.706,283.66,131.086,282.463Z" transform="translate(41.946 24.062)" fill="#ffb176"/>
    <rect id="Rectangle_1584" data-name="Rectangle 1584" width="10.982" height="11.353" transform="matrix(0.314, -0.949, 0.949, 0.314, 157.76, 331.176)" fill="#ffb176"/>
    <path id="Path_1078" data-name="Path 1078" d="M152.576,291.006s-.192.166-.55.415-.873.59-1.533.965c-.323.192-.686.38-1.065.576s-.795.4-1.223.594-.873.393-1.341.581l-.349.144a1.443,1.443,0,0,0-.183.079l-.175.079c-.227.1-.458.205-.7.293a24.26,24.26,0,0,1-2.934.847c-.476.122-.934.249-1.354.389a5.715,5.715,0,0,0-1.127.489c-.672.341-1.218.646-1.594.873s-.59.362-.59.362h0a4.262,4.262,0,0,0,4.563,7.2s.214-.127.576-.376.873-.607,1.467-1.065a5.858,5.858,0,0,0,.921-.8c.306-.319.616-.677.93-1.052a25.486,25.486,0,0,1,2.039-2.279c.183-.175.371-.345.568-.5l.144-.122.127-.114.284-.249c.371-.332.747-.646,1.113-.943s.729-.576,1.074-.83.677-.5.991-.7a14.552,14.552,0,0,1,1.546-.948c.389-.205.616-.31.616-.31a2.182,2.182,0,0,0,.555-.345,2.137,2.137,0,1,0-2.782-3.244Z" transform="translate(32.404 19.357)" fill="#ffb176"/>
    <path id="Path_1079" data-name="Path 1079" d="M113.87,322.2l13.262,3.319.533-1.9L113.87,320.91Z" transform="translate(44.853 2.222)" fill="#fff"/>
    <path id="Path_1080" data-name="Path 1080" d="M114.258,355.658c.083-1.065.17-2.183.262-3.345.188-2.314.389-4.781.585-7.249s.507-4.917.742-7.218c.118-1.153.231-2.262.345-3.319s.275-2,.4-2.9c.493-3.594.821-5.991.821-5.991L99.949,322.41s-.437,2.62-1.14,6.506c-.17.974-.358,2.035-.55,3.153s-.323,2.266-.489,3.467c-.336,2.406-.69,4.969-1.048,7.532s-.581,5.131-.873,7.546c-.14,1.2-.275,2.362-.4,3.463s-.214,2.1-.31,3.057c-.188,1.843-.345,3.38-.437,4.476h19.187c.052-.838.118-1.8.188-2.878C114.119,357.767,114.184,356.728,114.258,355.658Z" transform="translate(55.652 1.377)"/>
    <path id="Path_1081" data-name="Path 1081" d="M174.21,292.111l1.777,2.62a1.917,1.917,0,0,0,.755-2.62C175.887,290.4,174.21,292.111,174.21,292.111Z" transform="translate(10.862 18.872)" fill="#ffe6d4"/>
  </g>
</svg>
